<svg width="116" height="33" viewBox="0 0 116 33" fill="none" xmlns="http://www.w3.org/2000/svg"><g clip-path="url(#clip0_16016_7276)"><path d="M14.147.031S8.577 4.842 4.16 14.966C-.261 25.09.004 32.43.004 32.43H140.63s5.57-4.811 9.989-14.934C155.038 7.37 154.772.03 154.772.03H14.147z" fill="#1C1C1C"/></g><path fill="#1C1C1C" d="M15.581 0h84v32.201h-84z"/><path d="M27.001 17.22h1.56v5.28c0 .28.054.467.16.56.12.08.394.12.82.12h2.82c.267 0 .467-.06.6-.18.134-.133.227-.4.28-.8.054-.413.087-1.02.1-1.82.12.08.26.16.42.24.174.08.347.154.52.22.187.054.347.1.48.14-.053.96-.153 1.7-.3 2.22-.146.534-.373.9-.68 1.1-.306.2-.74.3-1.3.3h-3.1c-.626 0-1.113-.06-1.46-.18a1.223 1.223 0 01-.72-.64c-.133-.306-.2-.733-.2-1.28v-5.28zm-4.78.16h1.58c-.106.92-.28 1.76-.52 2.52s-.6 1.447-1.08 2.06c-.48.6-1.126 1.127-1.94 1.58-.813.467-1.84.854-3.08 1.16a2.45 2.45 0 00-.24-.44 9.4 9.4 0 00-.3-.48 1.598 1.598 0 00-.34-.38c1.147-.253 2.08-.566 2.8-.94.734-.386 1.307-.826 1.72-1.32a4.99 4.99 0 00.94-1.68c.2-.626.354-1.32.46-2.08zm2.58-5.6h1.46v5.12h-1.46v-5.12zm-2.68-5.54l1.66.32a21.514 21.514 0 01-1.6 2.34c-.6.787-1.293 1.554-2.08 2.3a19.255 19.255 0 01-2.66 2.06 2.79 2.79 0 00-.28-.4 3.929 3.929 0 00-.4-.42 2.13 2.13 0 00-.36-.3 17.73 17.73 0 002.46-1.86 16.984 16.984 0 001.92-2.04 13.413 13.413 0 001.34-2zm-2.14 6.38v3.64h11.6v-3.64h-11.6zm-1.48-1.36h14.64v6.36h-14.64v-6.36zm9.08-3.44h.34l.24-.06 1.04.66c-.24.44-.526.9-.86 1.38-.333.48-.68.94-1.04 1.38-.36.44-.713.827-1.06 1.16a9.42 9.42 0 00-.54-.36 4.022 4.022 0 00-.58-.34 15.34 15.34 0 001.82-2.36c.267-.426.48-.813.64-1.16v-.3zm-5.8 0h6.24v1.26h-7.04l.8-1.26zm18.42 1.72h12.56V8.42h-13.92V7.4h15.3v3.14h-13.94v-1zm-.46 0h1.42a48.099 48.099 0 01-.62 1.78c-.213.6-.406 1.12-.58 1.56l-1.4-.08c.2-.453.407-.973.62-1.56.214-.6.4-1.166.56-1.7zm-.1 2.08h14.84v1h-15.14l.3-1zm14.34 0h1.42l-.02.18v.32c-.066.614-.14 1.087-.22 1.42-.08.32-.2.554-.36.7-.12.12-.266.214-.44.28-.16.054-.34.087-.54.1h-.76l-1-.04a2.755 2.755 0 00-.1-.5 1.95 1.95 0 00-.2-.5c.32.027.607.047.86.06.254.014.434.02.54.02.12 0 .214-.006.28-.02a.31.31 0 00.18-.12c.08-.08.147-.246.2-.5.067-.266.12-.673.16-1.22v-.18zM43.741 6.3h1.38v3.6a7.12 7.12 0 01-.24 1.88c-.146.587-.446 1.134-.9 1.64-.44.494-1.1.94-1.98 1.34-.866.4-2.026.74-3.48 1.02-.04-.12-.1-.253-.18-.4a4.433 4.433 0 00-.26-.42 2.11 2.11 0 00-.28-.36c1.334-.24 2.394-.526 3.18-.86.787-.333 1.38-.7 1.78-1.1.4-.4.66-.833.78-1.3.134-.466.2-.953.2-1.46V6.3zm4.48 0h1.44v7.82h-1.44V6.3zm-6.44 11v1.24h10.04V17.3h-10.04zm0 2.18v1.26h10.04v-1.26h-10.04zm0-4.34v1.24h10.04v-1.24h-10.04zm-1.46-.96h13.02v7.54h-13.02v-7.54zm7.98 8.54l1.2-.8c.734.2 1.48.42 2.24.66.76.227 1.474.454 2.14.68.68.24 1.26.46 1.74.66l-1.6.8a20.42 20.42 0 00-1.56-.64c-.6-.226-1.26-.46-1.98-.7a34.68 34.68 0 00-2.18-.66zm-4.6-.82l1.34.62c-.533.294-1.16.58-1.88.86s-1.453.54-2.2.78c-.733.24-1.44.44-2.12.6a2.812 2.812 0 00-.3-.38 12.134 12.134 0 00-.42-.4 7.52 7.52 0 00-.36-.34c.694-.133 1.4-.293 2.12-.48a28.11 28.11 0 002.1-.58c.667-.213 1.24-.44 1.72-.68zm17.02-3.82h6.96v1h-6.96v-1zm0 2.18h6.96v1h-6.96v-1zm-.1 2.18h7.54v1.12h-7.54v-1.12zm-1.86-14.8h9.54v1.14h-9.54V7.64zm4.62 8.8h1.28v6.7h-1.28v-6.7zm-2.44-10.1h1.32v3.72h-1.32V6.34zm3.98 0h1.3v3.72h-1.3V6.34zm-4.6 5.14v1.7h1.68v-1.7h-1.68zm-1.08-1h3.86v3.7h-3.86v-3.7zm5.8 1v1.7h1.82v-1.7h-1.82zm-1.04-1h3.98v3.7h-3.98v-3.7zm-2.76 5.36h6.86v1.08h-6.86v7.6h-1.24V16.8l.88-.96h.36zm3.02-1.72l1.28.34c-.2.387-.4.78-.6 1.18-.186.4-.36.747-.52 1.04l-1-.32a12.928 12.928 0 00.84-2.24zm-3.38-.06l1.16.3a16.7 16.7 0 01-1.3 2.92c-.533.947-1.106 1.754-1.72 2.42-.053-.08-.126-.186-.22-.32a4.169 4.169 0 00-.3-.38 1.715 1.715 0 00-.28-.32c.56-.573 1.067-1.266 1.52-2.08.467-.813.847-1.66 1.14-2.54zm9.46-2.44v2.04h4.44v-2.04h-4.44zm0 3.24v2.06h4.44v-2.06h-4.44zm0-6.46v2.02h4.44V8.4h-4.44zm-1.32-1.32h7.14v11.14h-7.14V7.08zm3.9 10.76h1.32v4.78c0 .2.02.334.06.4.054.067.154.1.3.1h.92a.27.27 0 00.26-.16c.067-.12.114-.366.14-.74.04-.373.06-.953.06-1.74.134.12.32.227.56.32.24.094.447.167.62.22-.026.894-.093 1.587-.2 2.08-.093.48-.246.807-.46.98-.2.187-.473.28-.82.28h-1.28c-.4 0-.706-.053-.92-.16-.213-.093-.36-.266-.44-.52-.08-.253-.12-.606-.12-1.06v-4.78zm-2.6.16h1.3c-.053 1.12-.193 2.107-.42 2.96-.213.854-.573 1.587-1.08 2.2-.493.614-1.213 1.127-2.16 1.54a3.82 3.82 0 00-.38-.58c-.16-.226-.313-.4-.46-.52.854-.32 1.5-.733 1.94-1.24.44-.506.747-1.12.92-1.84.174-.72.287-1.56.34-2.52zm13.76-2.8h11.66v9.54h-1.5V16.4h-8.72v8.34h-1.44V15.2zm-4.02-2.64h17.64v1.24h-17.64v-1.24zm1.46-2.7h15.02v1.2h-15.02v-1.2zm3.52 7.9h9.82v1.06h-9.82v-1.06zm0 2.46h9.82v1.04h-9.82v-1.04zm-.14 2.52h9.96v1.2h-9.96v-1.2zm10.5-16.28l.96 1.08c-.933.187-1.993.347-3.18.48-1.186.134-2.44.24-3.76.32-1.32.08-2.653.147-4 .2-1.346.04-2.64.06-3.88.06a2.994 2.994 0 00-.12-.58 3.761 3.761 0 00-.18-.58c1.214-.013 2.48-.04 3.8-.08 1.334-.04 2.64-.1 3.92-.18 1.28-.08 2.474-.18 3.58-.3 1.107-.12 2.06-.26 2.86-.42zm-8.2 1.36l1.56.34a30.05 30.05 0 01-1.76 4.68 18.868 18.868 0 01-2.66 4.16 15.115 15.115 0 01-3.84 3.24 3.836 3.836 0 00-.28-.38 3.843 3.843 0 00-.34-.44 9.493 9.493 0 00-.34-.36c1.427-.813 2.64-1.813 3.64-3a16.897 16.897 0 002.5-3.9 23.64 23.64 0 001.52-4.34z" fill="#FFE040"/><g clip-path="url(#clip1_16016_7276)"><path d="M101.016 32.17s5.57-4.811 9.989-14.935c4.42-10.125 4.154-17.464 4.154-17.464H-25.466s-5.57 4.811-9.988 14.935c-4.42 10.125-4.154 17.464-4.154 17.464h140.624z" fill="#1C1C1C"/></g><defs><clipPath id="clip0_16016_7276"><path fill="#fff" d="M0 0h15.581v32.201H0z"/></clipPath><clipPath id="clip1_16016_7276"><path fill="#fff" transform="rotate(-180 57.581 16.1)" d="M0 0h15.581v32.201H0z"/></clipPath></defs></svg>