<svg width="309" height="21" viewBox="0 0 309 21" fill="none" xmlns="http://www.w3.org/2000/svg"><g clip-path="url(#clip0_10005_7050)"><path d="M24.841 6.763h3.27c1.09 0 1.682.417 1.682 1.57 0 1.027-.72 1.587-1.682 1.587h-3.27V6.763zm-2.003 9.808h5.256c2.965 0 4.216-1.394 4.216-3.19 0-1.554-.754-2.644-2.147-2.949v-.031c1.042-.449 1.634-1.282 1.634-2.436 0-1.908-1.346-2.837-3.397-2.837h-5.562v11.443zm2.003-5.208h3.542c1.218 0 1.924.64 1.924 1.763 0 1.122-.706 1.81-1.924 1.81h-3.542v-3.573zM12.71 12.756c.048 2.837 2.163 4.088 4.775 4.088 2.276 0 4.552-1.026 4.552-3.59 0-1.186-.72-2.468-2.227-2.917-.593-.178-3.126-.834-3.302-.882-.817-.225-1.362-.673-1.362-1.474 0-1.154 1.17-1.49 2.1-1.49 1.378 0 2.372.545 2.467 2.019h2.003c0-2.389-2.003-3.654-4.392-3.654-2.066 0-4.182 1.073-4.182 3.365 0 1.185.576 2.372 2.533 2.9 1.57.434 2.611.642 3.412.946.465.176.946.528.946 1.41 0 .881-.657 1.73-2.42 1.73-1.602 0-2.9-.69-2.9-2.452H12.71v.001zm20.124 0c.048 2.837 2.164 4.088 4.776 4.088 2.275 0 4.551-1.026 4.551-3.59 0-1.186-.72-2.468-2.227-2.917-.593-.178-3.126-.834-3.301-.882-.818-.225-1.363-.673-1.363-1.474 0-1.154 1.17-1.49 2.1-1.49 1.379 0 2.372.545 2.467 2.019h2.004c0-2.389-2.004-3.654-4.39-3.654-2.069 0-4.184 1.073-4.184 3.365 0 1.185.577 2.372 2.533 2.9 1.571.434 2.612.642 3.413.946.465.176.946.528.946 1.41 0 .881-.657 1.73-2.42 1.73-1.602 0-2.9-.69-2.9-2.452h-2.003l-.002.001zM13.266 0s-3.091 2.68-5.744 8.305C9.12 4.17 9.015 1.267 9.015 1.267S6.773 3.213 4.822 7.292C5.955 4.294 5.88 2.203 5.88 2.203s-1.627 1.411-3.06 4.37c.803-2.172.75-3.68.75-3.68S2.165 4.113 1.05 6.675C-.067 9.24 0 11.097 0 11.097s1.138-.988 2.177-3.053c-1.184 3.064-1.106 5.214-1.106 5.214s1.582-1.374 3.001-4.248c-1.655 4.21-1.547 7.18-1.547 7.18s2.193-1.902 4.128-5.89c-2.305 5.778-2.157 9.866-2.157 9.866s3.454-2.994 6.194-9.295C13.43 4.568 13.266 0 13.266 0z" fill="#1C1C1C"/></g><g clip-path="url(#clip1_10005_7050)"><path d="M269.173 5.188s-1.947 1.68-3.49 5.218c-1.545 3.537-1.452 6.101-1.452 6.101h49.133s1.946-1.68 3.49-5.218c1.544-3.537 1.451-6.101 1.451-6.101h-49.132z" fill="#1C1C1C"/></g><path fill="#1C1C1C" d="M269.674 5.177h33v11.25h-33z"/><path d="M269.694 7.1v-.338l1.222-.365v.354l-1.222.35zm0 .556v-.339l1.222-.365v.355l-1.222.349zm1.894 5.172c-.31 0-.55-.031-.719-.095a.63.63 0 01-.349-.306 1.423 1.423 0 01-.106-.54l-.111-2.919h.624l.111 2.639c.007.166.023.29.047.375a.271.271 0 00.17.175c.084.032.213.047.386.047.112 0 .194.03.243.09a.311.311 0 01.074.212.303.303 0 01-.101.227c-.063.064-.153.095-.269.095zm.294 0l.053-.623c.162 0 .291-.011.386-.032.095-.021.162-.062.201-.122a.487.487 0 00.063-.27c0-.095-.014-.208-.042-.338a3.59 3.59 0 00-.106-.412 6.59 6.59 0 00-.132-.408l.613-.185c.046.117.088.252.127.407.043.152.078.307.106.466.032.155.048.301.048.439 0 .172-.022.32-.064.444a.82.82 0 01-.455.508c-.109.045-.231.079-.365.1a3.317 3.317 0 01-.433.026zm.73-2.87a.341.341 0 01-.244-.096.33.33 0 01-.1-.243.33.33 0 01.1-.244.324.324 0 01.244-.105c.091 0 .171.035.238.105a.33.33 0 01.1.244.33.33 0 01-.338.338zm2.764 2.87c-.31 0-.55-.031-.719-.095a.63.63 0 01-.349-.306 1.443 1.443 0 01-.106-.54l-.111-2.919h.624l.111 2.639c.007.166.023.29.048.375a.27.27 0 00.169.175c.085.032.213.047.386.047.113 0 .194.03.243.09.05.057.074.127.074.212a.302.302 0 01-.1.227.366.366 0 01-.27.095zm3.721 0c-.159 0-.305-.01-.439-.031a1.305 1.305 0 01-.365-.122.91.91 0 01-.285-.248 1.247 1.247 0 01-.196-.408l.375-.28a.796.796 0 00.207.286.763.763 0 00.306.143c.124.024.274.037.45.037.109 0 .187.03.232.09.05.056.074.126.074.21a.308.308 0 01-.095.228.356.356 0 01-.264.095zm-3.427 0l.053-.623a4.161 4.161 0 001.09-.143c.172-.046.338-.104.497-.175.158-.07.308-.153.449-.248-.099-.07-.21-.13-.333-.18a1.68 1.68 0 00-.391-.116 2.284 2.284 0 00-.794-.016 1.908 1.908 0 00-.179.031l-.096-.602a2.33 2.33 0 01.603-.085c.187 0 .358.021.513.063.155.043.298.096.429.16.13.063.252.126.364.19.117.063.228.117.334.163a.843.843 0 00.317.064h.164l.063.582c-.151.003-.292.03-.423.079-.13.046-.259.106-.386.18l-.396.222c-.141.077-.3.151-.476.222a3.86 3.86 0 01-.608.169c-.23.042-.494.063-.794.063zm1.449 1.1a.315.315 0 01-.232-.095.309.309 0 01-.096-.227c0-.092.032-.171.096-.238a.307.307 0 01.232-.1.31.31 0 01.233.1c.067.067.1.146.1.238a.302.302 0 01-.1.227.317.317 0 01-.233.095zm2.271-1.1l.053-.623a.376.376 0 00.222-.064.73.73 0 00.19-.206c.064-.099.136-.231.217-.397.102-.215.208-.382.317-.502a.951.951 0 01.334-.249.871.871 0 01.343-.074c.141 0 .274.034.397.1a.98.98 0 01.317.26c.092.11.162.232.212.37.053.138.079.277.079.418 0 .197-.039.366-.116.507a.816.816 0 01-.746.434c-.134 0-.296-.025-.486-.074-.191-.05-.404-.159-.64-.328l.243-.523c.166.109.317.186.455.232.141.046.257.069.349.069.081 0 .146-.01.195-.032a.238.238 0 00.117-.09.306.306 0 00.037-.153.556.556 0 00-.064-.254.626.626 0 00-.158-.222.308.308 0 00-.217-.09.262.262 0 00-.185.074.828.828 0 00-.164.217 7.108 7.108 0 00-.185.376 3.193 3.193 0 01-.243.423.988.988 0 01-.238.253.738.738 0 01-.281.117c-.102.02-.22.031-.354.031zm5.167-.026l-.111-3.834h.624l.106 3.834h-.619zm1.517 1.216l-.127-.624a5.82 5.82 0 00.624-.116c.183-.046.338-.111.465-.196a.769.769 0 00.291-.338 1.31 1.31 0 00.101-.55c0-.088-.009-.176-.027-.264a.824.824 0 00-.074-.239.471.471 0 00-.122-.169.246.246 0 00-.174-.068.269.269 0 00-.19.079.52.52 0 00-.127.19.568.568 0 00-.048.228c0 .06.012.11.037.153a.269.269 0 00.127.09c.06.021.134.032.222.032a1.182 1.182 0 00.534-.111l.021.497a1.166 1.166 0 01-.296.158 1.031 1.031 0 01-.375.064c-.131 0-.251-.014-.36-.043a.84.84 0 01-.275-.137.645.645 0 01-.185-.233.834.834 0 01-.063-.338c0-.159.024-.314.074-.466.053-.151.125-.289.217-.412.091-.123.199-.22.322-.29a.786.786 0 01.402-.112.76.76 0 01.428.122c.124.08.226.19.307.328.081.134.143.282.185.444.042.162.064.322.064.481 0 .37-.078.686-.233.947-.155.264-.381.47-.677.618-.296.152-.652.243-1.068.275zm3.667-1.814c.166 0 .294-.015.386-.047a.358.358 0 00.19-.127.32.32 0 00.059-.185.77.77 0 00-.064-.275 2.628 2.628 0 00-.169-.35 5.32 5.32 0 00-.217-.364 7.793 7.793 0 00-.227-.344l.529-.349a6.234 6.234 0 01.639 1.143c.071.165.124.312.159.438a.72.72 0 00.143.291c.06.067.127.113.201.138a.765.765 0 00.211.031c.113 0 .194.03.244.09a.311.311 0 01.074.212.31.31 0 01-.096.227c-.063.064-.153.095-.269.095-.141 0-.27-.02-.386-.063a.7.7 0 01-.291-.206 1.022 1.022 0 01-.191-.37l.281-.021a.65.65 0 01-.159.322.891.891 0 01-.37.248 1.671 1.671 0 01-.613.096 2.19 2.19 0 01-.36-.032 2.455 2.455 0 01-.36-.08 1.534 1.534 0 01-.306-.142l.243-.555c.106.053.22.097.344.132.123.032.248.047.375.047zm4.192.64a2.035 2.035 0 01-.942-.232 1.81 1.81 0 01-.402-.286 1.387 1.387 0 01-.28-.386 1.124 1.124 0 01-.106-.486c0-.159.034-.305.101-.44a.802.802 0 01.291-.322.826.826 0 01.46-.127c.173 0 .321.044.444.132a.83.83 0 01.291.334c.07.133.106.274.106.423 0 .222-.059.42-.175.592-.113.169-.27.312-.471.428a2.426 2.426 0 01-.666.264c-.247.06-.5.09-.761.09l.053-.623c.197 0 .37-.01.518-.027a1.8 1.8 0 00.391-.085.924.924 0 00.323-.185.826.826 0 00.19-.248.624.624 0 00.063-.26.511.511 0 00-.031-.18.323.323 0 00-.095-.137.222.222 0 00-.154-.058c-.063 0-.12.02-.169.058a.34.34 0 00-.106.143.508.508 0 00-.037.19c0 .131.034.25.101.355.07.106.162.195.275.27.116.07.241.125.375.163.134.036.268.053.402.053.113 0 .194-.017.243-.053a.197.197 0 00.08-.169.571.571 0 00-.138-.301 2.007 2.007 0 00-.27-.286 7.092 7.092 0 00-.507-.412 20.177 20.177 0 00-.809-.582l.343-.481c.364.257.665.483.905.677.239.194.432.363.576.508.145.144.254.27.328.38a.898.898 0 01.185.55.702.702 0 01-.412.661 1.225 1.225 0 01-.513.095zm3.062-.016c-.31 0-.55-.031-.719-.095a.633.633 0 01-.349-.306 1.463 1.463 0 01-.106-.54l-.111-2.919h.624l.111 2.639c.007.166.023.29.048.375a.27.27 0 00.169.175c.085.032.214.047.386.047.113 0 .194.03.243.09.05.057.075.127.075.212a.303.303 0 01-.101.227c-.063.064-.153.095-.27.095zm.294 0l.053-.623c.117 0 .21-.01.281-.027a.292.292 0 00.179-.127c.05-.07.094-.174.133-.312.038-.14.082-.335.132-.582l.576.122c-.01.056-.025.122-.042.196-.014.07-.027.144-.037.222a1.374 1.374 0 00-.016.2.29.29 0 00.095.228c.064.053.183.08.36.08a.963.963 0 00.243-.027.321.321 0 00.169-.132 1 1 0 00.122-.323c.035-.148.072-.349.111-.603l.587.1a7.984 7.984 0 00-.08.513c-.01.082-.015.149-.015.202 0 .046.012.09.037.132.024.042.072.076.142.1.071.025.175.037.312.037a.757.757 0 00.249-.037.312.312 0 00.169-.127.441.441 0 00.058-.243c0-.134-.031-.305-.095-.513-.06-.208-.129-.423-.206-.645l.624-.195a4.855 4.855 0 01.243.92c.028.151.042.285.042.402 0 .172-.026.326-.079.46a.932.932 0 01-.211.333.909.909 0 01-.334.2c-.13.046-.275.07-.433.07a1.6 1.6 0 01-.471-.059.556.556 0 01-.275-.195.843.843 0 01-.127-.365h.18c-.07.187-.148.324-.233.412a.573.573 0 01-.306.17 2.32 2.32 0 01-.455.036 1.6 1.6 0 01-.333-.037.628.628 0 01-.302-.18c-.084-.095-.144-.237-.179-.428l.238-.02a1.028 1.028 0 01-.259.438.84.84 0 01-.371.185 2.433 2.433 0 01-.476.042zm2.581-3.135a.29.29 0 01-.212-.09.31.31 0 010-.434.29.29 0 01.212-.09c.085 0 .155.03.211.09a.307.307 0 010 .434.276.276 0 01-.211.09zm-.397.655a.293.293 0 01-.216-.09.313.313 0 01-.09-.222.29.29 0 01.09-.211.293.293 0 01.216-.09.29.29 0 01.212.09c.06.06.09.13.09.211 0 .085-.03.16-.09.223a.29.29 0 01-.212.09zm.778 0a.29.29 0 01-.212-.09.313.313 0 01-.09-.222.29.29 0 01.09-.211.29.29 0 01.212-.09c.084 0 .157.03.216.09.06.06.09.13.09.211 0 .085-.03.16-.09.223a.293.293 0 01-.216.09z" fill="#F865C9"/><path d="M269.694 7.1v-.338l1.222-.365v.354l-1.222.35zm0 .556v-.339l1.222-.365v.355l-1.222.349zm1.894 5.172c-.31 0-.55-.031-.719-.095a.63.63 0 01-.349-.306 1.423 1.423 0 01-.106-.54l-.111-2.919h.624l.111 2.639c.007.166.023.29.047.375a.271.271 0 00.17.175c.084.032.213.047.386.047.112 0 .194.03.243.09a.311.311 0 01.074.212.303.303 0 01-.101.227c-.063.064-.153.095-.269.095zm.294 0l.053-.623c.162 0 .291-.011.386-.032.095-.021.162-.062.201-.122a.487.487 0 00.063-.27c0-.095-.014-.208-.042-.338a3.59 3.59 0 00-.106-.412 6.59 6.59 0 00-.132-.408l.613-.185c.046.117.088.252.127.407.043.152.078.307.106.466.032.155.048.301.048.439 0 .172-.022.32-.064.444a.82.82 0 01-.455.508c-.109.045-.231.079-.365.1a3.317 3.317 0 01-.433.026zm.73-2.87a.341.341 0 01-.244-.096.33.33 0 01-.1-.243.33.33 0 01.1-.244.324.324 0 01.244-.105c.091 0 .171.035.238.105a.33.33 0 01.1.244.33.33 0 01-.338.338zm2.764 2.87c-.31 0-.55-.031-.719-.095a.63.63 0 01-.349-.306 1.443 1.443 0 01-.106-.54l-.111-2.919h.624l.111 2.639c.007.166.023.29.048.375a.27.27 0 00.169.175c.085.032.213.047.386.047.113 0 .194.03.243.09.05.057.074.127.074.212a.302.302 0 01-.1.227.366.366 0 01-.27.095zm3.721 0c-.159 0-.305-.01-.439-.031a1.305 1.305 0 01-.365-.122.91.91 0 01-.285-.248 1.247 1.247 0 01-.196-.408l.375-.28a.796.796 0 00.207.286.763.763 0 00.306.143c.124.024.274.037.45.037.109 0 .187.03.232.09.05.056.074.126.074.21a.308.308 0 01-.095.228.356.356 0 01-.264.095zm-3.427 0l.053-.623a4.161 4.161 0 001.09-.143c.172-.046.338-.104.497-.175.158-.07.308-.153.449-.248-.099-.07-.21-.13-.333-.18a1.68 1.68 0 00-.391-.116 2.284 2.284 0 00-.794-.016 1.908 1.908 0 00-.179.031l-.096-.602a2.33 2.33 0 01.603-.085c.187 0 .358.021.513.063.155.043.298.096.429.16.13.063.252.126.364.19.117.063.228.117.334.163a.843.843 0 00.317.064h.164l.063.582c-.151.003-.292.03-.423.079-.13.046-.259.106-.386.18l-.396.222c-.141.077-.3.151-.476.222a3.86 3.86 0 01-.608.169c-.23.042-.494.063-.794.063zm1.449 1.1a.315.315 0 01-.232-.095.309.309 0 01-.096-.227c0-.092.032-.171.096-.238a.307.307 0 01.232-.1.31.31 0 01.233.1c.067.067.1.146.1.238a.302.302 0 01-.1.227.317.317 0 01-.233.095zm2.271-1.1l.053-.623a.376.376 0 00.222-.064.73.73 0 00.19-.206c.064-.099.136-.231.217-.397.102-.215.208-.382.317-.502a.951.951 0 01.334-.249.871.871 0 01.343-.074c.141 0 .274.034.397.1a.98.98 0 01.317.26c.092.11.162.232.212.37.053.138.079.277.079.418 0 .197-.039.366-.116.507a.816.816 0 01-.746.434c-.134 0-.296-.025-.486-.074-.191-.05-.404-.159-.64-.328l.243-.523c.166.109.317.186.455.232.141.046.257.069.349.069.081 0 .146-.01.195-.032a.238.238 0 00.117-.09.306.306 0 00.037-.153.556.556 0 00-.064-.254.626.626 0 00-.158-.222.308.308 0 00-.217-.09.262.262 0 00-.185.074.828.828 0 00-.164.217 7.108 7.108 0 00-.185.376 3.193 3.193 0 01-.243.423.988.988 0 01-.238.253.738.738 0 01-.281.117c-.102.02-.22.031-.354.031zm5.167-.026l-.111-3.834h.624l.106 3.834h-.619zm1.517 1.216l-.127-.624a5.82 5.82 0 00.624-.116c.183-.046.338-.111.465-.196a.769.769 0 00.291-.338 1.31 1.31 0 00.101-.55c0-.088-.009-.176-.027-.264a.824.824 0 00-.074-.239.471.471 0 00-.122-.169.246.246 0 00-.174-.068.269.269 0 00-.19.079.52.52 0 00-.127.19.568.568 0 00-.048.228c0 .06.012.11.037.153a.269.269 0 00.127.09c.06.021.134.032.222.032a1.182 1.182 0 00.534-.111l.021.497a1.166 1.166 0 01-.296.158 1.031 1.031 0 01-.375.064c-.131 0-.251-.014-.36-.043a.84.84 0 01-.275-.137.645.645 0 01-.185-.233.834.834 0 01-.063-.338c0-.159.024-.314.074-.466.053-.151.125-.289.217-.412.091-.123.199-.22.322-.29a.786.786 0 01.402-.112.76.76 0 01.428.122c.124.08.226.19.307.328.081.134.143.282.185.444.042.162.064.322.064.481 0 .37-.078.686-.233.947-.155.264-.381.47-.677.618-.296.152-.652.243-1.068.275zm3.667-1.814c.166 0 .294-.015.386-.047a.358.358 0 00.19-.127.32.32 0 00.059-.185.77.77 0 00-.064-.275 2.628 2.628 0 00-.169-.35 5.32 5.32 0 00-.217-.364 7.793 7.793 0 00-.227-.344l.529-.349a6.234 6.234 0 01.639 1.143c.071.165.124.312.159.438a.72.72 0 00.143.291c.06.067.127.113.201.138a.765.765 0 00.211.031c.113 0 .194.03.244.09a.311.311 0 01.074.212.31.31 0 01-.096.227c-.063.064-.153.095-.269.095-.141 0-.27-.02-.386-.063a.7.7 0 01-.291-.206 1.022 1.022 0 01-.191-.37l.281-.021a.65.65 0 01-.159.322.891.891 0 01-.37.248 1.671 1.671 0 01-.613.096 2.19 2.19 0 01-.36-.032 2.455 2.455 0 01-.36-.08 1.534 1.534 0 01-.306-.142l.243-.555c.106.053.22.097.344.132.123.032.248.047.375.047zm4.192.64a2.035 2.035 0 01-.942-.232 1.81 1.81 0 01-.402-.286 1.387 1.387 0 01-.28-.386 1.124 1.124 0 01-.106-.486c0-.159.034-.305.101-.44a.802.802 0 01.291-.322.826.826 0 01.46-.127c.173 0 .321.044.444.132a.83.83 0 01.291.334c.07.133.106.274.106.423 0 .222-.059.42-.175.592-.113.169-.27.312-.471.428a2.426 2.426 0 01-.666.264c-.247.06-.5.09-.761.09l.053-.623c.197 0 .37-.01.518-.027a1.8 1.8 0 00.391-.085.924.924 0 00.323-.185.826.826 0 00.19-.248.624.624 0 00.063-.26.511.511 0 00-.031-.18.323.323 0 00-.095-.137.222.222 0 00-.154-.058c-.063 0-.12.02-.169.058a.34.34 0 00-.106.143.508.508 0 00-.037.19c0 .131.034.25.101.355.07.106.162.195.275.27.116.07.241.125.375.163.134.036.268.053.402.053.113 0 .194-.017.243-.053a.197.197 0 00.08-.169.571.571 0 00-.138-.301 2.007 2.007 0 00-.27-.286 7.092 7.092 0 00-.507-.412 20.177 20.177 0 00-.809-.582l.343-.481c.364.257.665.483.905.677.239.194.432.363.576.508.145.144.254.27.328.38a.898.898 0 01.185.55.702.702 0 01-.412.661 1.225 1.225 0 01-.513.095zm3.062-.016c-.31 0-.55-.031-.719-.095a.633.633 0 01-.349-.306 1.463 1.463 0 01-.106-.54l-.111-2.919h.624l.111 2.639c.007.166.023.29.048.375a.27.27 0 00.169.175c.085.032.214.047.386.047.113 0 .194.03.243.09.05.057.075.127.075.212a.303.303 0 01-.101.227c-.063.064-.153.095-.27.095zm.294 0l.053-.623c.117 0 .21-.01.281-.027a.292.292 0 00.179-.127c.05-.07.094-.174.133-.312.038-.14.082-.335.132-.582l.576.122c-.01.056-.025.122-.042.196-.014.07-.027.144-.037.222a1.374 1.374 0 00-.016.2.29.29 0 00.095.228c.064.053.183.08.36.08a.963.963 0 00.243-.027.321.321 0 00.169-.132 1 1 0 00.122-.323c.035-.148.072-.349.111-.603l.587.1a7.984 7.984 0 00-.08.513c-.01.082-.015.149-.015.202 0 .046.012.09.037.132.024.042.072.076.142.1.071.025.175.037.312.037a.757.757 0 00.249-.037.312.312 0 00.169-.127.441.441 0 00.058-.243c0-.134-.031-.305-.095-.513-.06-.208-.129-.423-.206-.645l.624-.195a4.855 4.855 0 01.243.92c.028.151.042.285.042.402 0 .172-.026.326-.079.46a.932.932 0 01-.211.333.909.909 0 01-.334.2c-.13.046-.275.07-.433.07a1.6 1.6 0 01-.471-.059.556.556 0 01-.275-.195.843.843 0 01-.127-.365h.18c-.07.187-.148.324-.233.412a.573.573 0 01-.306.17 2.32 2.32 0 01-.455.036 1.6 1.6 0 01-.333-.037.628.628 0 01-.302-.18c-.084-.095-.144-.237-.179-.428l.238-.02a1.028 1.028 0 01-.259.438.84.84 0 01-.371.185 2.433 2.433 0 01-.476.042zm2.581-3.135a.29.29 0 01-.212-.09.31.31 0 010-.434.29.29 0 01.212-.09c.085 0 .155.03.211.09a.307.307 0 010 .434.276.276 0 01-.211.09zm-.397.655a.293.293 0 01-.216-.09.313.313 0 01-.09-.222.29.29 0 01.09-.211.293.293 0 01.216-.09.29.29 0 01.212.09c.06.06.09.13.09.211 0 .085-.03.16-.09.223a.29.29 0 01-.212.09zm.778 0a.29.29 0 01-.212-.09.313.313 0 01-.09-.222.29.29 0 01.09-.211.29.29 0 01.212-.09c.084 0 .157.03.216.09.06.06.09.13.09.211 0 .085-.03.16-.09.223a.293.293 0 01-.216.09z" fill="#FFE040"/><g clip-path="url(#clip2_10005_7050)"><path d="M303.175 16.416s1.946-1.68 3.49-5.218c1.544-3.537 1.451-6.101 1.451-6.101h-49.132s-1.946 1.68-3.49 5.218c-1.545 3.537-1.452 6.101-1.452 6.101h49.133z" fill="#1C1C1C"/></g><defs><clipPath id="clip0_10005_7050"><path fill="#fff" d="M0 0h42.161v20.166H0z"/></clipPath><clipPath id="clip1_10005_7050"><path fill="#fff" transform="translate(264.23 5.177)" d="M0 0h5.444v11.251H0z"/></clipPath><clipPath id="clip2_10005_7050"><path fill="#fff" transform="rotate(-180 154.059 8.214)" d="M0 0h5.444v11.251H0z"/></clipPath></defs></svg>