<svg width="146" height="100" viewBox="0 0 146 100" fill="none" xmlns="http://www.w3.org/2000/svg"><path d="M122.89 72.158c-9.687 22.308-9.095 38.481-9.095 38.481s12.236-10.599 21.942-32.899c9.692-22.304 9.095-38.48 9.095-38.48s-12.236 10.598-21.942 32.898z" fill="#FFE040"/><path d="M122.89 72.158c-9.687 22.308-9.095 38.481-9.095 38.481s12.236-10.599 21.942-32.899c9.692-22.304 9.095-38.48 9.095-38.48s-12.236 10.598-21.942 32.898z" fill="url(#paint0_radial_10005_6988)"/><path d="M-39-31.609V119.11H66.018l-.057.171c-1.394 11.133-1.157 17.563-1.157 17.563s12.678-10.988 27.373-33.748c-2.335 12.908-2.048 20.703-2.048 20.703s19.172-16.606 34.381-51.544c15.182-34.951 14.253-60.299 14.253-60.299s-5.897 5.11-13.745 15.62c6.627-26.272 6.012-43.038 6.012-43.038s-4.906 4.252-12.152 12.944c4.981-25.024 4.42-40.361 4.42-40.361s-4.411 3.822-11.285 11.603l.055-.333H-39z" fill="#FFE040"/><path d="M-39-31.609V119.11H66.018l-.057.171c-1.394 11.133-1.157 17.563-1.157 17.563s12.678-10.988 27.373-33.748c-2.335 12.908-2.048 20.703-2.048 20.703s19.172-16.606 34.381-51.544c15.182-34.951 14.253-60.299 14.253-60.299s-5.897 5.11-13.745 15.62c6.627-26.272 6.012-43.038 6.012-43.038s-4.906 4.252-12.152 12.944c4.981-25.024 4.42-40.361 4.42-40.361s-4.411 3.822-11.285 11.603l.055-.333H-39z" fill="url(#paint1_radial_10005_6988)"/><defs><radialGradient id="paint0_radial_10005_6988" cx="0" cy="0" r="1" gradientTransform="matrix(-227.92 42.5538 -134.888 -180.554 291.579 24.098)" gradientUnits="userSpaceOnUse"><stop offset=".244" stop-color="#F2F2F2"/><stop offset=".62" stop-color="#FFEB84"/><stop offset="1" stop-color="#FFE040"/></radialGradient><radialGradient id="paint1_radial_10005_6988" cx="0" cy="0" r="1" gradientTransform="matrix(-227.92 42.5538 -134.888 -180.554 291.579 24.098)" gradientUnits="userSpaceOnUse"><stop offset=".244" stop-color="#F2F2F2"/><stop offset=".62" stop-color="#FFEB84"/><stop offset="1" stop-color="#FFE040"/></radialGradient></defs></svg>