<svg width="76" height="38" viewBox="0 0 76 38" fill="none" xmlns="http://www.w3.org/2000/svg"><g clip-path="url(#clip0_10005_6986)"><path d="M9.216 9.72s-3.629 3.134-6.507 9.728C-.171 26.044.003 30.825.003 30.825h91.604s3.628-3.135 6.506-9.729c2.88-6.596 2.707-11.376 2.707-11.376H9.216z" fill="#1C1C1C"/></g><path fill="#1C1C1C" d="M10.15 9.7h55v20.975h-55z"/><path d="M17.573 20.865h1.014v3.432c0 .182.034.304.104.364.078.052.255.078.533.078H21.057c.173 0 .303-.039.39-.117.086-.086.147-.26.182-.52.034-.268.056-.663.065-1.183.078.052.169.104.273.156.112.052.225.1.338.143l.312.091c-.035.624-.1 1.105-.195 1.443-.096.347-.243.585-.442.715-.2.13-.481.195-.845.195H19.12c-.408 0-.724-.039-.95-.117a.795.795 0 01-.467-.416c-.087-.199-.13-.476-.13-.832v-3.432zm-3.107.104h1.027a8.81 8.81 0 01-.338 1.638 4.21 4.21 0 01-.702 1.34c-.312.39-.733.732-1.261 1.026-.529.304-1.196.555-2.002.754a1.588 1.588 0 00-.156-.286 6.048 6.048 0 00-.195-.312 1.039 1.039 0 00-.221-.247c.745-.164 1.352-.368 1.82-.61.476-.252.85-.538 1.118-.859.277-.329.48-.693.61-1.092.13-.407.23-.858.3-1.352zm1.677-3.64h.949v3.328h-.95V17.33zm-1.742-3.6l1.079.207c-.295.503-.642 1.01-1.04 1.521-.39.512-.84 1.01-1.352 1.495-.512.477-1.088.923-1.73 1.34a1.806 1.806 0 00-.181-.26 2.56 2.56 0 00-.26-.274 1.375 1.375 0 00-.234-.195c.59-.372 1.122-.775 1.599-1.209.476-.433.892-.875 1.248-1.326.364-.459.654-.892.87-1.3zm-1.391 4.146v2.366h7.54v-2.366h-7.54zm-.962-.884h9.516v4.134h-9.516v-4.134zm5.902-2.236h.22l.157-.039.676.43a9.853 9.853 0 01-.56.896c-.216.312-.441.611-.675.897a8.6 8.6 0 01-.69.754 6.142 6.142 0 00-.35-.234 2.614 2.614 0 00-.377-.22 9.973 9.973 0 001.183-1.534c.173-.278.312-.53.416-.755v-.195zm-3.77 0h4.056v.82H13.66l.52-.82zm11.973 1.482h8.164v-.923h-9.048V14.6h9.945v2.34h-9.061v-.702zm-.208 1.677h9.425v.702h-9.633l.208-.702zm9.139 0h.91l-.013.117c0 .078-.005.148-.013.208a9.07 9.07 0 01-.143.988c-.052.226-.13.39-.234.494a.806.806 0 01-.286.17 1.4 1.4 0 01-.351.064 6.697 6.697 0 01-.481.013l-.663-.026a2.059 2.059 0 00-.065-.338 1.19 1.19 0 00-.117-.338c.208.026.394.044.559.052h.35c.07 0 .126-.004.17-.013a.233.233 0 00.13-.065c.052-.06.095-.182.13-.364.043-.182.082-.463.117-.845v-.117zm-6.591-4.147h.884v2.665c0 .468-.048.919-.143 1.352-.096.425-.29.828-.585 1.21-.286.372-.715.714-1.287 1.026-.564.304-1.313.572-2.25.806a1.208 1.208 0 00-.13-.26 1.868 1.868 0 00-.181-.273 2.077 2.077 0 00-.17-.234c.859-.199 1.543-.429 2.055-.689.52-.26.905-.546 1.157-.858.26-.32.433-.654.52-1 .086-.347.13-.711.13-1.093v-2.652zm2.964 0h.923v6.214h-.923v-6.214zm-5.174 6.54h8.255v3.522h-.988v-2.704h-6.318v2.795h-.95v-3.614zm3.73 1.351h.989a5.19 5.19 0 01-.572 1.586c-.252.451-.607.837-1.066 1.157-.46.321-1.058.59-1.794.806-.728.217-1.638.39-2.73.52a1.66 1.66 0 00-.091-.273 3.323 3.323 0 00-.156-.299.944.944 0 00-.17-.247c1.023-.104 1.873-.238 2.549-.403.676-.173 1.217-.39 1.625-.65.407-.26.72-.567.936-.923.225-.364.385-.788.48-1.274zm.625 2.275l.507-.663a35.8 35.8 0 012.665.806c.46.148.888.3 1.287.455.407.148.758.29 1.053.43l-.546.766c-.278-.138-.616-.29-1.014-.455-.39-.156-.81-.316-1.261-.48-.45-.157-.91-.308-1.378-.456-.46-.147-.897-.281-1.313-.403zm-4.85-7.683h.885c-.06.399-.126.815-.195 1.248-.06.434-.126.806-.195 1.118h-.897c.07-.329.143-.71.22-1.144.079-.433.14-.84.183-1.222zm17.798-1.846h5.72v6.916h-.962v-6.045h-3.835v6.045h-.923v-6.916zm2.899 6.721h.897v3.16c0 .181.03.303.09.363.07.061.191.091.365.091h.962c.147 0 .255-.052.325-.156.078-.112.13-.329.156-.65.034-.32.06-.788.078-1.404.121.096.251.178.39.247.147.061.281.104.403.13-.026.676-.078 1.205-.156 1.586-.07.373-.195.629-.377.767-.174.148-.45.221-.832.221H47.68c-.425 0-.733-.078-.923-.234-.182-.147-.273-.437-.273-.87v-3.25zm-.598-4.758h.923v2.51c0 .554-.052 1.139-.156 1.754a6.864 6.864 0 01-.572 1.846c-.278.607-.68 1.192-1.21 1.755-.52.555-1.208 1.049-2.066 1.482a1.079 1.079 0 00-.156-.234 5.751 5.751 0 00-.234-.273 1.363 1.363 0 00-.208-.195c.814-.416 1.464-.875 1.95-1.378.494-.511.862-1.035 1.105-1.573a5.912 5.912 0 00.494-1.625c.086-.546.13-1.07.13-1.573v-2.496zm-7.631-1.599h4.017v.936h-4.017v-.936zm3.692 0h.156l.169-.039.624.195c-.174 1.586-.455 3.034-.845 4.342-.39 1.309-.863 2.462-1.417 3.458-.555.988-1.183 1.812-1.885 2.47a2.266 2.266 0 00-.208-.26 3.684 3.684 0 00-.26-.26 1.961 1.961 0 00-.26-.22 7.596 7.596 0 001.352-1.6c.424-.641.806-1.369 1.144-2.184.346-.814.641-1.698.884-2.652.242-.953.424-1.954.546-3.003v-.247zM38.32 17.42l.74-.494c.382.503.763 1.036 1.145 1.6.381.554.74 1.117 1.079 1.69.346.563.654 1.109.923 1.637.268.52.48.997.637 1.43l-.832.572a11.61 11.61 0 00-.624-1.43 29.093 29.093 0 00-.884-1.677c-.33-.58-.685-1.152-1.066-1.716a32.406 32.406 0 00-1.118-1.612zm16.354 2.132h7.579v6.201h-.975v-5.42H55.61v5.42h-.936v-6.2zm-2.613-1.716h11.466v.806H52.062v-.806zm.949-1.755h9.763v.78H53.01v-.78zm2.288 5.135h6.383v.69h-6.383v-.69zm0 1.6h6.383v.675h-6.383v-.676zm-.091 1.637h6.474v.78h-6.474v-.78zm6.825-10.582l.624.702a24.7 24.7 0 01-2.067.312c-.772.087-1.586.156-2.444.208-.858.052-1.725.096-2.6.13-.876.026-1.716.04-2.522.04a1.939 1.939 0 00-.078-.378 2.436 2.436 0 00-.117-.377c.788-.008 1.612-.026 2.47-.052a78.674 78.674 0 002.548-.117 51.404 51.404 0 002.327-.195c.72-.078 1.339-.169 1.859-.273zm-5.33.884l1.014.221a19.528 19.528 0 01-1.144 3.042c-.46.98-1.036 1.881-1.73 2.704a9.821 9.821 0 01-2.495 2.106 2.496 2.496 0 00-.182-.247c-.07-.104-.143-.199-.221-.286a6.203 6.203 0 00-.221-.234 8.68 8.68 0 002.366-1.95c.658-.771 1.2-1.616 1.625-2.535.424-.918.754-1.859.988-2.82z" fill="#F865C9"/><path d="M17.573 20.865h1.014v3.432c0 .182.034.304.104.364.078.052.255.078.533.078H21.057c.173 0 .303-.039.39-.117.086-.086.147-.26.182-.52.034-.268.056-.663.065-1.183.078.052.169.104.273.156.112.052.225.1.338.143l.312.091c-.035.624-.1 1.105-.195 1.443-.096.347-.243.585-.442.715-.2.13-.481.195-.845.195H19.12c-.408 0-.724-.039-.95-.117a.795.795 0 01-.467-.416c-.087-.199-.13-.476-.13-.832v-3.432zm-3.107.104h1.027a8.81 8.81 0 01-.338 1.638 4.21 4.21 0 01-.702 1.34c-.312.39-.733.732-1.261 1.026-.529.304-1.196.555-2.002.754a1.588 1.588 0 00-.156-.286 6.048 6.048 0 00-.195-.312 1.039 1.039 0 00-.221-.247c.745-.164 1.352-.368 1.82-.61.476-.252.85-.538 1.118-.859.277-.329.48-.693.61-1.092.13-.407.23-.858.3-1.352zm1.677-3.64h.949v3.328h-.95V17.33zm-1.742-3.6l1.079.207c-.295.503-.642 1.01-1.04 1.521-.39.512-.84 1.01-1.352 1.495-.512.477-1.088.923-1.73 1.34a1.806 1.806 0 00-.181-.26 2.56 2.56 0 00-.26-.274 1.375 1.375 0 00-.234-.195c.59-.372 1.122-.775 1.599-1.209.476-.433.892-.875 1.248-1.326.364-.459.654-.892.87-1.3zm-1.391 4.146v2.366h7.54v-2.366h-7.54zm-.962-.884h9.516v4.134h-9.516v-4.134zm5.902-2.236h.22l.157-.039.676.43a9.853 9.853 0 01-.56.896c-.216.312-.441.611-.675.897a8.6 8.6 0 01-.69.754 6.142 6.142 0 00-.35-.234 2.614 2.614 0 00-.377-.22 9.973 9.973 0 001.183-1.534c.173-.278.312-.53.416-.755v-.195zm-3.77 0h4.056v.82H13.66l.52-.82zm11.973 1.482h8.164v-.923h-9.048V14.6h9.945v2.34h-9.061v-.702zm-.208 1.677h9.425v.702h-9.633l.208-.702zm9.139 0h.91l-.013.117c0 .078-.005.148-.013.208a9.07 9.07 0 01-.143.988c-.052.226-.13.39-.234.494a.806.806 0 01-.286.17 1.4 1.4 0 01-.351.064 6.697 6.697 0 01-.481.013l-.663-.026a2.059 2.059 0 00-.065-.338 1.19 1.19 0 00-.117-.338c.208.026.394.044.559.052h.35c.07 0 .126-.004.17-.013a.233.233 0 00.13-.065c.052-.06.095-.182.13-.364.043-.182.082-.463.117-.845v-.117zm-6.591-4.147h.884v2.665c0 .468-.048.919-.143 1.352-.096.425-.29.828-.585 1.21-.286.372-.715.714-1.287 1.026-.564.304-1.313.572-2.25.806a1.208 1.208 0 00-.13-.26 1.868 1.868 0 00-.181-.273 2.077 2.077 0 00-.17-.234c.859-.199 1.543-.429 2.055-.689.52-.26.905-.546 1.157-.858.26-.32.433-.654.52-1 .086-.347.13-.711.13-1.093v-2.652zm2.964 0h.923v6.214h-.923v-6.214zm-5.174 6.54h8.255v3.522h-.988v-2.704h-6.318v2.795h-.95v-3.614zm3.73 1.351h.989a5.19 5.19 0 01-.572 1.586c-.252.451-.607.837-1.066 1.157-.46.321-1.058.59-1.794.806-.728.217-1.638.39-2.73.52a1.66 1.66 0 00-.091-.273 3.323 3.323 0 00-.156-.299.944.944 0 00-.17-.247c1.023-.104 1.873-.238 2.549-.403.676-.173 1.217-.39 1.625-.65.407-.26.72-.567.936-.923.225-.364.385-.788.48-1.274zm.625 2.275l.507-.663a35.8 35.8 0 012.665.806c.46.148.888.3 1.287.455.407.148.758.29 1.053.43l-.546.766c-.278-.138-.616-.29-1.014-.455-.39-.156-.81-.316-1.261-.48-.45-.157-.91-.308-1.378-.456-.46-.147-.897-.281-1.313-.403zm-4.85-7.683h.885c-.06.399-.126.815-.195 1.248-.06.434-.126.806-.195 1.118h-.897c.07-.329.143-.71.22-1.144.079-.433.14-.84.183-1.222zm17.798-1.846h5.72v6.916h-.962v-6.045h-3.835v6.045h-.923v-6.916zm2.899 6.721h.897v3.16c0 .181.03.303.09.363.07.061.191.091.365.091h.962c.147 0 .255-.052.325-.156.078-.112.13-.329.156-.65.034-.32.06-.788.078-1.404.121.096.251.178.39.247.147.061.281.104.403.13-.026.676-.078 1.205-.156 1.586-.07.373-.195.629-.377.767-.174.148-.45.221-.832.221H47.68c-.425 0-.733-.078-.923-.234-.182-.147-.273-.437-.273-.87v-3.25zm-.598-4.758h.923v2.51c0 .554-.052 1.139-.156 1.754a6.864 6.864 0 01-.572 1.846c-.278.607-.68 1.192-1.21 1.755-.52.555-1.208 1.049-2.066 1.482a1.079 1.079 0 00-.156-.234 5.751 5.751 0 00-.234-.273 1.363 1.363 0 00-.208-.195c.814-.416 1.464-.875 1.95-1.378.494-.511.862-1.035 1.105-1.573a5.912 5.912 0 00.494-1.625c.086-.546.13-1.07.13-1.573v-2.496zm-7.631-1.599h4.017v.936h-4.017v-.936zm3.692 0h.156l.169-.039.624.195c-.174 1.586-.455 3.034-.845 4.342-.39 1.309-.863 2.462-1.417 3.458-.555.988-1.183 1.812-1.885 2.47a2.266 2.266 0 00-.208-.26 3.684 3.684 0 00-.26-.26 1.961 1.961 0 00-.26-.22 7.596 7.596 0 001.352-1.6c.424-.641.806-1.369 1.144-2.184.346-.814.641-1.698.884-2.652.242-.953.424-1.954.546-3.003v-.247zM38.32 17.42l.74-.494c.382.503.763 1.036 1.145 1.6.381.554.74 1.117 1.079 1.69.346.563.654 1.109.923 1.637.268.52.48.997.637 1.43l-.832.572a11.61 11.61 0 00-.624-1.43 29.093 29.093 0 00-.884-1.677c-.33-.58-.685-1.152-1.066-1.716a32.406 32.406 0 00-1.118-1.612zm16.354 2.132h7.579v6.201h-.975v-5.42H55.61v5.42h-.936v-6.2zm-2.613-1.716h11.466v.806H52.062v-.806zm.949-1.755h9.763v.78H53.01v-.78zm2.288 5.135h6.383v.69h-6.383v-.69zm0 1.6h6.383v.675h-6.383v-.676zm-.091 1.637h6.474v.78h-6.474v-.78zm6.825-10.582l.624.702a24.7 24.7 0 01-2.067.312c-.772.087-1.586.156-2.444.208-.858.052-1.725.096-2.6.13-.876.026-1.716.04-2.522.04a1.939 1.939 0 00-.078-.378 2.436 2.436 0 00-.117-.377c.788-.008 1.612-.026 2.47-.052a78.674 78.674 0 002.548-.117 51.404 51.404 0 002.327-.195c.72-.078 1.339-.169 1.859-.273zm-5.33.884l1.014.221a19.528 19.528 0 01-1.144 3.042c-.46.98-1.036 1.881-1.73 2.704a9.821 9.821 0 01-2.495 2.106 2.496 2.496 0 00-.182-.247c-.07-.104-.143-.199-.221-.286a6.203 6.203 0 00-.221-.234 8.68 8.68 0 002.366-1.95c.658-.771 1.2-1.616 1.625-2.535.424-.918.754-1.859.988-2.82z" fill="#FFE040"/><g clip-path="url(#clip1_10005_6986)"><path d="M66.085 30.655s3.628-3.134 6.506-9.729c2.88-6.595 2.706-11.376 2.706-11.376h-91.604s-3.628 3.134-6.506 9.729c-2.88 6.595-2.706 11.376-2.706 11.376h91.604z" fill="#1C1C1C"/></g><defs><clipPath id="clip0_10005_6986"><path fill="#fff" transform="translate(0 9.7)" d="M0 0h10.15v20.976H0z"/></clipPath><clipPath id="clip1_10005_6986"><path fill="#fff" transform="rotate(-180 37.65 15.338)" d="M0 0h10.15v20.976H0z"/></clipPath></defs></svg>