<svg width="88" height="42" viewBox="0 0 88 42" fill="none" xmlns="http://www.w3.org/2000/svg"><g clip-path="url(#clip0_10005_6989)"><path d="M51.718 14.12h6.778c2.26 0 3.488.865 3.488 3.257 0 2.126-1.494 3.287-3.488 3.287h-6.778V14.12zm-4.151 20.331h10.895c6.145 0 8.738-2.889 8.738-6.611 0-3.222-1.562-5.482-4.451-6.114v-.065c2.16-.93 3.389-2.658 3.389-5.05 0-3.953-2.79-5.88-7.043-5.88H47.567v23.72zm4.151-10.796h7.343c2.525 0 3.987 1.327 3.987 3.654s-1.462 3.753-3.987 3.753h-7.343v-7.407zm-25.145 2.889c.099 5.88 4.484 8.472 9.898 8.472 4.716 0 9.435-2.127 9.435-7.442 0-2.457-1.494-5.114-4.617-6.046-1.229-.367-6.479-1.728-6.843-1.827-1.694-.466-2.824-1.395-2.824-3.056 0-2.392 2.426-3.09 4.352-3.09 2.858 0 4.917 1.13 5.114 4.186h4.152c0-4.95-4.152-7.574-9.102-7.574-4.284 0-8.67 2.225-8.67 6.975 0 2.457 1.194 4.917 5.25 6.013 3.256.898 5.413 1.33 7.074 1.96.963.364 1.96 1.095 1.96 2.923 0 1.827-1.361 3.586-5.016 3.586-3.32 0-6.012-1.429-6.012-5.083h-4.151v.003zm41.714 0c.099 5.88 4.485 8.472 9.898 8.472 4.717 0 9.436-2.127 9.436-7.442 0-2.457-1.494-5.114-4.618-6.046-1.228-.367-6.478-1.728-6.843-1.827-1.694-.466-2.824-1.395-2.824-3.056 0-2.392 2.426-3.09 4.352-3.09 2.858 0 4.917 1.13 5.115 4.186h4.154c0-4.95-4.154-7.574-9.102-7.574-4.287 0-8.67 2.225-8.67 6.975 0 2.457 1.195 4.917 5.25 6.013 3.256.898 5.414 1.33 7.074 1.96.963.364 1.96 1.095 1.96 2.923 0 1.827-1.361 3.586-5.015 3.586-3.322 0-6.013-1.429-6.013-5.083H68.29l-.003.003zM27.725.102s-6.408 5.555-11.906 17.215c3.312-8.573 3.095-14.589 3.095-14.589s-4.649 4.033-8.693 12.488c2.35-6.213 2.195-10.548 2.195-10.548s-3.372 2.926-6.343 9.057C7.736 9.224 7.626 6.1 7.626 6.1s-2.912 2.525-5.222 7.837C.088 19.252.227 23.104.227 23.104s2.358-2.047 4.513-6.329c-2.454 6.352-2.293 10.808-2.293 10.808s3.278-2.847 6.221-8.805C5.237 27.506 5.46 33.66 5.46 33.66s4.547-3.942 8.557-12.208c-4.779 11.977-4.47 20.452-4.47 20.452s7.158-6.208 12.837-19.269C28.067 9.571 27.724.102 27.724.102z" fill="#1C1C1C"/></g><defs><clipPath id="clip0_10005_6989"><path fill="#fff" transform="translate(.227 .102)" d="M0 0h87.394v41.802H0z"/></clipPath></defs></svg>