<svg width="265" height="40" viewBox="0 0 265 40" fill="none" xmlns="http://www.w3.org/2000/svg"><g clip-path="url(#clip0_10005_6948)"><path d="M48.193 13.065h6.317c2.105 0 3.25.805 3.25 3.034 0 1.982-1.392 3.064-3.25 3.064h-6.317v-6.098zm-3.869 18.947h10.154c5.727 0 8.143-2.692 8.143-6.161 0-3.003-1.455-5.109-4.148-5.698v-.06c2.014-.867 3.159-2.477 3.159-4.707 0-3.684-2.6-5.48-6.564-5.48H44.324v22.106zm3.869-10.062h6.843c2.353 0 3.716 1.237 3.716 3.406s-1.363 3.498-3.716 3.498h-6.843V21.95zm-23.435 2.693c.093 5.48 4.18 7.895 9.225 7.895 4.396 0 8.794-1.981 8.794-6.935 0-2.29-1.393-4.766-4.304-5.635-1.145-.342-6.037-1.61-6.377-1.702-1.579-.435-2.632-1.3-2.632-2.848 0-2.23 2.261-2.88 4.056-2.88 2.663 0 4.582 1.053 4.766 3.901h3.87c0-4.614-3.87-7.059-8.483-7.059-3.993 0-8.08 2.074-8.08 6.501 0 2.29 1.113 4.582 4.892 5.603 3.035.837 5.046 1.24 6.593 1.827.898.34 1.827 1.021 1.827 2.724 0 1.703-1.269 3.343-4.674 3.343-3.096 0-5.604-1.332-5.604-4.738h-3.869v.003zm38.877 0c.092 5.48 4.18 7.895 9.224 7.895 4.396 0 8.794-1.981 8.794-6.935 0-2.29-1.393-4.766-4.303-5.635-1.145-.342-6.038-1.61-6.378-1.702-1.579-.435-2.631-1.3-2.631-2.848 0-2.23 2.26-2.88 4.055-2.88 2.664 0 4.582 1.053 4.767 3.901h3.871c0-4.614-3.871-7.059-8.483-7.059-3.995 0-8.08 2.074-8.08 6.501 0 2.29 1.114 4.582 4.893 5.603 3.035.837 5.046 1.24 6.593 1.827.898.34 1.827 1.021 1.827 2.724 0 1.703-1.269 3.343-4.675 3.343-3.095 0-5.603-1.332-5.603-4.738h-3.869l-.002.003zM25.832 0S19.86 5.177 14.736 16.044c3.087-7.99 2.885-13.596 2.885-13.596s-4.333 3.758-8.102 11.638c2.19-5.79 2.046-9.83 2.046-9.83s-3.143 2.727-5.912 8.44C7.203 8.501 7.101 5.59 7.101 5.59s-2.714 2.353-4.867 7.304C.076 17.847.205 21.437.205 21.437s2.198-1.908 4.206-5.898C2.124 21.459 2.274 25.61 2.274 25.61s3.055-2.653 5.798-8.206c-3.198 8.135-2.99 13.87-2.99 13.87s4.237-3.674 7.975-11.378C8.604 31.06 8.89 38.957 8.89 38.957S15.562 33.174 20.855 21c5.296-12.175 4.977-21 4.977-21z" fill="#1C1C1C"/></g><g clip-path="url(#clip1_10005_6948)"><path d="M194.515 10.34s-3.759 3.247-6.741 10.08c-2.984 6.833-2.804 11.787-2.804 11.787h94.915s3.759-3.247 6.742-10.08c2.983-6.834 2.804-11.788 2.804-11.788h-94.916z" fill="#1C1C1C"/></g><path fill="#1C1C1C" d="M195.483 10.318h59v21.734h-59z"/><path d="M203.477 22.07h1.092v3.695c0 .196.038.327.112.392.084.056.276.084.574.084H207.229c.187 0 .327-.042.42-.126.094-.093.159-.28.196-.56.038-.289.061-.714.07-1.274.084.056.182.112.294.168.122.056.243.108.364.154l.336.098c-.037.672-.107 1.19-.21 1.554-.102.374-.261.63-.476.77-.214.14-.518.21-.91.21H205.143c-.438 0-.779-.042-1.022-.126a.858.858 0 01-.504-.448c-.093-.214-.14-.513-.14-.896V22.07zm-3.346.111h1.106a9.437 9.437 0 01-.364 1.764 4.535 4.535 0 01-.756 1.442c-.336.42-.788.789-1.358 1.106-.569.327-1.288.598-2.156.812a1.673 1.673 0 00-.168-.308 6.172 6.172 0 00-.21-.336 1.104 1.104 0 00-.238-.266c.803-.177 1.456-.396 1.96-.658.514-.27.915-.578 1.204-.924.299-.354.518-.746.658-1.176.14-.438.248-.924.322-1.456zm1.806-3.92h1.022v3.584h-1.022v-3.584zm-1.876-3.878l1.162.224c-.317.542-.69 1.088-1.12 1.638a13.57 13.57 0 01-1.456 1.61 13.42 13.42 0 01-1.862 1.442 1.894 1.894 0 00-.196-.28 2.718 2.718 0 00-.28-.294 1.458 1.458 0 00-.252-.21 12.388 12.388 0 001.722-1.302c.514-.466.962-.942 1.344-1.428a9.37 9.37 0 00.938-1.4zm-1.498 4.466v2.548h8.12V18.85h-8.12zm-1.036-.952h10.248v4.452h-10.248v-4.452zm6.356-2.408h.238l.168-.042.728.462c-.168.308-.368.63-.602.966-.233.336-.476.658-.728.966a9.225 9.225 0 01-.742.812 6.13 6.13 0 00-.378-.252 2.761 2.761 0 00-.406-.238 10.598 10.598 0 001.274-1.652c.187-.298.336-.569.448-.812v-.21zm-4.06 0h4.368v.882h-4.928l.56-.882zm12.894 1.596h8.792v-.994h-9.744v-.77h10.71v2.52h-9.758v-.756zm-.224 1.806h10.15v.756h-10.374l.224-.756zm9.842 0h.98l-.014.126c0 .084-.004.159-.014.224a9.616 9.616 0 01-.154 1.064c-.056.243-.14.42-.252.532a.866.866 0 01-.308.182c-.112.038-.238.061-.378.07-.121.01-.294.014-.518.014l-.714-.028a2.125 2.125 0 00-.07-.364 1.282 1.282 0 00-.126-.364c.224.028.425.047.602.056h.378a.955.955 0 00.182-.014.25.25 0 00.14-.07c.056-.065.103-.196.14-.392.047-.196.089-.499.126-.91v-.126zm-7.098-4.466h.952v2.87c0 .504-.051.99-.154 1.456a3.286 3.286 0 01-.63 1.302c-.308.402-.77.77-1.386 1.106-.606.327-1.414.616-2.422.868a1.27 1.27 0 00-.14-.28 1.983 1.983 0 00-.196-.294 2.192 2.192 0 00-.182-.252c.924-.214 1.662-.462 2.212-.742.56-.28.976-.588 1.246-.924a2.78 2.78 0 00.56-1.078 4.8 4.8 0 00.14-1.176v-2.856zm3.192 0h.994v6.692h-.994v-6.692zm-5.572 7.042h8.89v3.794h-1.064V22.35h-6.804v3.01h-1.022v-3.892zm4.018 1.456h1.064a5.575 5.575 0 01-.616 1.708c-.27.486-.653.901-1.148 1.246-.494.346-1.138.635-1.932.868-.784.234-1.764.42-2.94.56a1.707 1.707 0 00-.098-.294 3.272 3.272 0 00-.168-.322 1 1 0 00-.182-.266c1.102-.112 2.016-.256 2.744-.434.728-.186 1.312-.42 1.75-.7.439-.28.775-.611 1.008-.994.243-.392.416-.849.518-1.372zm.672 2.45l.546-.714a38.134 38.134 0 012.87.868c.495.159.957.322 1.386.49.439.159.817.313 1.134.462l-.588.826c-.298-.149-.662-.312-1.092-.49-.42-.168-.872-.34-1.358-.518a54.7 54.7 0 00-1.484-.49 54.525 54.525 0 00-1.414-.434zm-5.222-8.274h.952c-.065.43-.135.878-.21 1.344-.065.467-.135.868-.21 1.204h-.966c.075-.354.154-.765.238-1.232.084-.466.15-.905.196-1.316zm19.166-1.988h6.16v7.448h-1.036v-6.51h-4.13v6.51h-.994v-7.448zm3.122 7.238h.966v3.402c0 .196.033.327.098.392.075.066.206.098.392.098h1.036c.159 0 .276-.056.35-.168.084-.121.14-.354.168-.7.038-.345.066-.849.084-1.512.131.103.271.192.42.266a2.6 2.6 0 00.434.14c-.028.728-.084 1.298-.168 1.708-.074.402-.21.677-.406.826-.186.159-.485.238-.896.238h-1.19c-.457 0-.788-.084-.994-.252-.196-.158-.294-.471-.294-.938v-3.5zm-.644-5.124h.994v2.702c0 .598-.056 1.228-.168 1.89a7.372 7.372 0 01-.616 1.988c-.298.654-.732 1.284-1.302 1.89-.56.598-1.302 1.13-2.226 1.596a1.155 1.155 0 00-.168-.252 5.427 5.427 0 00-.252-.294 1.426 1.426 0 00-.224-.21c.878-.448 1.578-.942 2.1-1.484.532-.55.929-1.115 1.19-1.694a6.359 6.359 0 00.532-1.75c.094-.588.14-1.152.14-1.694v-2.688zm-8.218-1.722h4.326v1.008h-4.326v-1.008zm3.976 0h.168l.182-.042.672.21c-.186 1.708-.49 3.267-.91 4.676-.42 1.41-.928 2.651-1.526 3.724-.597 1.064-1.274 1.951-2.03 2.66a2.362 2.362 0 00-.224-.28 3.87 3.87 0 00-.28-.28 2.042 2.042 0 00-.28-.238c.523-.457 1.008-1.031 1.456-1.722a13.85 13.85 0 001.232-2.352c.374-.877.691-1.829.952-2.856.262-1.026.458-2.104.588-3.234v-.266zm-3.906 2.856l.798-.532c.411.542.822 1.116 1.232 1.722.411.598.798 1.204 1.162 1.82.374.607.705 1.195.994 1.764.29.56.518 1.074.686 1.54l-.896.616a12.3 12.3 0 00-.672-1.54c-.28-.578-.597-1.18-.952-1.806a27.054 27.054 0 00-1.148-1.848 34.278 34.278 0 00-1.204-1.736zm17.612 2.296h8.162v6.678h-1.05v-5.838h-6.104v5.838h-1.008v-6.678zm-2.814-1.848h12.348v.868h-12.348v-.868zm1.022-1.89h10.514v.84h-10.514v-.84zm2.464 5.53h6.874v.742h-6.874v-.742zm0 1.722h6.874v.728h-6.874v-.728zm-.098 1.764h6.972v.84h-6.972v-.84zm7.35-11.396l.672.756c-.653.131-1.395.243-2.226.336-.83.094-1.708.168-2.632.224-.924.056-1.857.103-2.8.14-.942.028-1.848.042-2.716.042a2.05 2.05 0 00-.084-.406 2.566 2.566 0 00-.126-.406c.85-.009 1.736-.028 2.66-.056.934-.028 1.848-.07 2.744-.126a55.281 55.281 0 002.506-.21 23.028 23.028 0 002.002-.294zm-5.74.952l1.092.238a21.004 21.004 0 01-1.232 3.276 13.174 13.174 0 01-1.862 2.912 10.56 10.56 0 01-2.688 2.268 2.567 2.567 0 00-.196-.266 2.613 2.613 0 00-.238-.308 6.281 6.281 0 00-.238-.252 9.349 9.349 0 002.548-2.1c.71-.83 1.293-1.74 1.75-2.73a16.5 16.5 0 001.064-3.038z" fill="#F865C9"/><path d="M203.477 22.07h1.092v3.695c0 .196.038.327.112.392.084.056.276.084.574.084H207.229c.187 0 .327-.042.42-.126.094-.093.159-.28.196-.56.038-.289.061-.714.07-1.274.084.056.182.112.294.168.122.056.243.108.364.154l.336.098c-.037.672-.107 1.19-.21 1.554-.102.374-.261.63-.476.77-.214.14-.518.21-.91.21H205.143c-.438 0-.779-.042-1.022-.126a.858.858 0 01-.504-.448c-.093-.214-.14-.513-.14-.896V22.07zm-3.346.111h1.106a9.437 9.437 0 01-.364 1.764 4.535 4.535 0 01-.756 1.442c-.336.42-.788.789-1.358 1.106-.569.327-1.288.598-2.156.812a1.673 1.673 0 00-.168-.308 6.172 6.172 0 00-.21-.336 1.104 1.104 0 00-.238-.266c.803-.177 1.456-.396 1.96-.658.514-.27.915-.578 1.204-.924.299-.354.518-.746.658-1.176.14-.438.248-.924.322-1.456zm1.806-3.92h1.022v3.584h-1.022v-3.584zm-1.876-3.878l1.162.224c-.317.542-.69 1.088-1.12 1.638a13.57 13.57 0 01-1.456 1.61 13.42 13.42 0 01-1.862 1.442 1.894 1.894 0 00-.196-.28 2.718 2.718 0 00-.28-.294 1.458 1.458 0 00-.252-.21 12.388 12.388 0 001.722-1.302c.514-.466.962-.942 1.344-1.428a9.37 9.37 0 00.938-1.4zm-1.498 4.466v2.548h8.12V18.85h-8.12zm-1.036-.952h10.248v4.452h-10.248v-4.452zm6.356-2.408h.238l.168-.042.728.462c-.168.308-.368.63-.602.966-.233.336-.476.658-.728.966a9.225 9.225 0 01-.742.812 6.13 6.13 0 00-.378-.252 2.761 2.761 0 00-.406-.238 10.598 10.598 0 001.274-1.652c.187-.298.336-.569.448-.812v-.21zm-4.06 0h4.368v.882h-4.928l.56-.882zm12.894 1.596h8.792v-.994h-9.744v-.77h10.71v2.52h-9.758v-.756zm-.224 1.806h10.15v.756h-10.374l.224-.756zm9.842 0h.98l-.014.126c0 .084-.004.159-.014.224a9.616 9.616 0 01-.154 1.064c-.056.243-.14.42-.252.532a.866.866 0 01-.308.182c-.112.038-.238.061-.378.07-.121.01-.294.014-.518.014l-.714-.028a2.125 2.125 0 00-.07-.364 1.282 1.282 0 00-.126-.364c.224.028.425.047.602.056h.378a.955.955 0 00.182-.014.25.25 0 00.14-.07c.056-.065.103-.196.14-.392.047-.196.089-.499.126-.91v-.126zm-7.098-4.466h.952v2.87c0 .504-.051.99-.154 1.456a3.286 3.286 0 01-.63 1.302c-.308.402-.77.77-1.386 1.106-.606.327-1.414.616-2.422.868a1.27 1.27 0 00-.14-.28 1.983 1.983 0 00-.196-.294 2.192 2.192 0 00-.182-.252c.924-.214 1.662-.462 2.212-.742.56-.28.976-.588 1.246-.924a2.78 2.78 0 00.56-1.078 4.8 4.8 0 00.14-1.176v-2.856zm3.192 0h.994v6.692h-.994v-6.692zm-5.572 7.042h8.89v3.794h-1.064V22.35h-6.804v3.01h-1.022v-3.892zm4.018 1.456h1.064a5.575 5.575 0 01-.616 1.708c-.27.486-.653.901-1.148 1.246-.494.346-1.138.635-1.932.868-.784.234-1.764.42-2.94.56a1.707 1.707 0 00-.098-.294 3.272 3.272 0 00-.168-.322 1 1 0 00-.182-.266c1.102-.112 2.016-.256 2.744-.434.728-.186 1.312-.42 1.75-.7.439-.28.775-.611 1.008-.994.243-.392.416-.849.518-1.372zm.672 2.45l.546-.714a38.134 38.134 0 012.87.868c.495.159.957.322 1.386.49.439.159.817.313 1.134.462l-.588.826c-.298-.149-.662-.312-1.092-.49-.42-.168-.872-.34-1.358-.518a54.7 54.7 0 00-1.484-.49 54.525 54.525 0 00-1.414-.434zm-5.222-8.274h.952c-.065.43-.135.878-.21 1.344-.065.467-.135.868-.21 1.204h-.966c.075-.354.154-.765.238-1.232.084-.466.15-.905.196-1.316zm19.166-1.988h6.16v7.448h-1.036v-6.51h-4.13v6.51h-.994v-7.448zm3.122 7.238h.966v3.402c0 .196.033.327.098.392.075.066.206.098.392.098h1.036c.159 0 .276-.056.35-.168.084-.121.14-.354.168-.7.038-.345.066-.849.084-1.512.131.103.271.192.42.266a2.6 2.6 0 00.434.14c-.028.728-.084 1.298-.168 1.708-.074.402-.21.677-.406.826-.186.159-.485.238-.896.238h-1.19c-.457 0-.788-.084-.994-.252-.196-.158-.294-.471-.294-.938v-3.5zm-.644-5.124h.994v2.702c0 .598-.056 1.228-.168 1.89a7.372 7.372 0 01-.616 1.988c-.298.654-.732 1.284-1.302 1.89-.56.598-1.302 1.13-2.226 1.596a1.155 1.155 0 00-.168-.252 5.427 5.427 0 00-.252-.294 1.426 1.426 0 00-.224-.21c.878-.448 1.578-.942 2.1-1.484.532-.55.929-1.115 1.19-1.694a6.359 6.359 0 00.532-1.75c.094-.588.14-1.152.14-1.694v-2.688zm-8.218-1.722h4.326v1.008h-4.326v-1.008zm3.976 0h.168l.182-.042.672.21c-.186 1.708-.49 3.267-.91 4.676-.42 1.41-.928 2.651-1.526 3.724-.597 1.064-1.274 1.951-2.03 2.66a2.362 2.362 0 00-.224-.28 3.87 3.87 0 00-.28-.28 2.042 2.042 0 00-.28-.238c.523-.457 1.008-1.031 1.456-1.722a13.85 13.85 0 001.232-2.352c.374-.877.691-1.829.952-2.856.262-1.026.458-2.104.588-3.234v-.266zm-3.906 2.856l.798-.532c.411.542.822 1.116 1.232 1.722.411.598.798 1.204 1.162 1.82.374.607.705 1.195.994 1.764.29.56.518 1.074.686 1.54l-.896.616a12.3 12.3 0 00-.672-1.54c-.28-.578-.597-1.18-.952-1.806a27.054 27.054 0 00-1.148-1.848 34.278 34.278 0 00-1.204-1.736zm17.612 2.296h8.162v6.678h-1.05v-5.838h-6.104v5.838h-1.008v-6.678zm-2.814-1.848h12.348v.868h-12.348v-.868zm1.022-1.89h10.514v.84h-10.514v-.84zm2.464 5.53h6.874v.742h-6.874v-.742zm0 1.722h6.874v.728h-6.874v-.728zm-.098 1.764h6.972v.84h-6.972v-.84zm7.35-11.396l.672.756c-.653.131-1.395.243-2.226.336-.83.094-1.708.168-2.632.224-.924.056-1.857.103-2.8.14-.942.028-1.848.042-2.716.042a2.05 2.05 0 00-.084-.406 2.566 2.566 0 00-.126-.406c.85-.009 1.736-.028 2.66-.056.934-.028 1.848-.07 2.744-.126a55.281 55.281 0 002.506-.21 23.028 23.028 0 002.002-.294zm-5.74.952l1.092.238a21.004 21.004 0 01-1.232 3.276 13.174 13.174 0 01-1.862 2.912 10.56 10.56 0 01-2.688 2.268 2.567 2.567 0 00-.196-.266 2.613 2.613 0 00-.238-.308 6.281 6.281 0 00-.238-.252 9.349 9.349 0 002.548-2.1c.71-.83 1.293-1.74 1.75-2.73a16.5 16.5 0 001.064-3.038z" fill="#FFE040"/><g clip-path="url(#clip2_10005_6948)"><path d="M255.452 32.031s3.76-3.247 6.742-10.08c2.983-6.834 2.804-11.787 2.804-11.787h-94.915s-3.76 3.247-6.742 10.08c-2.984 6.834-2.804 11.787-2.804 11.787h94.915z" fill="#1C1C1C"/></g><defs><clipPath id="clip0_10005_6948"><path fill="#fff" transform="translate(.205)" d="M0 0h81.448v38.958H0z"/></clipPath><clipPath id="clip1_10005_6948"><path fill="#fff" transform="translate(184.967 10.318)" d="M0 0h10.517v21.734H0z"/></clipPath><clipPath id="clip2_10005_6948"><path fill="#fff" transform="rotate(-180 132.5 16.026)" d="M0 0h10.517v21.734H0z"/></clipPath></defs></svg>