<svg width="84" height="43" viewBox="0 0 84 43" fill="none" xmlns="http://www.w3.org/2000/svg"><g clip-path="url(#clip0_14023_6240)"><path d="M10.483 10.944S6.356 14.509 3.082 22.01C-.194 29.512.003 34.95.003 34.95h104.2s4.127-3.565 7.401-11.066c3.275-7.502 3.078-12.94 3.078-12.94h-104.2z" fill="#1C1C1C"/></g><path fill="#1C1C1C" d="M11.545 10.92h60v23.86h-60z"/><path d="M19.54 23.735h1.091v3.696c0 .196.038.326.112.392.084.056.276.084.574.084H23.291c.187 0 .327-.042.42-.126.094-.094.159-.28.196-.56.038-.29.061-.714.07-1.274.084.056.182.112.294.168.122.056.243.107.364.154.131.037.243.07.336.098-.037.672-.107 1.19-.21 1.554-.102.373-.261.63-.476.77-.214.14-.518.21-.91.21H21.205c-.438 0-.779-.042-1.022-.126a.856.856 0 01-.504-.448c-.093-.215-.14-.514-.14-.896v-3.696zm-3.347.112H17.3a9.485 9.485 0 01-.364 1.764 4.534 4.534 0 01-.756 1.442c-.336.42-.788.788-1.358 1.106-.569.326-1.288.597-2.156.812a1.714 1.714 0 00-.168-.308 6.566 6.566 0 00-.21-.336 1.117 1.117 0 00-.238-.266c.803-.178 1.456-.397 1.96-.658.514-.271.915-.58 1.204-.924.299-.355.518-.747.658-1.176.14-.44.248-.924.322-1.456zM18 19.927h1.022v3.584H18v-3.584zm-1.876-3.878l1.162.224c-.317.54-.69 1.087-1.12 1.638-.42.55-.905 1.087-1.456 1.61-.55.513-1.171.994-1.862 1.442a1.946 1.946 0 00-.196-.28 2.747 2.747 0 00-.28-.294 1.49 1.49 0 00-.252-.21 12.408 12.408 0 001.722-1.302 11.88 11.88 0 001.344-1.428c.392-.495.705-.962.938-1.4zm-1.498 4.466v2.548h8.12v-2.548h-8.12zm-1.036-.952h10.248v4.452H13.59v-4.452zm6.356-2.408h.238l.168-.042.728.462c-.168.308-.368.63-.602.966-.233.336-.476.658-.728.966-.252.308-.499.578-.742.812a6.52 6.52 0 00-.378-.252 2.809 2.809 0 00-.406-.238 10.709 10.709 0 001.274-1.652c.187-.3.336-.57.448-.812v-.21zm-4.06 0h4.368v.882h-4.928l.56-.882zM28.78 18.75h8.792v-.994h-9.744v-.77h10.71v2.52H28.78v-.756zm-.224 1.806h10.15v.756H28.331l.224-.756zm9.842 0h.98l-.014.126c0 .084-.004.158-.014.224a9.763 9.763 0 01-.154 1.064c-.056.242-.14.42-.252.532a.867.867 0 01-.308.182c-.112.037-.238.06-.378.07-.121.009-.294.014-.518.014-.224-.01-.462-.02-.714-.028a2.216 2.216 0 00-.07-.364 1.283 1.283 0 00-.126-.364c.224.028.425.046.602.056h.378a.962.962 0 00.182-.014.25.25 0 00.14-.07c.056-.066.103-.196.14-.392.047-.196.089-.5.126-.91v-.126zM31.3 16.09h.952v2.87c0 .504-.051.989-.154 1.456a3.302 3.302 0 01-.63 1.302c-.308.4-.77.77-1.386 1.106-.606.326-1.414.616-2.422.868a1.298 1.298 0 00-.14-.28 2.007 2.007 0 00-.196-.294 2.23 2.23 0 00-.182-.252c.924-.215 1.662-.462 2.212-.742.56-.28.976-.588 1.246-.924.28-.346.467-.705.56-1.078.094-.374.14-.766.14-1.176V16.09zm3.192 0h.994v6.692h-.994V16.09zm-5.572 7.042h8.89v3.794h-1.064v-2.912h-6.804v3.01H28.92v-3.892zm4.018 1.456h1.064c-.13.653-.336 1.222-.616 1.708-.27.485-.653.9-1.148 1.246-.494.345-1.138.634-1.932.868-.784.233-1.764.42-2.94.56a1.788 1.788 0 00-.098-.294 3.554 3.554 0 00-.168-.322 1.015 1.015 0 00-.182-.266c1.102-.112 2.016-.257 2.744-.434.728-.187 1.312-.42 1.75-.7.439-.28.775-.612 1.008-.994.243-.392.416-.85.518-1.372zm.672 2.45l.546-.714a38.475 38.475 0 012.87.868c.495.158.957.322 1.386.49.439.158.817.312 1.134.462l-.588.826c-.298-.15-.662-.313-1.092-.49-.42-.168-.872-.341-1.358-.518-.485-.168-.98-.332-1.484-.49a55.656 55.656 0 00-1.414-.434zm-5.222-8.274h.952c-.065.429-.135.877-.21 1.344-.065.466-.135.868-.21 1.204h-.966c.075-.355.154-.766.238-1.232.084-.467.15-.906.196-1.316zm19.166-1.988h6.16v7.448h-1.036v-6.51h-4.13v6.51h-.994v-7.448zm3.122 7.238h.966v3.402c0 .196.033.326.098.392.075.065.206.098.392.098h1.036c.159 0 .276-.056.35-.168.084-.122.14-.355.168-.7.038-.346.066-.85.084-1.512.131.102.271.19.42.266.159.065.304.112.434.14-.028.728-.084 1.297-.168 1.708-.074.4-.21.676-.406.826-.186.158-.485.238-.896.238h-1.19c-.457 0-.788-.084-.994-.252-.196-.16-.294-.472-.294-.938v-3.5zm-.644-5.124h.994v2.702c0 .597-.056 1.227-.168 1.89a7.393 7.393 0 01-.616 1.988c-.298.653-.732 1.283-1.302 1.89-.56.597-1.302 1.129-2.226 1.596a1.16 1.16 0 00-.168-.252 6.12 6.12 0 00-.252-.294 1.463 1.463 0 00-.224-.21c.878-.448 1.578-.943 2.1-1.484.532-.551.929-1.116 1.19-1.694.271-.588.448-1.172.532-1.75.094-.588.14-1.153.14-1.694V18.89zm-8.218-1.722h4.326v1.008h-4.326v-1.008zm3.976 0h.168l.182-.042.672.21c-.186 1.708-.49 3.266-.91 4.676-.42 1.409-.928 2.65-1.526 3.724-.597 1.064-1.274 1.95-2.03 2.66a2.434 2.434 0 00-.224-.28 3.953 3.953 0 00-.28-.28 2.105 2.105 0 00-.28-.238c.523-.458 1.008-1.032 1.456-1.722.458-.691.868-1.475 1.232-2.352.374-.878.691-1.83.952-2.856.262-1.027.458-2.105.588-3.234v-.266zm-3.906 2.856l.798-.532c.411.54.822 1.115 1.232 1.722.411.597.798 1.204 1.162 1.82.374.606.705 1.194.994 1.764.29.56.518 1.073.686 1.54l-.896.616c-.158-.458-.382-.971-.672-1.54a31.31 31.31 0 00-.952-1.806 27.463 27.463 0 00-1.148-1.848 34.872 34.872 0 00-1.204-1.736zm17.612 2.296h8.162v6.678h-1.05V23.16h-6.104v5.838h-1.008V22.32zm-2.814-1.848H69.03v.868H56.681v-.868zm1.022-1.89h10.514v.84H57.703v-.84zm2.464 5.53h6.874v.742h-6.874v-.742zm0 1.722h6.874v.728h-6.874v-.728zm-.098 1.764h6.972v.84H60.07v-.84zm7.35-11.396l.672.756c-.653.13-1.395.242-2.226.336-.83.093-1.708.168-2.632.224-.924.056-1.857.102-2.8.14a91.59 91.59 0 01-2.716.042 2.095 2.095 0 00-.084-.406 2.63 2.63 0 00-.126-.406c.85-.01 1.736-.028 2.66-.056.934-.028 1.848-.07 2.744-.126a55.355 55.355 0 002.506-.21 23.046 23.046 0 002.002-.294zm-5.74.952l1.092.238a21.034 21.034 0 01-1.232 3.276 13.204 13.204 0 01-1.862 2.912 10.577 10.577 0 01-2.688 2.268 2.67 2.67 0 00-.196-.266 2.679 2.679 0 00-.238-.308 6.653 6.653 0 00-.238-.252 9.35 9.35 0 002.548-2.1c.71-.831 1.293-1.741 1.75-2.73.458-.99.812-2.002 1.064-3.038z" fill="#F865C9"/><path d="M19.54 23.735h1.091v3.696c0 .196.038.326.112.392.084.056.276.084.574.084H23.291c.187 0 .327-.042.42-.126.094-.094.159-.28.196-.56.038-.29.061-.714.07-1.274.084.056.182.112.294.168.122.056.243.107.364.154.131.037.243.07.336.098-.037.672-.107 1.19-.21 1.554-.102.373-.261.63-.476.77-.214.14-.518.21-.91.21H21.205c-.438 0-.779-.042-1.022-.126a.856.856 0 01-.504-.448c-.093-.215-.14-.514-.14-.896v-3.696zm-3.347.112H17.3a9.485 9.485 0 01-.364 1.764 4.534 4.534 0 01-.756 1.442c-.336.42-.788.788-1.358 1.106-.569.326-1.288.597-2.156.812a1.714 1.714 0 00-.168-.308 6.566 6.566 0 00-.21-.336 1.117 1.117 0 00-.238-.266c.803-.178 1.456-.397 1.96-.658.514-.271.915-.58 1.204-.924.299-.355.518-.747.658-1.176.14-.44.248-.924.322-1.456zM18 19.927h1.022v3.584H18v-3.584zm-1.876-3.878l1.162.224c-.317.54-.69 1.087-1.12 1.638-.42.55-.905 1.087-1.456 1.61-.55.513-1.171.994-1.862 1.442a1.946 1.946 0 00-.196-.28 2.747 2.747 0 00-.28-.294 1.49 1.49 0 00-.252-.21 12.408 12.408 0 001.722-1.302 11.88 11.88 0 001.344-1.428c.392-.495.705-.962.938-1.4zm-1.498 4.466v2.548h8.12v-2.548h-8.12zm-1.036-.952h10.248v4.452H13.59v-4.452zm6.356-2.408h.238l.168-.042.728.462c-.168.308-.368.63-.602.966-.233.336-.476.658-.728.966-.252.308-.499.578-.742.812a6.52 6.52 0 00-.378-.252 2.809 2.809 0 00-.406-.238 10.709 10.709 0 001.274-1.652c.187-.3.336-.57.448-.812v-.21zm-4.06 0h4.368v.882h-4.928l.56-.882zM28.78 18.75h8.792v-.994h-9.744v-.77h10.71v2.52H28.78v-.756zm-.224 1.806h10.15v.756H28.331l.224-.756zm9.842 0h.98l-.014.126c0 .084-.004.158-.014.224a9.763 9.763 0 01-.154 1.064c-.056.242-.14.42-.252.532a.867.867 0 01-.308.182c-.112.037-.238.06-.378.07-.121.009-.294.014-.518.014-.224-.01-.462-.02-.714-.028a2.216 2.216 0 00-.07-.364 1.283 1.283 0 00-.126-.364c.224.028.425.046.602.056h.378a.962.962 0 00.182-.014.25.25 0 00.14-.07c.056-.066.103-.196.14-.392.047-.196.089-.5.126-.91v-.126zM31.3 16.09h.952v2.87c0 .504-.051.989-.154 1.456a3.302 3.302 0 01-.63 1.302c-.308.4-.77.77-1.386 1.106-.606.326-1.414.616-2.422.868a1.298 1.298 0 00-.14-.28 2.007 2.007 0 00-.196-.294 2.23 2.23 0 00-.182-.252c.924-.215 1.662-.462 2.212-.742.56-.28.976-.588 1.246-.924.28-.346.467-.705.56-1.078.094-.374.14-.766.14-1.176V16.09zm3.192 0h.994v6.692h-.994V16.09zm-5.572 7.042h8.89v3.794h-1.064v-2.912h-6.804v3.01H28.92v-3.892zm4.018 1.456h1.064c-.13.653-.336 1.222-.616 1.708-.27.485-.653.9-1.148 1.246-.494.345-1.138.634-1.932.868-.784.233-1.764.42-2.94.56a1.788 1.788 0 00-.098-.294 3.554 3.554 0 00-.168-.322 1.015 1.015 0 00-.182-.266c1.102-.112 2.016-.257 2.744-.434.728-.187 1.312-.42 1.75-.7.439-.28.775-.612 1.008-.994.243-.392.416-.85.518-1.372zm.672 2.45l.546-.714a38.475 38.475 0 012.87.868c.495.158.957.322 1.386.49.439.158.817.312 1.134.462l-.588.826c-.298-.15-.662-.313-1.092-.49-.42-.168-.872-.341-1.358-.518-.485-.168-.98-.332-1.484-.49a55.656 55.656 0 00-1.414-.434zm-5.222-8.274h.952c-.065.429-.135.877-.21 1.344-.065.466-.135.868-.21 1.204h-.966c.075-.355.154-.766.238-1.232.084-.467.15-.906.196-1.316zm19.166-1.988h6.16v7.448h-1.036v-6.51h-4.13v6.51h-.994v-7.448zm3.122 7.238h.966v3.402c0 .196.033.326.098.392.075.065.206.098.392.098h1.036c.159 0 .276-.056.35-.168.084-.122.14-.355.168-.7.038-.346.066-.85.084-1.512.131.102.271.19.42.266.159.065.304.112.434.14-.028.728-.084 1.297-.168 1.708-.074.4-.21.676-.406.826-.186.158-.485.238-.896.238h-1.19c-.457 0-.788-.084-.994-.252-.196-.16-.294-.472-.294-.938v-3.5zm-.644-5.124h.994v2.702c0 .597-.056 1.227-.168 1.89a7.393 7.393 0 01-.616 1.988c-.298.653-.732 1.283-1.302 1.89-.56.597-1.302 1.129-2.226 1.596a1.16 1.16 0 00-.168-.252 6.12 6.12 0 00-.252-.294 1.463 1.463 0 00-.224-.21c.878-.448 1.578-.943 2.1-1.484.532-.551.929-1.116 1.19-1.694.271-.588.448-1.172.532-1.75.094-.588.14-1.153.14-1.694V18.89zm-8.218-1.722h4.326v1.008h-4.326v-1.008zm3.976 0h.168l.182-.042.672.21c-.186 1.708-.49 3.266-.91 4.676-.42 1.409-.928 2.65-1.526 3.724-.597 1.064-1.274 1.95-2.03 2.66a2.434 2.434 0 00-.224-.28 3.953 3.953 0 00-.28-.28 2.105 2.105 0 00-.28-.238c.523-.458 1.008-1.032 1.456-1.722.458-.691.868-1.475 1.232-2.352.374-.878.691-1.83.952-2.856.262-1.027.458-2.105.588-3.234v-.266zm-3.906 2.856l.798-.532c.411.54.822 1.115 1.232 1.722.411.597.798 1.204 1.162 1.82.374.606.705 1.194.994 1.764.29.56.518 1.073.686 1.54l-.896.616c-.158-.458-.382-.971-.672-1.54a31.31 31.31 0 00-.952-1.806 27.463 27.463 0 00-1.148-1.848 34.872 34.872 0 00-1.204-1.736zm17.612 2.296h8.162v6.678h-1.05V23.16h-6.104v5.838h-1.008V22.32zm-2.814-1.848H69.03v.868H56.681v-.868zm1.022-1.89h10.514v.84H57.703v-.84zm2.464 5.53h6.874v.742h-6.874v-.742zm0 1.722h6.874v.728h-6.874v-.728zm-.098 1.764h6.972v.84H60.07v-.84zm7.35-11.396l.672.756c-.653.13-1.395.242-2.226.336-.83.093-1.708.168-2.632.224-.924.056-1.857.102-2.8.14a91.59 91.59 0 01-2.716.042 2.095 2.095 0 00-.084-.406 2.63 2.63 0 00-.126-.406c.85-.01 1.736-.028 2.66-.056.934-.028 1.848-.07 2.744-.126a55.355 55.355 0 002.506-.21 23.046 23.046 0 002.002-.294zm-5.74.952l1.092.238a21.034 21.034 0 01-1.232 3.276 13.204 13.204 0 01-1.862 2.912 10.577 10.577 0 01-2.688 2.268 2.67 2.67 0 00-.196-.266 2.679 2.679 0 00-.238-.308 6.653 6.653 0 00-.238-.252 9.35 9.35 0 002.548-2.1c.71-.831 1.293-1.741 1.75-2.73.458-.99.812-2.002 1.064-3.038z" fill="#FFE040"/><g clip-path="url(#clip1_14023_6240)"><path d="M72.609 34.758s4.127-3.565 7.4-11.067c3.276-7.502 3.08-12.94 3.08-12.94h-104.2s-4.127 3.565-7.401 11.066c-3.276 7.503-3.079 12.94-3.079 12.94h104.2z" fill="#1C1C1C"/></g><defs><clipPath id="clip0_14023_6240"><path fill="#fff" transform="translate(0 10.92)" d="M0 0h11.545v23.86H0z"/></clipPath><clipPath id="clip1_14023_6240"><path fill="#fff" transform="rotate(-180 41.545 17.39)" d="M0 0h11.545v23.86H0z"/></clipPath></defs></svg>