<svg width="152" height="90" viewBox="0 0 152 90" fill="none" xmlns="http://www.w3.org/2000/svg"><path d="M129.388 61.977c-9.597 22.101-9.01 38.124-9.01 38.124s12.122-10.5 21.737-32.594c9.603-22.097 9.011-38.124 9.011-38.124s-12.122 10.5-21.738 32.594z" fill="#FFE040"/><path d="M129.388 61.977c-9.597 22.101-9.01 38.124-9.01 38.124s12.122-10.5 21.737-32.594c9.603-22.097 9.011-38.124 9.011-38.124s-12.122 10.5-21.738 32.594z" fill="url(#paint0_radial_14023_6242)"/><path d="M-31-40.827v149.32H73.044l-.056.17c-1.382 11.029-1.147 17.4-1.147 17.4s12.56-10.886 27.12-33.435c-2.315 12.789-2.03 20.511-2.03 20.511s18.994-16.453 34.062-51.066c15.041-34.627 14.12-59.74 14.12-59.74s-5.842 5.062-13.616 15.475c6.565-26.028 5.956-42.638 5.956-42.638s-4.861 4.212-12.039 12.824c4.934-24.793 4.378-39.987 4.378-39.987s-4.37 3.787-11.18 11.495l.055-.33H-31z" fill="#FFE040"/><path d="M-31-40.827v149.32H73.044l-.056.17c-1.382 11.029-1.147 17.4-1.147 17.4s12.56-10.886 27.12-33.435c-2.315 12.789-2.03 20.511-2.03 20.511s18.994-16.453 34.062-51.066c15.041-34.627 14.12-59.74 14.12-59.74s-5.842 5.062-13.616 15.475c6.565-26.028 5.956-42.638 5.956-42.638s-4.861 4.212-12.039 12.824c4.934-24.793 4.378-39.987 4.378-39.987s-4.37 3.787-11.18 11.495l.055-.33H-31z" fill="url(#paint1_radial_14023_6242)"/><defs><radialGradient id="paint0_radial_14023_6242" cx="0" cy="0" r="1" gradientTransform="matrix(-225.805 42.1591 -133.636 -178.879 296.512 14.362)" gradientUnits="userSpaceOnUse"><stop offset=".244" stop-color="#F2F2F2"/><stop offset=".62" stop-color="#FFEB84"/><stop offset="1" stop-color="#FFE040"/></radialGradient><radialGradient id="paint1_radial_14023_6242" cx="0" cy="0" r="1" gradientTransform="matrix(-225.805 42.1591 -133.636 -178.879 296.512 14.362)" gradientUnits="userSpaceOnUse"><stop offset=".244" stop-color="#F2F2F2"/><stop offset=".62" stop-color="#FFEB84"/><stop offset="1" stop-color="#FFE040"/></radialGradient></defs></svg>