<svg width="90" height="44" viewBox="0 0 90 44" fill="none" xmlns="http://www.w3.org/2000/svg"><g clip-path="url(#clip0_14023_6243)"><path d="M52.897 14.343h6.934c2.312 0 3.569.884 3.569 3.331 0 2.176-1.529 3.364-3.569 3.364h-6.934v-6.695zm-4.248 20.8h11.148c6.287 0 8.94-2.955 8.94-6.764 0-3.296-1.599-5.608-4.554-6.255v-.066c2.21-.951 3.467-2.72 3.467-5.167 0-4.045-2.855-6.015-7.206-6.015H48.649v24.268zm4.248-11.046h7.512c2.583 0 4.08 1.358 4.08 3.74 0 2.38-1.497 3.84-4.08 3.84h-7.512v-7.58zM27.17 27.053c.1 6.016 4.588 8.668 10.127 8.668 4.825 0 9.653-2.175 9.653-7.613 0-2.514-1.528-5.233-4.724-6.186-1.257-.376-6.628-1.769-7-1.87-1.734-.476-2.89-1.427-2.89-3.126 0-2.447 2.482-3.161 4.452-3.161 2.925 0 5.03 1.156 5.233 4.282h4.248c0-5.065-4.248-7.75-9.313-7.75-4.383 0-8.87 2.278-8.87 7.137 0 2.514 1.222 5.03 5.371 6.152 3.331.919 5.539 1.36 7.238 2.005.985.373 2.005 1.121 2.005 2.99 0 1.87-1.393 3.67-5.132 3.67-3.397 0-6.15-1.462-6.15-5.2H27.17v.002zm42.679 0c.1 6.016 4.588 8.668 10.127 8.668 4.825 0 9.653-2.175 9.653-7.613 0-2.514-1.528-5.233-4.724-6.186-1.257-.376-6.628-1.769-7-1.87-1.734-.476-2.89-1.427-2.89-3.126 0-2.447 2.482-3.161 4.452-3.161 2.924 0 5.03 1.156 5.233 4.282h4.25c0-5.065-4.25-7.75-9.312-7.75-4.386 0-8.87 2.278-8.87 7.137 0 2.514 1.222 5.03 5.37 6.152 3.332.919 5.54 1.36 7.239 2.005.985.373 2.005 1.121 2.005 2.99 0 1.87-1.393 3.67-5.132 3.67-3.397 0-6.151-1.462-6.151-5.2H69.85l-.002.002zM28.349 0s-6.556 5.683-12.182 17.614c3.39-8.773 3.167-14.927 3.167-14.927s-4.756 4.126-8.894 12.777c2.404-6.357 2.245-10.792 2.245-10.792s-3.45 2.994-6.49 9.266c1.703-4.605 1.59-7.801 1.59-7.801s-2.98 2.583-5.343 8.018C.073 19.593.215 23.534.215 23.534s2.412-2.095 4.617-6.475C2.32 23.557 2.486 28.116 2.486 28.116s3.354-2.912 6.365-9.009c-3.51 8.931-3.282 15.227-3.282 15.227s4.652-4.033 8.755-12.49C9.433 34.097 9.75 42.769 9.75 42.769s7.324-6.351 13.135-19.715C28.698 9.688 28.348 0 28.348 0z" fill="#1C1C1C"/></g><defs><clipPath id="clip0_14023_6243"><path fill="#fff" transform="translate(.215)" d="M0 0h89.415v42.769H0z"/></clipPath></defs></svg>