<svg width="265" height="40" viewBox="0 0 265 40" fill="none" xmlns="http://www.w3.org/2000/svg"><g clip-path="url(#clip0_10005_6948)"><path d="M48.193 13.065h6.317c2.105 0 3.25.805 3.25 3.034 0 1.982-1.392 3.064-3.25 3.064h-6.317v-6.098zm-3.869 18.947h10.154c5.727 0 8.143-2.692 8.143-6.161 0-3.003-1.455-5.109-4.148-5.698v-.06c2.014-.867 3.159-2.477 3.159-4.707 0-3.684-2.6-5.48-6.564-5.48H44.324v22.106zm3.869-10.062h6.843c2.353 0 3.716 1.237 3.716 3.406s-1.363 3.498-3.716 3.498h-6.843V21.95zm-23.435 2.693c.093 5.48 4.18 7.895 9.225 7.895 4.396 0 8.794-1.981 8.794-6.935 0-2.29-1.393-4.766-4.304-5.635-1.145-.342-6.037-1.61-6.377-1.702-1.579-.435-2.632-1.3-2.632-2.848 0-2.23 2.261-2.88 4.056-2.88 2.663 0 4.582 1.053 4.766 3.901h3.87c0-4.614-3.87-7.059-8.483-7.059-3.993 0-8.08 2.074-8.08 6.501 0 2.29 1.113 4.582 4.892 5.603 3.035.837 5.046 1.24 6.593 1.827.898.34 1.827 1.021 1.827 2.724 0 1.703-1.269 3.343-4.674 3.343-3.096 0-5.604-1.332-5.604-4.738h-3.869v.003zm38.877 0c.092 5.48 4.18 7.895 9.224 7.895 4.396 0 8.794-1.981 8.794-6.935 0-2.29-1.393-4.766-4.303-5.635-1.145-.342-6.038-1.61-6.378-1.702-1.579-.435-2.631-1.3-2.631-2.848 0-2.23 2.26-2.88 4.055-2.88 2.664 0 4.582 1.053 4.767 3.901h3.871c0-4.614-3.871-7.059-8.483-7.059-3.995 0-8.08 2.074-8.08 6.501 0 2.29 1.114 4.582 4.893 5.603 3.035.837 5.046 1.24 6.593 1.827.898.34 1.827 1.021 1.827 2.724 0 1.703-1.269 3.343-4.675 3.343-3.095 0-5.603-1.332-5.603-4.738h-3.869l-.002.003zM25.832 0S19.86 5.177 14.736 16.044c3.087-7.99 2.885-13.596 2.885-13.596s-4.333 3.758-8.102 11.638c2.19-5.79 2.046-9.83 2.046-9.83s-3.143 2.727-5.912 8.44C7.203 8.501 7.101 5.59 7.101 5.59s-2.714 2.353-4.867 7.304C.076 17.847.205 21.437.205 21.437s2.198-1.908 4.206-5.898C2.124 21.459 2.274 25.61 2.274 25.61s3.055-2.653 5.798-8.206c-3.198 8.135-2.99 13.87-2.99 13.87s4.237-3.674 7.975-11.378C8.604 31.06 8.89 38.957 8.89 38.957S15.562 33.174 20.855 21c5.296-12.175 4.977-21 4.977-21z" fill="#1C1C1C"/></g><g clip-path="url(#clip1_10005_6948)"><path d="M194.516 10.34s-3.76 3.247-6.742 10.08c-2.984 6.834-2.804 11.787-2.804 11.787h94.915s3.759-3.247 6.742-10.08c2.983-6.834 2.804-11.788 2.804-11.788h-94.915z" fill="#1C1C1C"/></g><path fill="#1C1C1C" d="M195.483 10.318h59v21.734h-59z"/><path d="M203.477 22.07h1.092v3.695c0 .196.038.327.112.392.084.056.276.084.574.084H207.229c.187 0 .327-.042.42-.126.094-.093.159-.28.196-.56.038-.289.061-.714.07-1.274.084.056.182.112.294.168a6.3 6.3 0 00.364.154l.336.098c-.037.672-.107 1.19-.21 1.554-.102.374-.261.63-.476.77-.214.14-.518.21-.91.21H205.143c-.438 0-.779-.042-1.022-.126a.858.858 0 01-.504-.448c-.093-.214-.14-.513-.14-.896V22.07zm-3.346.111h1.106a9.437 9.437 0 01-.364 1.764 4.534 4.534 0 01-.756 1.442c-.336.42-.788.79-1.358 1.106-.569.327-1.288.598-2.156.812a1.677 1.677 0 00-.168-.308 6.172 6.172 0 00-.21-.336 1.106 1.106 0 00-.238-.266c.803-.177 1.456-.396 1.96-.658.514-.27.915-.578 1.204-.924.299-.354.518-.746.658-1.176.14-.438.248-.924.322-1.456zm1.806-3.92h1.022v3.584h-1.022v-3.584zm-1.876-3.878l1.162.224c-.317.542-.69 1.088-1.12 1.638-.42.551-.905 1.088-1.456 1.61-.55.514-1.171.994-1.862 1.442a1.9 1.9 0 00-.196-.28 2.737 2.737 0 00-.28-.294 1.467 1.467 0 00-.252-.21 12.373 12.373 0 001.722-1.302 11.77 11.77 0 001.344-1.428 9.36 9.36 0 00.938-1.4zm-1.498 4.466v2.548h8.12V18.85h-8.12zm-1.036-.952h10.248v4.452h-10.248v-4.452zm6.356-2.408h.238l.168-.042.728.462c-.168.308-.368.63-.602.966-.233.336-.476.658-.728.966a9.211 9.211 0 01-.742.812 6.223 6.223 0 00-.378-.252 2.77 2.77 0 00-.406-.238 10.565 10.565 0 001.274-1.652c.187-.298.336-.569.448-.812v-.21zm-4.06 0h4.368v.882h-4.928l.56-.882zm12.894 1.204h8.792v-.784h-9.744v-.714h10.71v2.198h-9.758v-.7zm-.322 0h.994c-.13.402-.275.817-.434 1.246-.149.42-.284.784-.406 1.092l-.98-.056c.14-.317.285-.68.434-1.092.15-.42.28-.816.392-1.19zm-.07 1.456h10.388v.7h-10.598l.21-.7zm10.038 0h.994l-.014.126v.224c-.046.43-.098.761-.154.994-.056.224-.14.388-.252.49a.864.864 0 01-.308.196c-.112.038-.238.061-.378.07h-.532l-.7-.028a1.848 1.848 0 00-.07-.35 1.355 1.355 0 00-.14-.35c.224.02.425.033.602.042.178.01.304.014.378.014.084 0 .15-.004.196-.014a.215.215 0 00.126-.084c.056-.056.103-.172.14-.35a5.43 5.43 0 00.112-.854v-.126zm-7.168-3.724h.966v2.52c0 .467-.056.906-.168 1.316a2.68 2.68 0 01-.63 1.148c-.308.346-.77.658-1.386.938-.606.28-1.418.518-2.436.714a1.754 1.754 0 00-.126-.28 2.989 2.989 0 00-.182-.294 1.436 1.436 0 00-.196-.252c.934-.168 1.676-.368 2.226-.602.551-.233.966-.49 1.246-.77s.462-.583.546-.91c.094-.326.14-.667.14-1.022v-2.506zm3.136 0h1.008V19.9h-1.008v-5.474zm-4.508 7.7v.868h7.028v-.868h-7.028zm0 1.526v.882h7.028v-.882h-7.028zm0-3.038v.868h7.028v-.868h-7.028zm-1.022-.672h9.114v5.278h-9.114v-5.278zm5.586 5.978l.84-.56c.514.14 1.036.294 1.568.462.532.16 1.032.318 1.498.476.476.168.882.322 1.218.462l-1.12.56c-.298-.14-.662-.289-1.092-.448-.42-.158-.882-.322-1.386-.49a24.076 24.076 0 00-1.526-.462zm-3.22-.574l.938.434c-.373.206-.812.406-1.316.602-.504.196-1.017.378-1.54.546-.513.168-1.008.308-1.484.42a1.869 1.869 0 00-.21-.266 8.051 8.051 0 00-.294-.28 5.03 5.03 0 00-.252-.238c.486-.093.98-.205 1.484-.336a19.447 19.447 0 001.47-.406c.467-.149.868-.308 1.204-.476zm11.914-2.674h4.872v.7h-4.872v-.7zm0 1.526h4.872v.7h-4.872v-.7zm-.07 1.526h5.278v.784h-5.278v-.784zm-1.302-10.36h6.678v.798h-6.678v-.798zm3.234 6.16h.896v4.69h-.896v-4.69zm-1.708-7.07h.924v2.604h-.924v-2.604zm2.786 0h.91v2.604h-.91v-2.604zm-3.22 3.598v1.19h1.176v-1.19h-1.176zm-.756-.7h2.702v2.59h-2.702v-2.59zm4.06.7v1.19h1.274v-1.19h-1.274zm-.728-.7h2.786v2.59h-2.786v-2.59zm-1.932 3.752h4.802v.756h-4.802v5.32h-.868v-5.404l.616-.672h.252zm2.114-1.204l.896.238c-.14.271-.28.546-.42.826-.13.28-.252.523-.364.728l-.7-.224a9.048 9.048 0 00.588-1.568zm-2.366-.042l.812.21c-.233.7-.536 1.382-.91 2.044a9.006 9.006 0 01-1.204 1.694 8.938 8.938 0 00-.154-.224 2.815 2.815 0 00-.21-.266 1.166 1.166 0 00-.196-.224 6.806 6.806 0 001.064-1.456c.327-.569.593-1.162.798-1.778zm6.622-1.708v1.428h3.108V18.15h-3.108zm0 2.268v1.442h3.108v-1.442h-3.108zm0-4.522v1.414h3.108v-1.414h-3.108zm-.924-.924h4.998v7.798h-4.998v-7.798zm2.73 7.532h.924v3.346c0 .14.014.234.042.28.038.047.108.07.21.07H237.441a.189.189 0 00.182-.112c.047-.084.08-.256.098-.518.028-.26.042-.667.042-1.218.094.084.224.16.392.224.168.066.313.117.434.154-.018.626-.065 1.111-.14 1.456-.065.336-.172.565-.322.686-.14.131-.331.196-.574.196h-.896c-.28 0-.494-.037-.644-.112a.555.555 0 01-.308-.364c-.056-.177-.084-.424-.084-.742v-3.346zm-1.82.112h.91c-.037.784-.135 1.475-.294 2.072a3.834 3.834 0 01-.756 1.54c-.345.43-.849.79-1.512 1.078a2.622 2.622 0 00-.266-.406 1.836 1.836 0 00-.322-.364c.598-.224 1.05-.513 1.358-.868.308-.354.523-.784.644-1.288a9.876 9.876 0 00.238-1.764zm9.632-1.96h8.162v6.678h-1.05v-5.838h-6.104v5.838h-1.008v-6.678zm-2.814-1.848h12.348v.868h-12.348v-.868zm1.022-1.89h10.514v.84h-10.514v-.84zm2.464 5.53h6.874v.742h-6.874v-.742zm0 1.722h6.874v.728h-6.874v-.728zm-.098 1.764h6.972v.84h-6.972v-.84zm7.35-11.396l.672.756a26.51 26.51 0 01-2.226.336 51.39 51.39 0 01-2.632.224c-.924.056-1.857.103-2.8.14-.942.028-1.848.042-2.716.042a2.05 2.05 0 00-.084-.406 2.569 2.569 0 00-.126-.406c.85-.009 1.736-.028 2.66-.056.934-.028 1.848-.07 2.744-.126a55.281 55.281 0 002.506-.21 23.028 23.028 0 002.002-.294zm-5.74.952l1.092.238a21.004 21.004 0 01-1.232 3.276 13.17 13.17 0 01-1.862 2.912 10.557 10.557 0 01-2.688 2.268 2.589 2.589 0 00-.196-.266 2.622 2.622 0 00-.238-.308 6.42 6.42 0 00-.238-.252 9.345 9.345 0 002.548-2.1 11.79 11.79 0 001.75-2.73c.458-.989.812-2.002 1.064-3.038z" fill="#F865C9"/><path d="M203.477 22.07h1.092v3.695c0 .196.038.327.112.392.084.056.276.084.574.084H207.229c.187 0 .327-.042.42-.126.094-.093.159-.28.196-.56.038-.289.061-.714.07-1.274.084.056.182.112.294.168a6.3 6.3 0 00.364.154l.336.098c-.037.672-.107 1.19-.21 1.554-.102.374-.261.63-.476.77-.214.14-.518.21-.91.21H205.143c-.438 0-.779-.042-1.022-.126a.858.858 0 01-.504-.448c-.093-.214-.14-.513-.14-.896V22.07zm-3.346.111h1.106a9.437 9.437 0 01-.364 1.764 4.534 4.534 0 01-.756 1.442c-.336.42-.788.79-1.358 1.106-.569.327-1.288.598-2.156.812a1.677 1.677 0 00-.168-.308 6.172 6.172 0 00-.21-.336 1.106 1.106 0 00-.238-.266c.803-.177 1.456-.396 1.96-.658.514-.27.915-.578 1.204-.924.299-.354.518-.746.658-1.176.14-.438.248-.924.322-1.456zm1.806-3.92h1.022v3.584h-1.022v-3.584zm-1.876-3.878l1.162.224c-.317.542-.69 1.088-1.12 1.638-.42.551-.905 1.088-1.456 1.61-.55.514-1.171.994-1.862 1.442a1.9 1.9 0 00-.196-.28 2.737 2.737 0 00-.28-.294 1.467 1.467 0 00-.252-.21 12.373 12.373 0 001.722-1.302 11.77 11.77 0 001.344-1.428 9.36 9.36 0 00.938-1.4zm-1.498 4.466v2.548h8.12V18.85h-8.12zm-1.036-.952h10.248v4.452h-10.248v-4.452zm6.356-2.408h.238l.168-.042.728.462c-.168.308-.368.63-.602.966-.233.336-.476.658-.728.966a9.211 9.211 0 01-.742.812 6.223 6.223 0 00-.378-.252 2.77 2.77 0 00-.406-.238 10.565 10.565 0 001.274-1.652c.187-.298.336-.569.448-.812v-.21zm-4.06 0h4.368v.882h-4.928l.56-.882zm12.894 1.204h8.792v-.784h-9.744v-.714h10.71v2.198h-9.758v-.7zm-.322 0h.994c-.13.402-.275.817-.434 1.246-.149.42-.284.784-.406 1.092l-.98-.056c.14-.317.285-.68.434-1.092.15-.42.28-.816.392-1.19zm-.07 1.456h10.388v.7h-10.598l.21-.7zm10.038 0h.994l-.014.126v.224c-.046.43-.098.761-.154.994-.056.224-.14.388-.252.49a.864.864 0 01-.308.196c-.112.038-.238.061-.378.07h-.532l-.7-.028a1.848 1.848 0 00-.07-.35 1.355 1.355 0 00-.14-.35c.224.02.425.033.602.042.178.01.304.014.378.014.084 0 .15-.004.196-.014a.215.215 0 00.126-.084c.056-.056.103-.172.14-.35a5.43 5.43 0 00.112-.854v-.126zm-7.168-3.724h.966v2.52c0 .467-.056.906-.168 1.316a2.68 2.68 0 01-.63 1.148c-.308.346-.77.658-1.386.938-.606.28-1.418.518-2.436.714a1.754 1.754 0 00-.126-.28 2.989 2.989 0 00-.182-.294 1.436 1.436 0 00-.196-.252c.934-.168 1.676-.368 2.226-.602.551-.233.966-.49 1.246-.77s.462-.583.546-.91c.094-.326.14-.667.14-1.022v-2.506zm3.136 0h1.008V19.9h-1.008v-5.474zm-4.508 7.7v.868h7.028v-.868h-7.028zm0 1.526v.882h7.028v-.882h-7.028zm0-3.038v.868h7.028v-.868h-7.028zm-1.022-.672h9.114v5.278h-9.114v-5.278zm5.586 5.978l.84-.56c.514.14 1.036.294 1.568.462.532.16 1.032.318 1.498.476.476.168.882.322 1.218.462l-1.12.56c-.298-.14-.662-.289-1.092-.448-.42-.158-.882-.322-1.386-.49a24.076 24.076 0 00-1.526-.462zm-3.22-.574l.938.434c-.373.206-.812.406-1.316.602-.504.196-1.017.378-1.54.546-.513.168-1.008.308-1.484.42a1.869 1.869 0 00-.21-.266 8.051 8.051 0 00-.294-.28 5.03 5.03 0 00-.252-.238c.486-.093.98-.205 1.484-.336a19.447 19.447 0 001.47-.406c.467-.149.868-.308 1.204-.476zm11.914-2.674h4.872v.7h-4.872v-.7zm0 1.526h4.872v.7h-4.872v-.7zm-.07 1.526h5.278v.784h-5.278v-.784zm-1.302-10.36h6.678v.798h-6.678v-.798zm3.234 6.16h.896v4.69h-.896v-4.69zm-1.708-7.07h.924v2.604h-.924v-2.604zm2.786 0h.91v2.604h-.91v-2.604zm-3.22 3.598v1.19h1.176v-1.19h-1.176zm-.756-.7h2.702v2.59h-2.702v-2.59zm4.06.7v1.19h1.274v-1.19h-1.274zm-.728-.7h2.786v2.59h-2.786v-2.59zm-1.932 3.752h4.802v.756h-4.802v5.32h-.868v-5.404l.616-.672h.252zm2.114-1.204l.896.238c-.14.271-.28.546-.42.826-.13.28-.252.523-.364.728l-.7-.224a9.048 9.048 0 00.588-1.568zm-2.366-.042l.812.21c-.233.7-.536 1.382-.91 2.044a9.006 9.006 0 01-1.204 1.694 8.938 8.938 0 00-.154-.224 2.815 2.815 0 00-.21-.266 1.166 1.166 0 00-.196-.224 6.806 6.806 0 001.064-1.456c.327-.569.593-1.162.798-1.778zm6.622-1.708v1.428h3.108V18.15h-3.108zm0 2.268v1.442h3.108v-1.442h-3.108zm0-4.522v1.414h3.108v-1.414h-3.108zm-.924-.924h4.998v7.798h-4.998v-7.798zm2.73 7.532h.924v3.346c0 .14.014.234.042.28.038.047.108.07.21.07H237.441a.189.189 0 00.182-.112c.047-.084.08-.256.098-.518.028-.26.042-.667.042-1.218.094.084.224.16.392.224.168.066.313.117.434.154-.018.626-.065 1.111-.14 1.456-.065.336-.172.565-.322.686-.14.131-.331.196-.574.196h-.896c-.28 0-.494-.037-.644-.112a.555.555 0 01-.308-.364c-.056-.177-.084-.424-.084-.742v-3.346zm-1.82.112h.91c-.037.784-.135 1.475-.294 2.072a3.834 3.834 0 01-.756 1.54c-.345.43-.849.79-1.512 1.078a2.622 2.622 0 00-.266-.406 1.836 1.836 0 00-.322-.364c.598-.224 1.05-.513 1.358-.868.308-.354.523-.784.644-1.288a9.876 9.876 0 00.238-1.764zm9.632-1.96h8.162v6.678h-1.05v-5.838h-6.104v5.838h-1.008v-6.678zm-2.814-1.848h12.348v.868h-12.348v-.868zm1.022-1.89h10.514v.84h-10.514v-.84zm2.464 5.53h6.874v.742h-6.874v-.742zm0 1.722h6.874v.728h-6.874v-.728zm-.098 1.764h6.972v.84h-6.972v-.84zm7.35-11.396l.672.756a26.51 26.51 0 01-2.226.336 51.39 51.39 0 01-2.632.224c-.924.056-1.857.103-2.8.14-.942.028-1.848.042-2.716.042a2.05 2.05 0 00-.084-.406 2.569 2.569 0 00-.126-.406c.85-.009 1.736-.028 2.66-.056.934-.028 1.848-.07 2.744-.126a55.281 55.281 0 002.506-.21 23.028 23.028 0 002.002-.294zm-5.74.952l1.092.238a21.004 21.004 0 01-1.232 3.276 13.17 13.17 0 01-1.862 2.912 10.557 10.557 0 01-2.688 2.268 2.589 2.589 0 00-.196-.266 2.622 2.622 0 00-.238-.308 6.42 6.42 0 00-.238-.252 9.345 9.345 0 002.548-2.1 11.79 11.79 0 001.75-2.73c.458-.989.812-2.002 1.064-3.038z" fill="#FFE040"/><g clip-path="url(#clip2_10005_6948)"><path d="M255.452 32.032s3.759-3.248 6.742-10.08c2.983-6.835 2.804-11.788 2.804-11.788h-94.915s-3.76 3.247-6.742 10.08c-2.984 6.834-2.804 11.788-2.804 11.788h94.915z" fill="#1C1C1C"/></g><defs><clipPath id="clip0_10005_6948"><path fill="#fff" transform="translate(.205)" d="M0 0h81.448v38.958H0z"/></clipPath><clipPath id="clip1_10005_6948"><path fill="#fff" transform="translate(184.967 10.318)" d="M0 0h10.517v21.734H0z"/></clipPath><clipPath id="clip2_10005_6948"><path fill="#fff" transform="rotate(-180 132.5 16.026)" d="M0 0h10.517v21.734H0z"/></clipPath></defs></svg>