<svg width="145" height="70" viewBox="0 0 145 70" fill="none" xmlns="http://www.w3.org/2000/svg"><g clip-path="url(#clip0_17023_849)"><path d="M85.308 23.2h11.23c3.742 0 5.778 1.43 5.778 5.388 0 3.519-2.476 5.44-5.779 5.44H85.308V23.199zM78.43 56.843h18.051c10.181 0 14.476-4.781 14.476-10.94 0-5.333-2.587-9.072-7.374-10.119v-.107c3.58-1.538 5.615-4.398 5.615-8.357 0-6.543-4.623-9.73-11.669-9.73H78.43v39.253zm6.878-17.867h12.165c4.183 0 6.606 2.197 6.606 6.048 0 3.85-2.423 6.21-6.606 6.21H85.308V38.978zm-41.66 4.781c.164 9.73 7.43 14.02 16.4 14.02 7.813 0 15.631-3.519 15.631-12.314 0-4.066-2.475-8.464-7.65-10.006-2.035-.608-10.733-2.86-11.336-3.024-2.807-.771-4.679-2.309-4.679-5.057 0-3.958 4.02-5.112 7.21-5.112 4.735 0 8.146 1.869 8.473 6.926h6.878c0-8.193-6.878-12.535-15.08-12.535-7.097 0-14.363 3.683-14.363 11.544 0 4.066 1.979 8.137 8.697 9.95 5.395 1.486 8.97 2.201 11.72 3.243 1.596.603 3.248 1.813 3.248 4.837s-2.255 5.936-8.31 5.936c-5.502 0-9.96-2.365-9.96-8.413h-6.879v.005zm69.111 0c.163 9.73 7.429 14.02 16.399 14.02 7.813 0 15.631-3.519 15.631-12.314 0-4.066-2.475-8.464-7.649-10.006-2.036-.608-10.733-2.86-11.337-3.024-2.807-.771-4.679-2.309-4.679-5.057 0-3.958 4.019-5.112 7.21-5.112 4.735 0 8.146 1.869 8.473 6.926h6.883c0-8.193-6.883-12.535-15.08-12.535-7.102 0-14.364 3.683-14.364 11.544 0 4.066 1.98 8.137 8.698 9.95 5.395 1.486 8.969 2.201 11.721 3.243 1.595.603 3.247 1.813 3.247 4.837s-2.256 5.936-8.31 5.936c-5.502 0-9.961-2.365-9.961-8.413h-6.878l-.004.005zM45.557 0S34.941 9.193 25.832 28.49C31.32 14.3 30.959 4.346 30.959 4.346s-7.7 6.674-14.4 20.667C20.45 14.73 20.193 7.557 20.193 7.557s-5.587 4.842-10.509 14.988c2.756-7.45 2.573-12.618 2.573-12.618s-4.823 4.178-8.65 12.968C-.23 31.691 0 38.066 0 38.066s3.907-3.388 7.477-10.473c-4.066 10.511-3.8 17.886-3.8 17.886s5.433-4.711 10.308-14.572C8.3 45.352 8.67 55.536 8.67 55.536s7.533-6.525 14.176-20.204c-7.916 19.82-7.406 33.845-7.406 33.845S27.3 58.905 36.71 37.29C46.123 15.67 45.557 0 45.557 0z" fill="#1C1C1C"/></g><defs><clipPath id="clip0_17023_849"><path fill="#fff" d="M0 0h144.789v69.177H0z"/></clipPath></defs></svg>