<svg width="125" height="33" viewBox="0 0 125 33" fill="none" xmlns="http://www.w3.org/2000/svg"><g clip-path="url(#clip0_17023_848)"><path d="M14.147.031S8.577 4.842 4.16 14.966C-.261 25.09.004 32.43.004 32.43H140.63s5.57-4.811 9.989-14.934C155.038 7.37 154.772.03 154.772.03H14.147z" fill="#1C1C1C"/></g><path fill="#1C1C1C" d="M15.581 0h93v32.201h-93z"/><path d="M15.64 7.006v-.968l3.496-1.044v1.014l-3.496.998zm0 1.59v-.969l3.496-1.044v1.014l-3.496.999zm5.42 13.08c-.888 0-1.574-.09-2.058-.272-.474-.192-.807-.484-1-.878-.18-.403-.282-.918-.302-1.544l-.318-8.354h1.786l.318 7.552c.02.474.066.833.136 1.075a.77.77 0 00.485.5c.242.09.61.136 1.104.136.323 0 .555.085.697.257a.886.886 0 01.211.605c0 .252-.095.47-.287.651-.182.182-.439.272-.772.272zm.842 0l.151-1.785c.464 0 .832-.03 1.105-.091.272-.06.464-.177.575-.348.121-.182.182-.44.182-.772 0-.273-.04-.596-.121-.969a10.17 10.17 0 00-.303-1.18 19.872 19.872 0 00-.378-1.166l1.755-.53c.131.333.252.722.363 1.166.121.434.222.878.303 1.332.09.444.136.862.136 1.256 0 .494-.06.918-.181 1.271-.121.353-.293.651-.515.893a2.372 2.372 0 01-.787.56c-.313.131-.66.227-1.044.288-.384.05-.797.075-1.241.075zm2.088-8.218a.975.975 0 01-.696-.272.948.948 0 01-.287-.696c0-.273.095-.505.287-.697a.925.925 0 01.696-.302c.263 0 .49.1.681.303a.948.948 0 01.288.696.957.957 0 01-.969.969zm7.913 8.218c-.888 0-1.574-.09-2.058-.272-.474-.192-.807-.484-.999-.878-.182-.403-.282-.918-.303-1.544l-.318-8.354h1.786l.318 7.552c.02.474.066.833.136 1.075a.77.77 0 00.485.5c.242.09.61.136 1.104.136.323 0 .555.085.697.257a.886.886 0 01.212.605c0 .252-.096.47-.288.651-.182.182-.439.272-.772.272zm10.65 0a8.08 8.08 0 01-1.257-.09 3.745 3.745 0 01-1.044-.348 2.603 2.603 0 01-.818-.712c-.232-.302-.418-.691-.56-1.165l1.075-.802c.161.353.358.625.59.817.242.192.535.328.878.409.353.07.782.105 1.286.105.313 0 .535.086.666.258a.886.886 0 01.212.605c0 .252-.09.47-.272.651-.182.182-.434.272-.757.272zm-9.808 0l.151-1.785c.535 0 1.065-.036 1.59-.106.524-.071 1.034-.172 1.528-.303a9.487 9.487 0 001.423-.5 8.37 8.37 0 001.286-.71 4.524 4.524 0 00-.953-.515 4.825 4.825 0 00-1.12-.333 6.545 6.545 0 00-1.287-.122c-.161 0-.323.006-.484.016-.161.01-.328.03-.5.06-.161.02-.332.05-.514.091l-.273-1.725a6.671 6.671 0 011.725-.242c.536 0 1.025.06 1.469.181.444.121.852.273 1.226.454.373.182.721.363 1.044.545.333.182.65.338.954.47.302.12.605.18.908.18h.469l.181 1.666c-.433.01-.837.085-1.21.227a6.408 6.408 0 00-1.105.514c-.353.202-.732.414-1.135.636-.404.222-.858.434-1.362.636-.505.191-1.085.353-1.74.484-.657.12-1.413.181-2.271.181zm4.147 3.148a.906.906 0 01-.666-.272.889.889 0 01-.273-.65c0-.263.091-.49.273-.682a.882.882 0 01.666-.287c.262 0 .484.095.666.287a.93.93 0 01.287.681c0 .252-.096.47-.287.651a.906.906 0 01-.666.272zm6.5-3.148l.15-1.785c.253 0 .465-.061.636-.182.182-.121.363-.318.545-.59.182-.283.389-.661.62-1.136.293-.615.596-1.094.909-1.437.312-.343.63-.58.953-.712.333-.14.661-.211.984-.211.403 0 .782.095 1.135.287a2.8 2.8 0 01.908.742c.262.313.464.666.605 1.06.152.393.227.791.227 1.195 0 .565-.11 1.05-.333 1.453-.221.403-.52.711-.892.923a2.47 2.47 0 01-1.242.318c-.383 0-.847-.07-1.392-.212-.545-.141-1.155-.454-1.831-.938l.696-1.499c.474.313.908.535 1.302.666.403.131.736.197.998.197.233 0 .42-.03.56-.091a.675.675 0 00.333-.257.857.857 0 00.106-.44c0-.241-.06-.483-.181-.726a1.827 1.827 0 00-.454-.635.88.88 0 00-.62-.258.752.752 0 00-.53.212c-.152.131-.308.338-.47.62-.151.283-.328.642-.53 1.075a8.84 8.84 0 01-.696 1.211 2.796 2.796 0 01-.68.727c-.233.161-.5.272-.803.333-.292.06-.63.09-1.014.09zm14.79-.075l-.319-10.973h1.786l.303 10.973h-1.77zm4.34 3.48l-.364-1.785c.666-.091 1.261-.202 1.786-.333.525-.131.968-.318 1.332-.56.373-.242.65-.565.832-.969.192-.414.288-.938.288-1.574 0-.252-.025-.504-.076-.756a2.343 2.343 0 00-.212-.682 1.36 1.36 0 00-.348-.484.71.71 0 00-.5-.197.777.777 0 00-.544.227 1.52 1.52 0 00-.363.545c-.091.212-.137.43-.137.651 0 .172.036.318.106.439.081.11.202.197.364.257.171.06.383.091.635.091.263 0 .53-.025.802-.076.273-.06.515-.14.727-.242l.06 1.423a3.384 3.384 0 01-.847.454 2.96 2.96 0 01-1.075.181 4.11 4.11 0 01-1.029-.12 2.4 2.4 0 01-.787-.394 1.827 1.827 0 01-.53-.666 2.37 2.37 0 01-.181-.969c0-.454.07-.898.212-1.331.15-.434.358-.828.62-1.18.262-.354.57-.632.923-.833a2.249 2.249 0 011.15-.318c.465 0 .873.116 1.226.348.354.232.646.545.878.938.232.384.409.807.53 1.272.121.464.182.923.182 1.377 0 1.06-.222 1.962-.666 2.709-.444.757-1.09 1.347-1.938 1.77-.847.434-1.866.697-3.057.788zm10.495-5.19c.475 0 .843-.046 1.105-.137.263-.09.444-.212.545-.363a.916.916 0 00.166-.53c0-.222-.06-.484-.181-.787a7.45 7.45 0 00-.484-.998 15.74 15.74 0 00-.621-1.045 23.842 23.842 0 00-.65-.984l1.513-.998c.413.585.772 1.155 1.074 1.71.313.555.565 1.074.757 1.559.202.474.353.893.454 1.256.1.363.237.64.409.832.171.192.363.323.575.394.212.06.413.09.605.09.323 0 .555.086.696.258a.886.886 0 01.212.605c0 .252-.09.47-.272.651-.182.182-.44.272-.772.272-.404 0-.772-.06-1.105-.181a2.006 2.006 0 01-.832-.59c-.232-.273-.414-.626-.545-1.06l.802-.06c-.05.322-.202.63-.454.923-.242.292-.595.53-1.06.711-.453.182-1.039.273-1.755.273-.323 0-.666-.03-1.03-.091a6.91 6.91 0 01-1.028-.227 4.395 4.395 0 01-.878-.409l.696-1.59c.303.152.63.278.984.38.353.09.711.136 1.074.136zm11.997 1.83c-.444 0-.898-.055-1.362-.166a6.1 6.1 0 01-1.332-.5 5.169 5.169 0 01-1.15-.816 3.924 3.924 0 01-.802-1.105 3.197 3.197 0 01-.303-1.393c0-.454.096-.872.288-1.256.191-.383.469-.69.832-.923.373-.242.812-.363 1.317-.363.494 0 .918.126 1.27.378.364.242.642.56.833.954.202.383.303.787.303 1.21 0 .636-.166 1.201-.5 1.695-.322.485-.771.893-1.346 1.226-.565.333-1.201.586-1.907.757a9.203 9.203 0 01-2.18.257l.152-1.785c.565 0 1.059-.026 1.483-.076.434-.05.807-.131 1.12-.242.373-.131.68-.308.923-.53.242-.222.424-.46.545-.711.12-.263.181-.51.181-.742 0-.182-.03-.353-.09-.514a.92.92 0 00-.273-.394.626.626 0 00-.439-.166.763.763 0 00-.484.166.966.966 0 00-.303.409c-.07.171-.106.353-.106.544 0 .374.096.712.288 1.014.202.303.464.56.787.772.333.202.691.358 1.075.47.383.1.766.15 1.15.15.323 0 .555-.05.696-.15.151-.111.227-.273.227-.485a.963.963 0 00-.076-.333c-.04-.141-.146-.318-.318-.53-.161-.221-.418-.494-.771-.817a20.713 20.713 0 00-1.453-1.18 57.231 57.231 0 00-2.316-1.665l.984-1.377a52.19 52.19 0 012.588 1.937 21.58 21.58 0 011.65 1.453c.413.414.726.777.938 1.09.222.312.363.595.424.847.07.242.105.484.105.727 0 .423-.1.797-.302 1.12-.192.322-.484.58-.878.771-.394.182-.883.273-1.468.273zm8.766-.045c-.888 0-1.574-.09-2.058-.272-.474-.192-.807-.484-1-.878-.18-.403-.282-.918-.302-1.544l-.318-8.354h1.786l.318 7.552c.02.474.066.833.136 1.075a.77.77 0 00.485.5c.242.09.61.136 1.105.136.322 0 .554.085.696.257a.886.886 0 01.212.605c0 .252-.096.47-.288.651-.182.182-.439.272-.772.272zm.842 0l.151-1.785c.333 0 .6-.026.802-.076a.846.846 0 00.515-.363c.141-.202.267-.5.378-.893.111-.404.237-.959.379-1.665l1.65.348c-.03.161-.071.348-.122.56-.04.202-.075.414-.106.636-.03.212-.045.403-.045.575 0 .272.09.489.272.65.182.152.525.227 1.03.227.272 0 .504-.025.696-.075a.921.921 0 00.484-.379c.131-.191.247-.499.348-.923.101-.424.207-.999.318-1.725l1.68.288a24.042 24.042 0 00-.227 1.468c-.03.232-.046.423-.046.575 0 .13.036.257.106.378.071.121.207.217.409.288.202.07.499.105.893.105.272 0 .509-.035.711-.105a.893.893 0 00.485-.364c.111-.171.166-.403.166-.696 0-.383-.091-.873-.272-1.468a35.48 35.48 0 00-.591-1.846l1.786-.56c.152.393.288.822.409 1.286.121.454.217.903.287 1.347.081.434.122.817.122 1.15 0 .495-.076.934-.227 1.317a2.674 2.674 0 01-.606.953c-.262.253-.58.445-.953.576a3.725 3.725 0 01-1.241.196c-.545 0-.994-.055-1.347-.166-.343-.121-.606-.308-.787-.56-.182-.262-.303-.61-.364-1.044h.515c-.202.534-.424.928-.666 1.18a1.651 1.651 0 01-.878.484c-.343.071-.777.106-1.301.106-.303 0-.62-.035-.954-.106a1.786 1.786 0 01-.862-.514c-.243-.273-.414-.681-.515-1.226l.681-.06c-.192.564-.439.983-.742 1.256a2.393 2.393 0 01-1.059.53c-.404.08-.858.12-1.362.12zm7.386-8.974a.83.83 0 01-.606-.258.881.881 0 010-1.24.83.83 0 01.606-.258c.242 0 .444.086.605.257a.881.881 0 010 1.241.796.796 0 01-.605.257zm-1.136 1.876a.844.844 0 01-.62-.257.895.895 0 01-.257-.636c0-.232.085-.434.257-.605a.844.844 0 01.62-.257.83.83 0 01.606.257.83.83 0 01.257.605.899.899 0 01-.257.636.829.829 0 01-.606.257zm2.225 0a.827.827 0 01-.605-.257.895.895 0 01-.257-.636c0-.232.085-.434.257-.605a.827.827 0 01.605-.257c.242 0 .449.085.621.257a.83.83 0 01.257.605.899.899 0 01-.257.636.848.848 0 01-.621.257z" fill="#FFE040"/><g clip-path="url(#clip1_17023_848)"><path d="M110.016 32.17s5.57-4.811 9.989-14.935c4.42-10.125 4.154-17.464 4.154-17.464H-16.466s-5.57 4.811-9.988 14.935C-30.874 24.83-30.61 32.17-30.61 32.17h140.625z" fill="#1C1C1C"/></g><defs><clipPath id="clip0_17023_848"><path fill="#fff" d="M0 0h15.581v32.201H0z"/></clipPath><clipPath id="clip1_17023_848"><path fill="#fff" transform="rotate(-180 62.081 16.1)" d="M0 0h15.581v32.201H0z"/></clipPath></defs></svg>