<svg width="62" height="50" viewBox="0 0 62 50" fill="none" xmlns="http://www.w3.org/2000/svg"><path d="M50.349 34.167C45.3 45.835 45.61 54.294 45.61 54.294s6.375-5.544 11.432-17.207c5.05-11.665 4.739-20.127 4.739-20.127s-6.376 5.544-11.432 17.207z" fill="#FFE040"/><path d="M50.349 34.167C45.3 45.835 45.61 54.294 45.61 54.294s6.375-5.544 11.432-17.207c5.05-11.665 4.739-20.127 4.739-20.127s-6.376 5.544-11.432 17.207z" fill="url(#paint0_radial_10005_7049)"/><path d="M-34-20.105v78.83h54.717l-.03.09c-.726 5.822-.603 9.185-.603 9.185s6.606-5.747 14.262-17.651C33.13 57.1 33.28 61.177 33.28 61.177s9.99-8.686 17.913-26.959c7.91-18.28 7.426-31.538 7.426-31.538s-3.072 2.673-7.16 8.17C54.91-2.891 54.59-11.66 54.59-11.66s-2.556 2.224-6.332 6.77C50.854-17.979 50.561-26 50.561-26s-2.298 1.999-5.88 6.069l.03-.174H-34z" fill="#FFE040"/><path d="M-34-20.105v78.83h54.717l-.03.09c-.726 5.822-.603 9.185-.603 9.185s6.606-5.747 14.262-17.651C33.13 57.1 33.28 61.177 33.28 61.177s9.99-8.686 17.913-26.959c7.91-18.28 7.426-31.538 7.426-31.538s-3.072 2.673-7.16 8.17C54.91-2.891 54.59-11.66 54.59-11.66s-2.556 2.224-6.332 6.77C50.854-17.979 50.561-26 50.561-26s-2.298 1.999-5.88 6.069l.03-.174H-34z" fill="url(#paint1_radial_10005_7049)"/><defs><radialGradient id="paint0_radial_10005_7049" cx="0" cy="0" r="1" gradientTransform="matrix(-118.752 22.2568 -70.2798 -94.4345 138.239 9.03)" gradientUnits="userSpaceOnUse"><stop offset=".244" stop-color="#F2F2F2"/><stop offset=".62" stop-color="#FFEB84"/><stop offset="1" stop-color="#FFE040"/></radialGradient><radialGradient id="paint1_radial_10005_7049" cx="0" cy="0" r="1" gradientTransform="matrix(-118.752 22.2568 -70.2798 -94.4345 138.239 9.03)" gradientUnits="userSpaceOnUse"><stop offset=".244" stop-color="#F2F2F2"/><stop offset=".62" stop-color="#FFEB84"/><stop offset="1" stop-color="#FFE040"/></radialGradient></defs></svg>