<svg width="309" height="21" viewBox="0 0 309 21" fill="none" xmlns="http://www.w3.org/2000/svg"><g clip-path="url(#clip0_10005_7050)"><path d="M24.84 6.763h3.27c1.09 0 1.683.417 1.683 1.57 0 1.027-.72 1.587-1.682 1.587h-3.27V6.763zm-2.002 9.808h5.256c2.965 0 4.216-1.394 4.216-3.19 0-1.554-.754-2.644-2.148-2.949v-.031c1.043-.449 1.635-1.282 1.635-2.436 0-1.908-1.346-2.837-3.397-2.837h-5.562v11.443zm2.003-5.208h3.542c1.218 0 1.924.64 1.924 1.763 0 1.122-.706 1.81-1.924 1.81h-3.542v-3.573zM12.71 12.756c.048 2.837 2.163 4.088 4.775 4.088 2.276 0 4.552-1.026 4.552-3.59 0-1.186-.72-2.468-2.227-2.917-.593-.178-3.126-.834-3.302-.882-.817-.225-1.362-.673-1.362-1.474 0-1.154 1.17-1.49 2.1-1.49 1.378 0 2.371.545 2.467 2.019h2.003c0-2.389-2.003-3.654-4.392-3.654-2.066 0-4.182 1.073-4.182 3.365 0 1.185.576 2.372 2.533 2.9 1.57.434 2.611.642 3.412.946.465.176.946.528.946 1.41 0 .881-.657 1.73-2.42 1.73-1.602 0-2.9-.69-2.9-2.452H12.71v.001zm20.124 0c.048 2.837 2.164 4.088 4.775 4.088 2.276 0 4.552-1.026 4.552-3.59 0-1.186-.72-2.468-2.227-2.917-.593-.178-3.126-.834-3.301-.882-.818-.225-1.363-.673-1.363-1.474 0-1.154 1.17-1.49 2.1-1.49 1.379 0 2.372.545 2.467 2.019h2.004c0-2.389-2.004-3.654-4.39-3.654-2.069 0-4.184 1.073-4.184 3.365 0 1.185.577 2.372 2.533 2.9 1.571.434 2.612.642 3.413.946.465.176.946.528.946 1.41 0 .881-.657 1.73-2.42 1.73-1.602 0-2.9-.69-2.9-2.452h-2.003l-.002.001zM13.266 0s-3.091 2.68-5.744 8.305C9.12 4.17 9.015 1.267 9.015 1.267S6.773 3.213 4.822 7.292C5.955 4.294 5.88 2.203 5.88 2.203s-1.627 1.411-3.06 4.37c.803-2.172.75-3.68.75-3.68S2.165 4.113 1.05 6.675C-.067 9.24 0 11.097 0 11.097s1.138-.988 2.177-3.053c-1.184 3.064-1.106 5.214-1.106 5.214s1.582-1.374 3.001-4.248c-1.655 4.21-1.547 7.18-1.547 7.18s2.193-1.902 4.128-5.89c-2.306 5.778-2.157 9.866-2.157 9.866s3.454-2.994 6.194-9.295C13.43 4.568 13.266 0 13.266 0z" fill="#1C1C1C"/></g><g clip-path="url(#clip1_10005_7050)"><path d="M269.172 5.188s-1.946 1.68-3.489 5.218c-1.545 3.537-1.452 6.101-1.452 6.101h49.133s1.946-1.68 3.49-5.218c1.544-3.537 1.451-6.101 1.451-6.101h-49.133z" fill="#1C1C1C"/></g><path fill="#1C1C1C" d="M269.674 5.177h33v11.25h-33z"/><path d="M269.89 11.11h4.432v.566h-4.432v-.566zm1.846.36h.703v1.803h-.703V11.47zm-1.338-2.856h3.395v1.972h-3.395V8.614zm2.707.55h-2.014v.872h2.014v-.872zm3.062 2.062h.692v1.158h-.692v-1.158zm1.549 0h.687v1.153h-.687v-1.153zm-2.67.936h4.436v.571h-4.436v-.57zm.502-3.474h3.432v1.623h-2.729v.83h-.698v-1.38h2.729V9.25h-2.734v-.561zm.005 2.163h3.538v.56h-3.538v-.56zm7.93-2.195h.608v.355c0 .211-.03.417-.09.618a2.093 2.093 0 01-.254.56 2.231 2.231 0 01-.417.482 2.533 2.533 0 01-.561.365 2.834 2.834 0 01-.698.227l-.301-.587c.218-.039.417-.097.597-.174a2.052 2.052 0 00.83-.656 1.511 1.511 0 00.286-.835v-.355zm.137 0h.614v.355c0 .14.023.283.069.428a1.7 1.7 0 00.211.418c.095.13.212.25.349.36a2.25 2.25 0 001.084.46l-.301.586a2.834 2.834 0 01-.698-.227 2.641 2.641 0 01-.566-.365 2.325 2.325 0 01-.418-.476 2.22 2.22 0 01-.259-.566 2.295 2.295 0 01-.085-.618v-.355zm-1.956 3.443h4.436v.576h-4.436V12.1zm5.673-1.206h3.443v.555h-3.443v-.555zm-.518 1.248h4.437v.571h-4.437v-.571zm.518-3.41h3.406v.56h-2.692v1.755h-.714V8.73zm.497 1.078h2.798v.545h-2.798v-.545zm7.509-1.444h.708v4.913h-.708V8.365zm-3.104 3.2h.433c.289 0 .563-.004.82-.01.257-.011.509-.027.756-.048.247-.025.499-.06.756-.106l.074.566c-.394.07-.784.118-1.168.142a22.46 22.46 0 01-1.238.032h-.433v-.576zm-.011-2.782h2.311v1.899h-1.586v1.1h-.714v-1.656h1.586V9.35h-1.597v-.566zm5.145-.074h2.374v2.21h-2.374V8.71zm1.687.56h-.994v1.09h.994v-1.09zm1.433-.893h.703v2.877h-.703V8.376zm-.947 2.967c.342 0 .638.038.889.116.25.074.444.183.581.328a.723.723 0 01.206.518.724.724 0 01-.206.518c-.137.148-.331.26-.581.333a3.047 3.047 0 01-.894.117c-.342 0-.638-.04-.888-.117-.251-.074-.445-.185-.582-.333a.736.736 0 01-.201-.518c0-.201.067-.374.201-.518.137-.145.331-.254.582-.328.25-.078.548-.116.893-.116zm0 .544c-.211 0-.391.016-.539.048a.706.706 0 00-.328.137.286.286 0 00-.111.233.3.3 0 00.111.238.745.745 0 00.328.143c.148.028.328.042.539.042.212 0 .388-.014.529-.042a.745.745 0 00.328-.143.297.297 0 00.116-.238.282.282 0 00-.116-.233.706.706 0 00-.328-.137 2.463 2.463 0 00-.529-.048z" fill="#F865C9"/><path d="M269.89 11.11h4.432v.566h-4.432v-.566zm1.846.36h.703v1.803h-.703V11.47zm-1.338-2.856h3.395v1.972h-3.395V8.614zm2.707.55h-2.014v.872h2.014v-.872zm3.062 2.062h.692v1.158h-.692v-1.158zm1.549 0h.687v1.153h-.687v-1.153zm-2.67.936h4.436v.571h-4.436v-.57zm.502-3.474h3.432v1.623h-2.729v.83h-.698v-1.38h2.729V9.25h-2.734v-.561zm.005 2.163h3.538v.56h-3.538v-.56zm7.93-2.195h.608v.355c0 .211-.03.417-.09.618a2.093 2.093 0 01-.254.56 2.231 2.231 0 01-.417.482 2.533 2.533 0 01-.561.365 2.834 2.834 0 01-.698.227l-.301-.587c.218-.039.417-.097.597-.174a2.052 2.052 0 00.83-.656 1.511 1.511 0 00.286-.835v-.355zm.137 0h.614v.355c0 .14.023.283.069.428a1.7 1.7 0 00.211.418c.095.13.212.25.349.36a2.25 2.25 0 001.084.46l-.301.586a2.834 2.834 0 01-.698-.227 2.641 2.641 0 01-.566-.365 2.325 2.325 0 01-.418-.476 2.22 2.22 0 01-.259-.566 2.295 2.295 0 01-.085-.618v-.355zm-1.956 3.443h4.436v.576h-4.436V12.1zm5.673-1.206h3.443v.555h-3.443v-.555zm-.518 1.248h4.437v.571h-4.437v-.571zm.518-3.41h3.406v.56h-2.692v1.755h-.714V8.73zm.497 1.078h2.798v.545h-2.798v-.545zm7.509-1.444h.708v4.913h-.708V8.365zm-3.104 3.2h.433c.289 0 .563-.004.82-.01.257-.011.509-.027.756-.048.247-.025.499-.06.756-.106l.074.566c-.394.07-.784.118-1.168.142a22.46 22.46 0 01-1.238.032h-.433v-.576zm-.011-2.782h2.311v1.899h-1.586v1.1h-.714v-1.656h1.586V9.35h-1.597v-.566zm5.145-.074h2.374v2.21h-2.374V8.71zm1.687.56h-.994v1.09h.994v-1.09zm1.433-.893h.703v2.877h-.703V8.376zm-.947 2.967c.342 0 .638.038.889.116.25.074.444.183.581.328a.723.723 0 01.206.518.724.724 0 01-.206.518c-.137.148-.331.26-.581.333a3.047 3.047 0 01-.894.117c-.342 0-.638-.04-.888-.117-.251-.074-.445-.185-.582-.333a.736.736 0 01-.201-.518c0-.201.067-.374.201-.518.137-.145.331-.254.582-.328.25-.078.548-.116.893-.116zm0 .544c-.211 0-.391.016-.539.048a.706.706 0 00-.328.137.286.286 0 00-.111.233.3.3 0 00.111.238.745.745 0 00.328.143c.148.028.328.042.539.042.212 0 .388-.014.529-.042a.745.745 0 00.328-.143.297.297 0 00.116-.238.282.282 0 00-.116-.233.706.706 0 00-.328-.137 2.463 2.463 0 00-.529-.048z" fill="#FFE040"/><g clip-path="url(#clip2_10005_7050)"><path d="M303.175 16.416s1.946-1.68 3.49-5.218c1.544-3.537 1.451-6.101 1.451-6.101h-49.132s-1.947 1.68-3.49 5.218c-1.545 3.537-1.452 6.101-1.452 6.101h49.133z" fill="#1C1C1C"/></g><defs><clipPath id="clip0_10005_7050"><path fill="#fff" d="M0 0h42.161v20.166H0z"/></clipPath><clipPath id="clip1_10005_7050"><path fill="#fff" transform="translate(264.23 5.177)" d="M0 0h5.444v11.251H0z"/></clipPath><clipPath id="clip2_10005_7050"><path fill="#fff" transform="rotate(-180 154.059 8.214)" d="M0 0h5.444v11.251H0z"/></clipPath></defs></svg>