<svg width="119" height="28" viewBox="0 0 119 28" fill="none" xmlns="http://www.w3.org/2000/svg"><g clip-path="url(#clip0_16044_4999)"><path d="M15.645.026s-4.663 4.029-8.363 12.505c-3.701 8.478-3.478 14.622-3.478 14.622h117.743s4.663-4.028 8.363-12.504C133.611 6.17 133.389.026 133.389.026H15.645z" fill="#1C1C1C"/></g><path fill="#1C1C1C" d="M16.846 0h84v26.962h-84z"/><path d="M28.266 14.6h1.56v5.28c0 .28.053.468.16.56.12.08.393.12.82.12h2.82c.267 0 .467-.06.6-.18.133-.133.227-.4.28-.8.053-.412.087-1.02.1-1.82.12.08.26.16.42.24.173.08.347.154.52.22.187.054.347.1.48.14-.053.96-.153 1.7-.3 2.22-.147.534-.373.9-.68 1.1-.307.2-.74.3-1.3.3h-3.1c-.627 0-1.113-.06-1.46-.18a1.223 1.223 0 01-.72-.64c-.133-.306-.2-.733-.2-1.28V14.6zm-4.78.16h1.58c-.107.92-.28 1.76-.52 2.52s-.6 1.447-1.08 2.06c-.48.6-1.127 1.128-1.94 1.58-.813.467-1.84.854-3.08 1.16a2.462 2.462 0 00-.24-.44 9.542 9.542 0 00-.3-.48 1.6 1.6 0 00-.34-.38c1.147-.253 2.08-.566 2.8-.94.733-.386 1.307-.826 1.72-1.32a4.99 4.99 0 00.94-1.68c.2-.626.353-1.32.46-2.08zm2.58-5.6h1.46v5.12h-1.46V9.16zm-2.68-5.54l1.66.32a21.528 21.528 0 01-1.6 2.34c-.6.787-1.293 1.554-2.08 2.3a19.259 19.259 0 01-2.66 2.06 2.79 2.79 0 00-.28-.4 3.95 3.95 0 00-.4-.42 2.133 2.133 0 00-.36-.3 17.749 17.749 0 002.46-1.86 16.985 16.985 0 001.92-2.04 13.42 13.42 0 001.34-2zM21.246 10v3.64h11.6V10h-11.6zm-1.48-1.36h14.64V15h-14.64V8.64zm9.08-3.44h.34l.24-.06 1.04.66c-.24.44-.527.9-.86 1.38-.333.48-.68.94-1.04 1.38-.36.44-.713.827-1.06 1.16a9.452 9.452 0 00-.54-.36 4.03 4.03 0 00-.58-.34 15.349 15.349 0 001.82-2.36c.267-.426.48-.813.64-1.16v-.3zm-5.8 0h6.24v1.26h-7.04l.8-1.26zm18.42 1.72h12.56V5.8h-13.92V4.78h15.3v3.14h-13.94v-1zm-.46 0h1.42a48.284 48.284 0 01-.62 1.78c-.213.6-.407 1.12-.58 1.56l-1.4-.08c.2-.453.407-.973.62-1.56.213-.6.4-1.166.56-1.7zm-.1 2.08h14.84v1h-15.14l.3-1zm14.34 0h1.42l-.02.18v.32c-.067.614-.14 1.088-.22 1.42-.08.32-.2.554-.36.7-.12.12-.267.214-.44.28-.16.054-.34.088-.54.1h-.76l-1-.04a2.765 2.765 0 00-.1-.5c-.053-.2-.12-.366-.2-.5.32.027.607.047.86.06.253.014.433.02.54.02.12 0 .213-.006.28-.02a.31.31 0 00.18-.12c.08-.08.147-.246.2-.5.067-.266.12-.673.16-1.22V9zm-10.24-5.32h1.38v3.6a7.12 7.12 0 01-.24 1.88c-.147.588-.447 1.134-.9 1.64-.44.494-1.1.94-1.98 1.34-.867.4-2.027.74-3.48 1.02-.04-.12-.1-.252-.18-.4a4.458 4.458 0 00-.26-.42 2.124 2.124 0 00-.28-.36c1.333-.24 2.393-.526 3.18-.86.787-.332 1.38-.7 1.78-1.1.4-.4.66-.832.78-1.3.133-.466.2-.953.2-1.46V3.68zm4.48 0h1.44v7.82h-1.44V3.68zm-6.44 11v1.24h10.04v-1.24h-10.04zm0 2.18v1.26h10.04v-1.26h-10.04zm0-4.34v1.24h10.04v-1.24h-10.04zm-1.46-.96h13.02v7.54h-13.02v-7.54zm7.98 8.54l1.2-.8c.733.2 1.48.42 2.24.66.76.227 1.473.454 2.14.68.68.24 1.26.46 1.74.66l-1.6.8a20.42 20.42 0 00-1.56-.64c-.6-.226-1.26-.46-1.98-.7a34.7 34.7 0 00-2.18-.66zm-4.6-.82l1.34.62c-.533.294-1.16.58-1.88.86s-1.453.54-2.2.78c-.733.24-1.44.44-2.12.6a2.818 2.818 0 00-.3-.38 12.416 12.416 0 00-.42-.4 7.67 7.67 0 00-.36-.34c.693-.133 1.4-.293 2.12-.48a28.061 28.061 0 002.1-.58c.667-.213 1.24-.44 1.72-.68zm17.02-3.82h6.96v1h-6.96v-1zm0 2.18h6.96v1h-6.96v-1zm-.1 2.18h7.54v1.12h-7.54v-1.12zm-1.86-14.8h9.54v1.14h-9.54V5.02zm4.62 8.8h1.28v6.7h-1.28v-6.7zm-2.44-10.1h1.32v3.72h-1.32V3.72zm3.98 0h1.3v3.72h-1.3V3.72zm-4.6 5.14v1.7h1.68v-1.7h-1.68zm-1.08-1h3.86v3.7h-3.86v-3.7zm5.8 1v1.7h1.82v-1.7h-1.82zm-1.04-1h3.98v3.7h-3.98v-3.7zm-2.76 5.36h6.86v1.08h-6.86v7.6h-1.24v-7.72l.88-.96h.36zm3.02-1.72l1.28.34c-.2.387-.4.78-.6 1.18-.187.4-.36.748-.52 1.04l-1-.32a12.928 12.928 0 00.84-2.24zm-3.38-.06l1.16.3c-.333 1-.767 1.974-1.3 2.92-.533.947-1.107 1.754-1.72 2.42-.053-.08-.127-.186-.22-.32a4.204 4.204 0 00-.3-.38 1.719 1.719 0 00-.28-.32c.56-.572 1.067-1.266 1.52-2.08.467-.813.847-1.66 1.14-2.54zM71.606 9v2.04h4.44V9h-4.44zm0 3.24v2.06h4.44v-2.06h-4.44zm0-6.46V7.8h4.44V5.78h-4.44zm-1.32-1.32h7.14V15.6h-7.14V4.46zm3.9 10.76h1.32V20c0 .2.02.334.06.4.053.068.153.1.3.1h.92a.27.27 0 00.26-.16c.067-.12.113-.366.14-.74.04-.373.06-.953.06-1.74.133.12.32.227.56.32.24.094.447.168.62.22-.027.894-.093 1.588-.2 2.08-.093.48-.247.808-.46.98-.2.188-.473.28-.82.28h-1.28c-.4 0-.707-.052-.92-.16-.213-.092-.36-.266-.44-.52-.08-.252-.12-.606-.12-1.06v-4.78zm-2.6.16h1.3c-.053 1.12-.193 2.107-.42 2.96-.213.854-.573 1.587-1.08 2.2-.493.614-1.213 1.128-2.16 1.54a3.82 3.82 0 00-.38-.58c-.16-.226-.313-.4-.46-.52.853-.32 1.5-.733 1.94-1.24.44-.506.747-1.12.92-1.84.173-.72.287-1.56.34-2.52zm13.76-2.8h11.66v9.54h-1.5v-8.34h-8.72v8.34h-1.44v-9.54zm-4.02-2.64h17.64v1.24h-17.64V9.94zm1.46-2.7h15.02v1.2h-15.02v-1.2zm3.52 7.9h9.82v1.06h-9.82v-1.06zm0 2.46h9.82v1.04h-9.82V17.6zm-.14 2.52h9.96v1.2h-9.96v-1.2zm10.5-16.28l.96 1.08c-.933.188-1.993.348-3.18.48-1.187.134-2.44.24-3.76.32-1.32.08-2.653.147-4 .2-1.347.04-2.64.06-3.88.06a3.01 3.01 0 00-.12-.58 3.783 3.783 0 00-.18-.58c1.213-.013 2.48-.04 3.8-.08 1.333-.04 2.64-.1 3.92-.18 1.28-.08 2.473-.18 3.58-.3 1.107-.12 2.06-.26 2.86-.42zm-8.2 1.36l1.56.34c-.453 1.6-1.04 3.16-1.76 4.68a18.87 18.87 0 01-2.66 4.16 15.115 15.115 0 01-3.84 3.24 3.847 3.847 0 00-.28-.38 3.851 3.851 0 00-.34-.44 9.574 9.574 0 00-.34-.36c1.427-.813 2.64-1.813 3.64-3a16.896 16.896 0 002.5-3.9 23.641 23.641 0 001.52-4.34z" fill="#FFE040"/><g clip-path="url(#clip1_16044_4999)"><path d="M102.048 26.935s4.663-4.028 8.363-12.504c3.701-8.478 3.478-14.623 3.478-14.623H-3.854s-4.664 4.029-8.363 12.505c-3.701 8.478-3.479 14.622-3.479 14.622h117.744z" fill="#1C1C1C"/></g><defs><clipPath id="clip0_16044_4999"><path fill="#fff" transform="translate(3.8)" d="M0 0h13.046v26.962H0z"/></clipPath><clipPath id="clip1_16044_4999"><path fill="#fff" transform="rotate(-180 56.946 13.48)" d="M0 0h13.046v26.962H0z"/></clipPath></defs></svg>