<svg width="123" height="59" viewBox="0 0 123 59" fill="none" xmlns="http://www.w3.org/2000/svg"><g clip-path="url(#clip0_16041_1420)"><path d="M72.2 19.657h9.503c3.168 0 4.89 1.211 4.89 4.565 0 2.982-2.095 4.61-4.89 4.61h-9.504v-9.175zm-5.822 28.506h15.277c8.617 0 12.252-4.05 12.252-9.27 0-4.518-2.19-7.686-6.24-8.573v-.09c3.028-1.304 4.75-3.727 4.75-7.081 0-5.544-3.911-8.244-9.875-8.244H66.378v33.258zM72.2 33.025h10.296c3.54 0 5.59 1.86 5.59 5.124 0 3.263-2.05 5.262-5.59 5.262H72.199V33.025zm-35.258 4.05c.139 8.245 6.288 11.88 13.88 11.88 6.612 0 13.229-2.982 13.229-10.434 0-3.445-2.095-7.171-6.474-8.478-1.723-.515-9.084-2.423-9.595-2.562-2.376-.653-3.96-1.956-3.96-4.285 0-3.353 3.402-4.332 6.102-4.332 4.008 0 6.894 1.584 7.171 5.869h5.821c0-6.942-5.82-10.62-12.762-10.62-6.007 0-12.157 3.12-12.157 9.78 0 3.445 1.675 6.895 7.362 8.43 4.565 1.26 7.59 1.866 9.919 2.749 1.35.51 2.748 1.536 2.748 4.098s-1.909 5.03-7.033 5.03c-4.656 0-8.43-2.004-8.43-7.128H36.94v.004zm58.49 0c.139 8.245 6.288 11.88 13.879 11.88 6.613 0 13.23-2.982 13.23-10.434 0-3.445-2.095-7.171-6.474-8.478-1.723-.515-9.084-2.423-9.595-2.562-2.376-.653-3.96-1.956-3.96-4.285 0-3.353 3.402-4.332 6.102-4.332 4.008 0 6.894 1.584 7.172 5.869h5.825c0-6.942-5.825-10.62-12.763-10.62-6.011 0-12.156 3.12-12.156 9.78 0 3.445 1.674 6.895 7.361 8.43 4.565 1.26 7.591 1.866 9.919 2.749 1.35.51 2.748 1.536 2.748 4.098s-1.908 5.03-7.032 5.03c-4.657 0-8.431-2.004-8.431-7.128h-5.82l-.005.004zM38.557 0s-8.985 7.789-16.695 24.139c4.645-12.022 4.34-20.456 4.34-20.456s-6.518 5.654-12.188 17.51c3.294-8.712 3.076-14.79 3.076-14.79s-4.727 4.102-8.893 12.7C10.529 12.79 10.375 8.41 10.375 8.41s-4.083 3.54-7.322 10.988C-.194 26.851 0 32.253 0 32.253s3.306-2.871 6.328-8.874c-3.441 8.905-3.216 15.154-3.216 15.154s4.598-3.992 8.724-12.347c-4.811 12.24-4.498 20.868-4.498 20.868s6.375-5.528 11.998-17.118c-6.7 16.794-6.269 28.677-6.269 28.677s10.038-8.704 18.002-27.018C39.036 13.277 38.557 0 38.557 0z" fill="#1C1C1C"/></g><defs><clipPath id="clip0_16041_1420"><path fill="#fff" d="M0 0h122.54v58.613H0z"/></clipPath></defs></svg>