<svg width="63" height="50" viewBox="0 0 63 50" fill="none" xmlns="http://www.w3.org/2000/svg"><path d="M50.654 34.385c-5.066 11.71-4.756 20.2-4.756 20.2s6.398-5.564 11.473-17.27c5.068-11.707 4.756-20.2 4.756-20.2s-6.398 5.565-11.473 17.27z" fill="#FFE040"/><path d="M50.654 34.385c-5.066 11.71-4.756 20.2-4.756 20.2s6.398-5.564 11.473-17.27c5.068-11.707 4.756-20.2 4.756-20.2s-6.398 5.565-11.473 17.27z" fill="url(#paint0_radial_10005_7049)"/><path d="M-34-20.084v79.115h54.915l-.03.09c-.729 5.843-.605 9.219-.605 9.219s6.63-5.768 14.314-17.715c-1.221 6.776-1.071 10.867-1.071 10.867S43.548 52.775 51.5 34.436c7.938-18.347 7.453-31.652 7.453-31.652s-3.084 2.682-7.187 8.2c3.465-13.791 3.143-22.592 3.143-22.592s-2.565 2.232-6.354 6.794C51.161-17.949 50.866-26 50.866-26s-2.305 2.006-5.9 6.09l.029-.174H-34z" fill="#FFE040"/><path d="M-34-20.084v79.115h54.915l-.03.09c-.729 5.843-.605 9.219-.605 9.219s6.63-5.768 14.314-17.715c-1.221 6.776-1.071 10.867-1.071 10.867S43.548 52.775 51.5 34.436c7.938-18.347 7.453-31.652 7.453-31.652s-3.084 2.682-7.187 8.2c3.465-13.791 3.143-22.592 3.143-22.592s-2.565 2.232-6.354 6.794C51.161-17.949 50.866-26 50.866-26s-2.305 2.006-5.9 6.09l.029-.174H-34z" fill="url(#paint1_radial_10005_7049)"/><defs><radialGradient id="paint0_radial_10005_7049" cx="0" cy="0" r="1" gradientTransform="matrix(-119.181 22.3372 -70.5338 -94.7759 138.862 9.157)" gradientUnits="userSpaceOnUse"><stop offset=".244" stop-color="#F2F2F2"/><stop offset=".62" stop-color="#FFEB84"/><stop offset="1" stop-color="#FFE040"/></radialGradient><radialGradient id="paint1_radial_10005_7049" cx="0" cy="0" r="1" gradientTransform="matrix(-119.181 22.3372 -70.5338 -94.7759 138.862 9.157)" gradientUnits="userSpaceOnUse"><stop offset=".244" stop-color="#F2F2F2"/><stop offset=".62" stop-color="#FFEB84"/><stop offset="1" stop-color="#FFE040"/></radialGradient></defs></svg>