<svg width="306" height="21" viewBox="0 0 306 21" fill="none" xmlns="http://www.w3.org/2000/svg"><g clip-path="url(#clip0_10005_7050)"><path d="M24.841 6.763h3.27c1.09 0 1.682.417 1.682 1.57 0 1.027-.72 1.587-1.682 1.587h-3.27V6.763zm-2.003 9.808h5.256c2.965 0 4.216-1.394 4.216-3.19 0-1.554-.754-2.644-2.147-2.949v-.031c1.042-.449 1.634-1.282 1.634-2.436 0-1.908-1.346-2.837-3.397-2.837h-5.562v11.443zm2.003-5.208h3.542c1.218 0 1.924.64 1.924 1.763 0 1.122-.706 1.81-1.924 1.81h-3.542v-3.573zM12.71 12.756c.048 2.837 2.163 4.088 4.775 4.088 2.276 0 4.552-1.026 4.552-3.59 0-1.186-.72-2.468-2.227-2.917-.593-.178-3.126-.834-3.302-.882-.817-.225-1.362-.673-1.362-1.474 0-1.154 1.17-1.49 2.1-1.49 1.378 0 2.372.545 2.467 2.019h2.003c0-2.389-2.003-3.654-4.392-3.654-2.066 0-4.182 1.073-4.182 3.365 0 1.185.576 2.372 2.533 2.9 1.57.434 2.611.642 3.412.946.465.176.946.528.946 1.41 0 .881-.657 1.73-2.42 1.73-1.602 0-2.9-.69-2.9-2.452H12.71v.001zm20.124 0c.048 2.837 2.164 4.088 4.776 4.088 2.275 0 4.551-1.026 4.551-3.59 0-1.186-.72-2.468-2.227-2.917-.593-.178-3.125-.834-3.301-.882-.818-.225-1.363-.673-1.363-1.474 0-1.154 1.17-1.49 2.1-1.49 1.379 0 2.372.545 2.467 2.019h2.004c0-2.389-2.004-3.654-4.39-3.654-2.069 0-4.184 1.073-4.184 3.365 0 1.185.577 2.372 2.533 2.9 1.571.434 2.612.642 3.413.946.465.176.946.528.946 1.41 0 .881-.657 1.73-2.42 1.73-1.602 0-2.9-.69-2.9-2.452h-2.003l-.002.001zM13.266 0s-3.091 2.68-5.744 8.305C9.12 4.17 9.015 1.267 9.015 1.267S6.773 3.213 4.822 7.292C5.955 4.294 5.88 2.203 5.88 2.203s-1.627 1.411-3.06 4.37c.803-2.172.75-3.68.75-3.68S2.165 4.113 1.05 6.675C-.067 9.24 0 11.097 0 11.097s1.138-.988 2.177-3.053c-1.184 3.064-1.106 5.214-1.106 5.214s1.582-1.374 3.001-4.248c-1.655 4.21-1.547 7.18-1.547 7.18s2.193-1.902 4.128-5.89c-2.305 5.778-2.157 9.866-2.157 9.866s3.454-2.994 6.194-9.295C13.43 4.568 13.266 0 13.266 0z" fill="#1C1C1C"/></g><g clip-path="url(#clip1_10005_7050)"><path d="M269.173 5.188s-1.946 1.68-3.49 5.218c-1.545 3.537-1.452 6.101-1.452 6.101h49.133s1.946-1.68 3.49-5.218c1.544-3.537 1.451-6.101 1.451-6.101h-49.132z" fill="#1C1C1C"/></g><path fill="#1C1C1C" d="M269.674 5.177h30v11.25h-30z"/><path d="M273.671 11.244h.546v1.848c0 .098.018.163.056.196.042.028.137.042.287.042H275.547c.093 0 .163-.021.21-.063.046-.047.079-.14.098-.28.018-.145.03-.357.035-.637.042.028.091.056.147.084.06.028.121.054.182.077l.168.049a3.847 3.847 0 01-.105.777c-.052.187-.131.315-.238.385-.108.07-.259.105-.455.105H274.504c-.22 0-.39-.021-.511-.063a.426.426 0 01-.252-.224 1.147 1.147 0 01-.07-.448v-1.848zm-1.673.056h.553a4.8 4.8 0 01-.182.882c-.084.266-.21.506-.378.721-.168.21-.395.394-.679.553a4.21 4.21 0 01-1.078.406 3.857 3.857 0 00-.189-.322.575.575 0 00-.119-.133c.401-.089.728-.198.98-.329.256-.135.457-.29.602-.462.149-.177.259-.373.329-.588.07-.22.123-.462.161-.728zm.903-1.96h.511v1.792h-.511V9.34zm-.938-1.939l.581.112a7.674 7.674 0 01-1.288 1.624 6.799 6.799 0 01-.931.721 1.031 1.031 0 00-.098-.14 1.413 1.413 0 00-.14-.147.772.772 0 00-.126-.105 6.05 6.05 0 001.533-1.365c.196-.247.352-.48.469-.7zm-.749 2.233v1.274h4.06V9.634h-4.06zm-.518-.476h5.124v2.226h-5.124V9.158zm3.178-1.204h.119l.084-.021.364.231a5.461 5.461 0 01-.301.483 7.812 7.812 0 01-.364.483c-.126.154-.25.29-.371.406a3.858 3.858 0 00-.189-.126 1.465 1.465 0 00-.203-.119 5.538 5.538 0 00.637-.826c.093-.15.168-.285.224-.406v-.105zm-2.03 0h2.184v.441h-2.464l.28-.441zm6.447.602h4.396v-.392h-4.872v-.357h5.355v1.099h-4.879v-.35zm-.161 0h.497c-.066.2-.138.408-.217.623-.075.21-.143.392-.203.546l-.49-.028c.07-.159.142-.34.217-.546.074-.21.14-.408.196-.595zm-.035.728h5.194v.35h-5.299l.105-.35zm5.019 0h.497l-.007.063v.112a4.36 4.36 0 01-.077.497.485.485 0 01-.126.245.441.441 0 01-.154.098.756.756 0 01-.189.035h-.266l-.35-.014a1.058 1.058 0 00-.105-.35 9.924 9.924 0 00.49.028.533.533 0 00.098-.007.11.11 0 00.063-.042c.028-.028.051-.086.07-.175.023-.093.042-.236.056-.427v-.063zm-3.584-1.862h.483v1.26c0 .233-.028.453-.084.658a1.362 1.362 0 01-.315.574c-.154.173-.385.329-.693.469-.304.14-.71.259-1.218.357a.875.875 0 00-.063-.14 1.712 1.712 0 00-.189-.273c.466-.084.837-.184 1.113-.301.275-.117.483-.245.623-.385a.994.994 0 00.273-.455c.046-.163.07-.334.07-.511V7.422zm1.568 0h.504v2.737h-.504V7.422zm-2.254 3.85v.434h3.514v-.434h-3.514zm0 .763v.441h3.514v-.441h-3.514zm0-1.519v.434h3.514v-.434h-3.514zm-.511-.336h4.557v2.639h-4.557V10.18zm2.793 2.989l.42-.28a21 21 0 01.784.231c.266.08.515.159.749.238.238.084.441.161.609.231l-.56.28a7.357 7.357 0 00-.546-.224 18.79 18.79 0 00-.693-.245 12.343 12.343 0 00-.763-.231zm-1.61-.287l.469.217a5.56 5.56 0 01-.658.301c-.252.098-.509.189-.77.273a9.105 9.105 0 01-.742.21 1.102 1.102 0 00-.105-.133 4.98 4.98 0 00-.147-.14 3.008 3.008 0 00-.126-.119c.242-.047.49-.103.742-.168.256-.06.501-.128.735-.203a4.28 4.28 0 00.602-.238zm5.957-1.337h2.436v.35h-2.436v-.35zm0 .763h2.436v.35h-2.436v-.35zm-.035.763h2.639v.392h-2.639v-.392zm-.651-5.18h3.339v.399h-3.339v-.399zm1.617 3.08h.448v2.345h-.448v-2.345zm-.854-3.535h.462v1.302h-.462V7.436zm1.393 0h.455v1.302h-.455V7.436zm-1.61 1.799v.595h.588v-.595h-.588zm-.378-.35h1.351v1.295h-1.351V8.885zm2.03.35v.595h.637v-.595h-.637zm-.364-.35h1.393v1.295h-1.393V8.885zm-.966 1.876h2.401v.378h-2.401v2.66h-.434v-2.702l.308-.336h.126zm1.057-.602l.448.119c-.07.135-.14.273-.21.413-.066.14-.126.261-.182.364l-.35-.112a4.53 4.53 0 00.294-.784zm-1.183-.021l.406.105c-.117.35-.269.69-.455 1.022a4.574 4.574 0 01-.602.847l-.077-.112a1.583 1.583 0 00-.105-.133.637.637 0 00-.098-.112c.196-.2.373-.443.532-.728.163-.285.296-.581.399-.889zm3.311-.854v.714h1.554v-.714h-1.554zm0 1.134v.721h1.554v-.721h-1.554zm0-2.261v.707h1.554v-.707h-1.554zm-.462-.462h2.499v3.899h-2.499V7.695zm1.365 3.766h.462v1.673c0 .07.007.117.021.14.018.023.053.035.105.035H290.653a.095.095 0 00.091-.056.752.752 0 00.049-.259c.014-.13.021-.334.021-.609a.63.63 0 00.196.112c.084.033.156.058.217.077-.01.313-.033.555-.07.728-.033.168-.087.282-.161.343a.405.405 0 01-.287.098h-.448a.737.737 0 01-.322-.056.276.276 0 01-.154-.182 1.286 1.286 0 01-.042-.371v-1.673zm-.91.056h.455a5.029 5.029 0 01-.147 1.036 1.93 1.93 0 01-.378.77c-.173.215-.425.394-.756.539a1.387 1.387 0 00-.133-.203.934.934 0 00-.161-.182c.298-.112.525-.257.679-.434.154-.177.261-.392.322-.644.06-.252.1-.546.119-.882zm4.816-.98h4.081v3.339h-.525v-2.919h-3.052v2.919h-.504v-3.339zm-1.407-.924h6.174v.434h-6.174v-.434zm.511-.945h5.257v.42h-5.257v-.42zm1.232 2.765h3.437v.371h-3.437v-.371zm0 .861h3.437v.364h-3.437v-.364zm-.049.882h3.486v.42h-3.486v-.42zm3.675-5.698l.336.378c-.327.065-.698.121-1.113.168-.416.047-.854.084-1.316.112-.462.028-.929.051-1.4.07-.472.014-.924.021-1.358.021a1.103 1.103 0 00-.042-.203 1.397 1.397 0 00-.063-.203 69.14 69.14 0 001.33-.028c.466-.014.924-.035 1.372-.063.448-.028.865-.063 1.253-.105.387-.042.721-.091 1.001-.147zm-2.87.476l.546.119c-.159.56-.364 1.106-.616 1.638a6.64 6.64 0 01-.931 1.456 5.315 5.315 0 01-1.344 1.134 1.457 1.457 0 00-.098-.133 1.428 1.428 0 00-.119-.154 3.545 3.545 0 00-.119-.126 4.682 4.682 0 001.274-1.05c.354-.415.646-.87.875-1.365a8.324 8.324 0 00.532-1.519z" fill="#F865C9"/><path d="M273.671 11.244h.546v1.848c0 .098.018.163.056.196.042.028.137.042.287.042H275.547c.093 0 .163-.021.21-.063.046-.047.079-.14.098-.28.018-.145.03-.357.035-.637.042.028.091.056.147.084.06.028.121.054.182.077l.168.049a3.847 3.847 0 01-.105.777c-.052.187-.131.315-.238.385-.108.07-.259.105-.455.105H274.504c-.22 0-.39-.021-.511-.063a.426.426 0 01-.252-.224 1.147 1.147 0 01-.07-.448v-1.848zm-1.673.056h.553a4.8 4.8 0 01-.182.882c-.084.266-.21.506-.378.721-.168.21-.395.394-.679.553a4.21 4.21 0 01-1.078.406 3.857 3.857 0 00-.189-.322.575.575 0 00-.119-.133c.401-.089.728-.198.98-.329.256-.135.457-.29.602-.462.149-.177.259-.373.329-.588.07-.22.123-.462.161-.728zm.903-1.96h.511v1.792h-.511V9.34zm-.938-1.939l.581.112a7.674 7.674 0 01-1.288 1.624 6.799 6.799 0 01-.931.721 1.031 1.031 0 00-.098-.14 1.413 1.413 0 00-.14-.147.772.772 0 00-.126-.105 6.05 6.05 0 001.533-1.365c.196-.247.352-.48.469-.7zm-.749 2.233v1.274h4.06V9.634h-4.06zm-.518-.476h5.124v2.226h-5.124V9.158zm3.178-1.204h.119l.084-.021.364.231a5.461 5.461 0 01-.301.483 7.812 7.812 0 01-.364.483c-.126.154-.25.29-.371.406a3.858 3.858 0 00-.189-.126 1.465 1.465 0 00-.203-.119 5.538 5.538 0 00.637-.826c.093-.15.168-.285.224-.406v-.105zm-2.03 0h2.184v.441h-2.464l.28-.441zm6.447.602h4.396v-.392h-4.872v-.357h5.355v1.099h-4.879v-.35zm-.161 0h.497c-.066.2-.138.408-.217.623-.075.21-.143.392-.203.546l-.49-.028c.07-.159.142-.34.217-.546.074-.21.14-.408.196-.595zm-.035.728h5.194v.35h-5.299l.105-.35zm5.019 0h.497l-.007.063v.112a4.36 4.36 0 01-.077.497.485.485 0 01-.126.245.441.441 0 01-.154.098.756.756 0 01-.189.035h-.266l-.35-.014a1.058 1.058 0 00-.105-.35 9.924 9.924 0 00.49.028.533.533 0 00.098-.007.11.11 0 00.063-.042c.028-.028.051-.086.07-.175.023-.093.042-.236.056-.427v-.063zm-3.584-1.862h.483v1.26c0 .233-.028.453-.084.658a1.362 1.362 0 01-.315.574c-.154.173-.385.329-.693.469-.304.14-.71.259-1.218.357a.875.875 0 00-.063-.14 1.712 1.712 0 00-.189-.273c.466-.084.837-.184 1.113-.301.275-.117.483-.245.623-.385a.994.994 0 00.273-.455c.046-.163.07-.334.07-.511V7.422zm1.568 0h.504v2.737h-.504V7.422zm-2.254 3.85v.434h3.514v-.434h-3.514zm0 .763v.441h3.514v-.441h-3.514zm0-1.519v.434h3.514v-.434h-3.514zm-.511-.336h4.557v2.639h-4.557V10.18zm2.793 2.989l.42-.28a21 21 0 01.784.231c.266.08.515.159.749.238.238.084.441.161.609.231l-.56.28a7.357 7.357 0 00-.546-.224 18.79 18.79 0 00-.693-.245 12.343 12.343 0 00-.763-.231zm-1.61-.287l.469.217a5.56 5.56 0 01-.658.301c-.252.098-.509.189-.77.273a9.105 9.105 0 01-.742.21 1.102 1.102 0 00-.105-.133 4.98 4.98 0 00-.147-.14 3.008 3.008 0 00-.126-.119c.242-.047.49-.103.742-.168.256-.06.501-.128.735-.203a4.28 4.28 0 00.602-.238zm5.957-1.337h2.436v.35h-2.436v-.35zm0 .763h2.436v.35h-2.436v-.35zm-.035.763h2.639v.392h-2.639v-.392zm-.651-5.18h3.339v.399h-3.339v-.399zm1.617 3.08h.448v2.345h-.448v-2.345zm-.854-3.535h.462v1.302h-.462V7.436zm1.393 0h.455v1.302h-.455V7.436zm-1.61 1.799v.595h.588v-.595h-.588zm-.378-.35h1.351v1.295h-1.351V8.885zm2.03.35v.595h.637v-.595h-.637zm-.364-.35h1.393v1.295h-1.393V8.885zm-.966 1.876h2.401v.378h-2.401v2.66h-.434v-2.702l.308-.336h.126zm1.057-.602l.448.119c-.07.135-.14.273-.21.413-.066.14-.126.261-.182.364l-.35-.112a4.53 4.53 0 00.294-.784zm-1.183-.021l.406.105c-.117.35-.269.69-.455 1.022a4.574 4.574 0 01-.602.847l-.077-.112a1.583 1.583 0 00-.105-.133.637.637 0 00-.098-.112c.196-.2.373-.443.532-.728.163-.285.296-.581.399-.889zm3.311-.854v.714h1.554v-.714h-1.554zm0 1.134v.721h1.554v-.721h-1.554zm0-2.261v.707h1.554v-.707h-1.554zm-.462-.462h2.499v3.899h-2.499V7.695zm1.365 3.766h.462v1.673c0 .07.007.117.021.14.018.023.053.035.105.035H290.653a.095.095 0 00.091-.056.752.752 0 00.049-.259c.014-.13.021-.334.021-.609a.63.63 0 00.196.112c.084.033.156.058.217.077-.01.313-.033.555-.07.728-.033.168-.087.282-.161.343a.405.405 0 01-.287.098h-.448a.737.737 0 01-.322-.056.276.276 0 01-.154-.182 1.286 1.286 0 01-.042-.371v-1.673zm-.91.056h.455a5.029 5.029 0 01-.147 1.036 1.93 1.93 0 01-.378.77c-.173.215-.425.394-.756.539a1.387 1.387 0 00-.133-.203.934.934 0 00-.161-.182c.298-.112.525-.257.679-.434.154-.177.261-.392.322-.644.06-.252.1-.546.119-.882zm4.816-.98h4.081v3.339h-.525v-2.919h-3.052v2.919h-.504v-3.339zm-1.407-.924h6.174v.434h-6.174v-.434zm.511-.945h5.257v.42h-5.257v-.42zm1.232 2.765h3.437v.371h-3.437v-.371zm0 .861h3.437v.364h-3.437v-.364zm-.049.882h3.486v.42h-3.486v-.42zm3.675-5.698l.336.378c-.327.065-.698.121-1.113.168-.416.047-.854.084-1.316.112-.462.028-.929.051-1.4.07-.472.014-.924.021-1.358.021a1.103 1.103 0 00-.042-.203 1.397 1.397 0 00-.063-.203 69.14 69.14 0 001.33-.028c.466-.014.924-.035 1.372-.063.448-.028.865-.063 1.253-.105.387-.042.721-.091 1.001-.147zm-2.87.476l.546.119c-.159.56-.364 1.106-.616 1.638a6.64 6.64 0 01-.931 1.456 5.315 5.315 0 01-1.344 1.134 1.457 1.457 0 00-.098-.133 1.428 1.428 0 00-.119-.154 3.545 3.545 0 00-.119-.126 4.682 4.682 0 001.274-1.05c.354-.415.646-.87.875-1.365a8.324 8.324 0 00.532-1.519z" fill="#FFE040"/><g clip-path="url(#clip2_10005_7050)"><path d="M300.175 16.416s1.946-1.68 3.49-5.218c1.544-3.537 1.451-6.101 1.451-6.101h-49.132s-1.947 1.68-3.49 5.218c-1.545 3.537-1.452 6.101-1.452 6.101h49.133z" fill="#1C1C1C"/></g><defs><clipPath id="clip0_10005_7050"><path fill="#fff" d="M0 0h42.161v20.166H0z"/></clipPath><clipPath id="clip1_10005_7050"><path fill="#fff" transform="translate(264.23 5.177)" d="M0 0h5.444v11.251H0z"/></clipPath><clipPath id="clip2_10005_7050"><path fill="#fff" transform="rotate(-180 152.559 8.214)" d="M0 0h5.444v11.251H0z"/></clipPath></defs></svg>