<svg width="103" height="33" viewBox="0 0 103 33" fill="none" xmlns="http://www.w3.org/2000/svg"><g clip-path="url(#clip0_14024_7023)"><path d="M14.147.031S8.577 4.842 4.16 14.966C-.261 25.09.004 32.43.004 32.43H140.63s5.57-4.811 9.989-14.934C155.038 7.37 154.772.03 154.772.03H14.147z" fill="#1C1C1C"/></g><path fill="#1C1C1C" d="M15.581 0h71v32.201h-71z"/><path d="M25.288 17.103h1.326v4.488c0 .238.046.396.136.476.102.068.335.102.697.102H29.844c.227 0 .397-.051.51-.153.114-.114.193-.34.238-.68.046-.352.074-.867.085-1.547.102.068.221.136.357.204.148.068.295.13.442.187.159.045.295.085.408.119-.045.816-.13 1.445-.255 1.887-.124.453-.317.765-.578.935-.26.17-.629.255-1.105.255h-2.635c-.532 0-.946-.051-1.24-.153a1.04 1.04 0 01-.613-.544c-.113-.261-.17-.624-.17-1.088v-4.488zm-4.063.136h1.343c-.09.782-.238 1.496-.442 2.142a5.506 5.506 0 01-.918 1.75c-.408.51-.957.958-1.649 1.344-.691.396-1.564.725-2.618.986a2.081 2.081 0 00-.204-.374 7.983 7.983 0 00-.255-.408 1.358 1.358 0 00-.289-.323c.975-.216 1.768-.482 2.38-.8.624-.328 1.111-.702 1.462-1.121.363-.431.63-.907.8-1.428.17-.533.3-1.122.39-1.768zm2.193-4.76h1.241v4.352h-1.24v-4.352zm-2.278-4.71l1.411.273c-.385.657-.838 1.32-1.36 1.989a16.5 16.5 0 01-1.768 1.955 16.367 16.367 0 01-2.26 1.75 2.372 2.372 0 00-.239-.34 3.338 3.338 0 00-.34-.356 1.81 1.81 0 00-.306-.255 15.07 15.07 0 002.091-1.581 14.443 14.443 0 001.632-1.734 11.4 11.4 0 001.14-1.7zm-1.819 5.424v3.094h9.86v-3.094h-9.86zm-1.258-1.156h12.444v5.406H18.063v-5.406zm7.718-2.924h.29l.203-.051.884.56c-.204.375-.447.766-.73 1.174a18.64 18.64 0 01-.885 1.173c-.306.374-.606.702-.9.986a8.005 8.005 0 00-.46-.306 3.418 3.418 0 00-.493-.29 13.034 13.034 0 001.547-2.006c.227-.362.408-.69.544-.985v-.255zm-4.93 0h5.304v1.07h-5.984l.68-1.07zm15.657 1.938h10.676V9.844H35.352v-.935h13.005v3.06H36.508v-.918zm-.272 2.193h12.325v.918H35.964l.272-.918zm11.951 0h1.19l-.017.153c0 .102-.005.192-.017.272-.056.555-.119.986-.187 1.292-.068.294-.17.51-.306.646a1.053 1.053 0 01-.374.22 1.837 1.837 0 01-.459.086 8.805 8.805 0 01-.629.017c-.272-.012-.56-.023-.867-.034a2.704 2.704 0 00-.085-.442 1.558 1.558 0 00-.153-.442c.272.034.516.056.731.068h.46c.09 0 .164-.006.22-.017a.304.304 0 00.17-.085c.068-.08.125-.238.17-.476.057-.238.108-.607.153-1.105v-.153zM39.568 7.82h1.156v3.485c0 .612-.062 1.201-.187 1.768a4.012 4.012 0 01-.765 1.58c-.374.488-.935.936-1.683 1.344-.736.396-1.717.748-2.94 1.054a1.582 1.582 0 00-.17-.34 2.439 2.439 0 00-.239-.357 2.71 2.71 0 00-.22-.306c1.121-.261 2.017-.561 2.685-.901.68-.34 1.185-.714 1.513-1.122.34-.42.567-.856.68-1.31.114-.453.17-.929.17-1.427V7.82zm3.876 0h1.207v8.126h-1.207V7.82zm-6.766 8.55h10.795v4.608h-1.292v-3.536H37.92v3.655h-1.24v-4.726zm4.88 1.769h1.291c-.158.793-.408 1.484-.748 2.074a4.533 4.533 0 01-1.394 1.513c-.6.419-1.382.77-2.346 1.054-.952.283-2.142.51-3.57.68a2.183 2.183 0 00-.119-.357 4.375 4.375 0 00-.204-.391 1.235 1.235 0 00-.22-.323c1.337-.136 2.447-.312 3.331-.527.884-.227 1.593-.51 2.125-.85.533-.34.941-.743 1.224-1.207a4.948 4.948 0 00.63-1.666zm.815 2.975l.663-.867a46.74 46.74 0 013.485 1.054c.601.192 1.162.39 1.683.595.533.192.992.38 1.377.56l-.714 1.004c-.362-.182-.804-.38-1.326-.595-.51-.204-1.06-.414-1.649-.63a67.26 67.26 0 00-1.802-.594c-.6-.193-1.173-.369-1.717-.527zm-6.34-10.047h1.155c-.079.521-.164 1.065-.255 1.632a18.96 18.96 0 01-.255 1.462h-1.173c.091-.431.187-.93.29-1.496.101-.567.18-1.1.237-1.598zm23.272-2.414h7.48v9.044h-1.258V9.793h-5.015v7.905h-1.207V8.654zm3.791 8.789h1.173v4.13c0 .239.04.397.12.477.09.079.249.119.475.119h1.258c.193 0 .335-.068.425-.204.102-.148.17-.431.204-.85.046-.42.08-1.032.102-1.836.159.124.329.232.51.323.193.079.369.136.527.17-.034.884-.102 1.575-.204 2.074-.09.487-.255.821-.493 1.003-.226.192-.589.289-1.088.289H64.66c-.555 0-.957-.102-1.207-.306-.238-.193-.357-.573-.357-1.14v-4.25zm-.782-6.222h1.207v3.28c0 .726-.068 1.491-.204 2.296a8.98 8.98 0 01-.748 2.414c-.362.793-.89 1.558-1.58 2.295-.68.725-1.582 1.371-2.704 1.938a1.408 1.408 0 00-.204-.306 7.557 7.557 0 00-.306-.357 1.781 1.781 0 00-.272-.255c1.066-.544 1.916-1.145 2.55-1.802.646-.669 1.128-1.355 1.445-2.057a7.733 7.733 0 00.646-2.125c.114-.714.17-1.4.17-2.057V11.22zM52.335 9.13h5.253v1.224h-5.253V9.13zm4.828 0h.204l.221-.051.816.255c-.226 2.074-.595 3.966-1.105 5.678-.51 1.711-1.127 3.218-1.853 4.522-.725 1.292-1.547 2.368-2.465 3.23a2.967 2.967 0 00-.272-.34 4.801 4.801 0 00-.34-.34 2.563 2.563 0 00-.34-.29c.635-.555 1.224-1.252 1.768-2.09a16.879 16.879 0 001.496-2.856 23.917 23.917 0 001.156-3.468c.318-1.247.556-2.556.714-3.927V9.13zm-4.743 3.468l.97-.646c.498.657.997 1.354 1.495 2.09.499.726.97 1.463 1.411 2.21.454.737.856 1.451 1.207 2.143.352.68.63 1.303.833 1.87l-1.088.748a15.197 15.197 0 00-.816-1.87 38.028 38.028 0 00-1.156-2.193c-.43-.76-.895-1.508-1.394-2.244a42.43 42.43 0 00-1.462-2.108zm21.386 2.788h9.911v8.109h-1.275v-7.09H75.03v7.09h-1.224v-8.11zm-3.417-2.244h14.994v1.054H70.39v-1.054zm1.241-2.295h12.767v1.02H71.63v-1.02zm2.992 6.715h8.347v.9h-8.347v-.9zm0 2.09h8.347v.885h-8.347v-.884zm-.119 2.143h8.466v1.02h-8.466v-1.02zm8.925-13.838l.816.918c-.793.158-1.694.294-2.703.408a62.58 62.58 0 01-3.196.272c-1.122.068-2.255.124-3.4.17-1.144.034-2.244.05-3.298.05a2.544 2.544 0 00-.102-.492 3.196 3.196 0 00-.153-.493c1.032-.012 2.108-.034 3.23-.068 1.134-.034 2.244-.085 3.332-.153a67.23 67.23 0 003.043-.255c.941-.102 1.751-.221 2.431-.357zm-6.97 1.156l1.326.289a25.543 25.543 0 01-1.496 3.978c-.6 1.28-1.354 2.459-2.26 3.536a12.848 12.848 0 01-3.265 2.754 3.261 3.261 0 00-.238-.323 3.266 3.266 0 00-.289-.374 8.073 8.073 0 00-.289-.306 11.353 11.353 0 003.094-2.55 14.362 14.362 0 002.125-3.315 20.095 20.095 0 001.292-3.69z" fill="#FFE040"/><g clip-path="url(#clip1_14024_7023)"><path d="M88.016 32.17s5.57-4.811 9.989-14.935c4.42-10.125 4.154-17.464 4.154-17.464H-38.466s-5.57 4.811-9.988 14.935C-52.874 24.83-52.61 32.17-52.61 32.17H88.016z" fill="#1C1C1C"/></g><defs><clipPath id="clip0_14024_7023"><path fill="#fff" d="M0 0h15.581v32.201H0z"/></clipPath><clipPath id="clip1_14024_7023"><path fill="#fff" transform="rotate(-180 51.081 16.1)" d="M0 0h15.581v32.201H0z"/></clipPath></defs></svg>