<svg width="124" height="33" viewBox="0 0 124 33" fill="none" xmlns="http://www.w3.org/2000/svg"><g clip-path="url(#clip0_19026_1016)"><path d="M14.147.031S8.577 4.842 4.16 14.966C-.261 25.09.004 32.43.004 32.43H140.63s5.57-4.811 9.989-14.934C155.038 7.37 154.772.03 154.772.03H14.147z" fill="#1C1C1C"/></g><path fill="#1C1C1C" d="M15.581 0h92v32.201h-92z"/><path d="M16.202 16.758h12.683v1.619H16.202v-1.62zm5.282 1.029h2.013v5.16h-2.013v-5.16zm-3.83-8.173h9.717v5.645h-9.716V9.614zm7.75 1.574h-5.767v2.497h5.767v-2.497zm8.761 5.902h1.983v3.315h-1.983V17.09zm4.435 0h1.967v3.3H38.6v-3.3zm-7.643 2.68h12.698v1.634H30.957v-1.635zm1.438-9.944h9.822v4.646h-7.81v2.376H32.41v-3.95h7.81V11.43h-7.825V9.826zm.015 6.19h10.125v1.604H32.41v-1.604zm22.696-6.281h1.74v1.014c0 .605-.086 1.196-.257 1.77a6.043 6.043 0 01-.727 1.605 6.41 6.41 0 01-1.195 1.377 7.208 7.208 0 01-1.605 1.045 8.138 8.138 0 01-1.997.65l-.863-1.68a7.704 7.704 0 001.71-.499c.525-.232.984-.51 1.378-.832a5.71 5.71 0 00.998-1.045 4.37 4.37 0 00.606-1.18c.141-.414.212-.817.212-1.21V9.734zm.393 0h1.756v1.014c0 .404.065.812.197 1.226.14.414.343.812.605 1.196.272.373.605.716.999 1.029.393.313.847.585 1.362.817a7.664 7.664 0 001.74.5l-.862 1.68a8.139 8.139 0 01-1.998-.651 7.557 7.557 0 01-1.62-1.045 6.66 6.66 0 01-1.195-1.362 6.362 6.362 0 01-.742-1.62 6.519 6.519 0 01-.242-1.77V9.735zm-5.6 9.853h12.698v1.65H49.9v-1.65zm16.239-3.451h9.852v1.59h-9.852v-1.59zm-1.484 3.572h12.698v1.634H64.654V19.71zm1.484-9.762h9.746v1.604h-7.703v5.025h-2.043v-6.63zm1.422 3.087h8.007v1.56H67.56v-1.56zm21.49-4.131h2.028v14.06H89.05V8.903zm-8.884 9.156h1.241c.828 0 1.61-.01 2.346-.03.737-.03 1.458-.076 2.165-.136.706-.071 1.427-.172 2.164-.303l.212 1.62a29.95 29.95 0 01-3.345.408c-1.09.06-2.27.09-3.542.09h-1.24V18.06zm-.03-7.96h6.614v5.433h-4.54v3.148h-2.044v-4.737h4.54v-2.225h-4.57v-1.62zm14.725-.213h6.795v6.327h-6.795V9.886zm4.828 1.605h-2.845v3.117h2.845v-3.117zm4.101-2.558h2.013v8.233h-2.013V8.933zm-2.709 8.49c.979 0 1.826.111 2.543.333.716.212 1.271.525 1.665.939.393.413.59.908.59 1.483 0 .575-.197 1.07-.59 1.483-.394.424-.949.742-1.665.954-.717.222-1.569.333-2.558.333-.979 0-1.826-.111-2.543-.333-.716-.212-1.27-.53-1.664-.954a2.107 2.107 0 01-.575-1.483c0-.575.191-1.07.575-1.483.393-.414.948-.727 1.664-.939.717-.222 1.569-.333 2.558-.333zm0 1.56c-.605 0-1.12.045-1.544.136-.413.08-.726.211-.938.393a.817.817 0 00-.318.666c0 .272.106.5.318.681.212.182.525.318.938.409.424.08.939.12 1.544.12.606 0 1.11-.04 1.514-.12.413-.091.726-.227.938-.409a.845.845 0 00.333-.681.804.804 0 00-.333-.666c-.212-.182-.525-.313-.938-.393-.404-.091-.908-.137-1.514-.137z" fill="#FFE040"/><g clip-path="url(#clip1_19026_1016)"><path d="M109.016 32.17s5.57-4.811 9.989-14.934C123.425 7.11 123.159-.23 123.159-.23H-17.466s-5.57 4.812-9.988 14.935C-31.874 24.83-31.61 32.17-31.61 32.17h140.625z" fill="#1C1C1C"/></g><defs><clipPath id="clip0_19026_1016"><path fill="#fff" d="M0 0h15.581v32.201H0z"/></clipPath><clipPath id="clip1_19026_1016"><path fill="#fff" transform="rotate(-180 61.581 16.1)" d="M0 0h15.581v32.201H0z"/></clipPath></defs></svg>