<svg width="265" height="40" viewBox="0 0 265 40" fill="none" xmlns="http://www.w3.org/2000/svg"><g clip-path="url(#clip0_10005_6948)"><path d="M48.193 13.065h6.317c2.105 0 3.25.805 3.25 3.034 0 1.982-1.392 3.064-3.25 3.064h-6.317v-6.098zm-3.869 18.947h10.154c5.727 0 8.143-2.692 8.143-6.161 0-3.003-1.455-5.109-4.148-5.698v-.06c2.014-.867 3.159-2.477 3.159-4.707 0-3.684-2.6-5.48-6.564-5.48H44.324v22.106zm3.869-10.062h6.843c2.353 0 3.716 1.237 3.716 3.406s-1.363 3.498-3.716 3.498h-6.843V21.95zm-23.435 2.693c.093 5.48 4.18 7.895 9.225 7.895 4.396 0 8.794-1.981 8.794-6.935 0-2.29-1.393-4.766-4.304-5.635-1.145-.342-6.037-1.61-6.377-1.702-1.579-.435-2.632-1.3-2.632-2.848 0-2.23 2.261-2.88 4.056-2.88 2.663 0 4.582 1.053 4.766 3.901h3.87c0-4.614-3.87-7.059-8.483-7.059-3.993 0-8.08 2.074-8.08 6.501 0 2.29 1.113 4.582 4.892 5.603 3.035.837 5.046 1.24 6.593 1.827.898.34 1.827 1.021 1.827 2.724 0 1.703-1.269 3.343-4.674 3.343-3.096 0-5.604-1.332-5.604-4.738h-3.869v.003zm38.877 0c.092 5.48 4.18 7.895 9.224 7.895 4.396 0 8.794-1.981 8.794-6.935 0-2.29-1.393-4.766-4.303-5.635-1.145-.342-6.038-1.61-6.378-1.702-1.579-.435-2.631-1.3-2.631-2.848 0-2.23 2.26-2.88 4.055-2.88 2.664 0 4.582 1.053 4.767 3.901h3.871c0-4.614-3.871-7.059-8.483-7.059-3.995 0-8.08 2.074-8.08 6.501 0 2.29 1.114 4.582 4.893 5.603 3.035.837 5.046 1.24 6.593 1.827.898.34 1.827 1.021 1.827 2.724 0 1.703-1.269 3.343-4.675 3.343-3.095 0-5.603-1.332-5.603-4.738h-3.869l-.002.003zM25.832 0S19.86 5.177 14.736 16.044c3.087-7.99 2.885-13.596 2.885-13.596s-4.333 3.758-8.102 11.638c2.19-5.79 2.046-9.83 2.046-9.83s-3.143 2.727-5.912 8.44C7.203 8.501 7.101 5.59 7.101 5.59s-2.714 2.353-4.867 7.304C.076 17.847.205 21.437.205 21.437s2.198-1.908 4.206-5.898C2.124 21.459 2.274 25.61 2.274 25.61s3.055-2.653 5.798-8.206c-3.198 8.135-2.99 13.87-2.99 13.87s4.237-3.674 7.975-11.378C8.604 31.06 8.89 38.957 8.89 38.957S15.562 33.174 20.855 21c5.296-12.175 4.977-21 4.977-21z" fill="#1C1C1C"/></g><g clip-path="url(#clip1_10005_6948)"><path d="M190.515 10.34s-3.759 3.247-6.741 10.08c-2.984 6.834-2.804 11.787-2.804 11.787h94.915s3.759-3.247 6.742-10.08c2.983-6.834 2.804-11.788 2.804-11.788h-94.916z" fill="#1C1C1C"/></g><path fill="#1C1C1C" d="M191.483 10.318h63v21.734h-63z"/><path d="M191.902 21.417h8.561v1.093h-8.561v-1.093zm3.565.694h1.359v3.484h-1.359V22.11zm-2.584-5.516h6.558v3.81h-6.558v-3.81zm5.23 1.062h-3.892v1.686h3.892v-1.686zm5.914 3.984h1.338v2.237h-1.338v-2.237zm2.993 0h1.328v2.227h-1.328v-2.227zm-5.159 1.808h8.571v1.104h-8.571v-1.104zm.971-6.711h6.629v3.136h-5.271v1.604h-1.348v-2.666h5.271v-.991h-5.281v-1.083zm.01 4.178h6.834v1.083h-6.834v-1.083zm15.319-4.24h1.174v.685c0 .409-.058.807-.173 1.195a4.078 4.078 0 01-.491 1.083 4.33 4.33 0 01-.807.93 4.853 4.853 0 01-1.083.705 5.486 5.486 0 01-1.348.439l-.582-1.134a5.192 5.192 0 001.154-.337c.354-.157.664-.344.93-.562.265-.218.49-.453.674-.705.184-.259.32-.524.409-.797a2.53 2.53 0 00.143-.817v-.684zm.265 0h1.185v.685c0 .273.044.548.133.828.095.279.231.548.408.807.184.252.409.483.675.694.265.211.572.395.919.552.347.15.739.262 1.175.337l-.582 1.134a5.494 5.494 0 01-1.349-.44 5.115 5.115 0 01-1.093-.704 4.512 4.512 0 01-.807-.92 4.264 4.264 0 01-.5-1.093 4.4 4.4 0 01-.164-1.195v-.684zm-3.779 6.65h8.57v1.114h-8.57v-1.113zm10.96-2.328h6.65v1.072h-6.65v-1.072zm-1.002 2.41h8.571v1.104h-8.571v-1.104zm1.002-6.588h6.578v1.083h-5.199v3.391h-1.379V16.82zm.96 2.084h5.404v1.052h-5.404v-1.052zm14.505-2.79h1.368v9.49h-1.368v-9.49zm-5.997 6.181h.838c.558 0 1.086-.007 1.583-.02.497-.02.984-.051 1.461-.092.477-.048.964-.116 1.461-.205l.143 1.093c-.763.137-1.516.229-2.258.276-.735.041-1.532.061-2.39.061h-.838v-1.113zm-.02-5.373h4.464v3.667h-3.065v2.125h-1.379v-3.197h3.065v-1.502h-3.085v-1.093zm9.938-.143h4.587v4.27h-4.587v-4.27zm3.259 1.083h-1.92v2.104h1.92v-2.104zm2.768-1.727h1.359v5.557h-1.359v-5.557zm-1.828 5.731c.66 0 1.232.075 1.716.225.483.143.858.354 1.124.633.265.28.398.613.398 1.001 0 .388-.133.722-.398 1.001-.266.286-.641.5-1.124.644-.484.15-1.059.225-1.726.225-.661 0-1.233-.075-1.717-.225-.483-.143-.858-.358-1.123-.644a1.42 1.42 0 01-.388-1c0-.389.129-.723.388-1.002.265-.28.64-.49 1.123-.633.484-.15 1.059-.225 1.727-.225zm0 1.052c-.409 0-.756.03-1.042.092-.279.055-.491.143-.634.266a.551.551 0 00-.214.45.58.58 0 00.214.459c.143.123.355.214.634.276.286.054.633.081 1.042.081.408 0 .749-.027 1.021-.081.279-.062.491-.153.634-.276a.572.572 0 00.224-.46.544.544 0 00-.224-.45c-.143-.122-.355-.21-.634-.265a4.753 4.753 0 00-1.021-.092z" fill="#F865C9"/><path d="M191.902 21.417h8.561v1.093h-8.561v-1.093zm3.565.694h1.359v3.484h-1.359V22.11zm-2.584-5.516h6.558v3.81h-6.558v-3.81zm5.23 1.062h-3.892v1.686h3.892v-1.686zm5.914 3.984h1.338v2.237h-1.338v-2.237zm2.993 0h1.328v2.227h-1.328v-2.227zm-5.159 1.808h8.571v1.104h-8.571v-1.104zm.971-6.711h6.629v3.136h-5.271v1.604h-1.348v-2.666h5.271v-.991h-5.281v-1.083zm.01 4.178h6.834v1.083h-6.834v-1.083zm15.319-4.24h1.174v.685c0 .409-.058.807-.173 1.195a4.078 4.078 0 01-.491 1.083 4.33 4.33 0 01-.807.93 4.853 4.853 0 01-1.083.705 5.486 5.486 0 01-1.348.439l-.582-1.134a5.192 5.192 0 001.154-.337c.354-.157.664-.344.93-.562.265-.218.49-.453.674-.705.184-.259.32-.524.409-.797a2.53 2.53 0 00.143-.817v-.684zm.265 0h1.185v.685c0 .273.044.548.133.828.095.279.231.548.408.807.184.252.409.483.675.694.265.211.572.395.919.552.347.15.739.262 1.175.337l-.582 1.134a5.494 5.494 0 01-1.349-.44 5.115 5.115 0 01-1.093-.704 4.512 4.512 0 01-.807-.92 4.264 4.264 0 01-.5-1.093 4.4 4.4 0 01-.164-1.195v-.684zm-3.779 6.65h8.57v1.114h-8.57v-1.113zm10.96-2.328h6.65v1.072h-6.65v-1.072zm-1.002 2.41h8.571v1.104h-8.571v-1.104zm1.002-6.588h6.578v1.083h-5.199v3.391h-1.379V16.82zm.96 2.084h5.404v1.052h-5.404v-1.052zm14.505-2.79h1.368v9.49h-1.368v-9.49zm-5.997 6.181h.838c.558 0 1.086-.007 1.583-.02.497-.02.984-.051 1.461-.092.477-.048.964-.116 1.461-.205l.143 1.093c-.763.137-1.516.229-2.258.276-.735.041-1.532.061-2.39.061h-.838v-1.113zm-.02-5.373h4.464v3.667h-3.065v2.125h-1.379v-3.197h3.065v-1.502h-3.085v-1.093zm9.938-.143h4.587v4.27h-4.587v-4.27zm3.259 1.083h-1.92v2.104h1.92v-2.104zm2.768-1.727h1.359v5.557h-1.359v-5.557zm-1.828 5.731c.66 0 1.232.075 1.716.225.483.143.858.354 1.124.633.265.28.398.613.398 1.001 0 .388-.133.722-.398 1.001-.266.286-.641.5-1.124.644-.484.15-1.059.225-1.726.225-.661 0-1.233-.075-1.717-.225-.483-.143-.858-.358-1.123-.644a1.42 1.42 0 01-.388-1c0-.389.129-.723.388-1.002.265-.28.64-.49 1.123-.633.484-.15 1.059-.225 1.727-.225zm0 1.052c-.409 0-.756.03-1.042.092-.279.055-.491.143-.634.266a.551.551 0 00-.214.45.58.58 0 00.214.459c.143.123.355.214.634.276.286.054.633.081 1.042.081.408 0 .749-.027 1.021-.081.279-.062.491-.153.634-.276a.572.572 0 00.224-.46.544.544 0 00-.224-.45c-.143-.122-.355-.21-.634-.265a4.753 4.753 0 00-1.021-.092z" fill="#FFE040"/><g clip-path="url(#clip2_10005_6948)"><path d="M255.452 32.032s3.759-3.248 6.742-10.08c2.983-6.835 2.804-11.788 2.804-11.788h-94.915s-3.76 3.247-6.742 10.08c-2.984 6.834-2.804 11.788-2.804 11.788h94.915z" fill="#1C1C1C"/></g><defs><clipPath id="clip0_10005_6948"><path fill="#fff" transform="translate(.205)" d="M0 0h81.448v38.958H0z"/></clipPath><clipPath id="clip1_10005_6948"><path fill="#fff" transform="translate(180.967 10.318)" d="M0 0h10.517v21.734H0z"/></clipPath><clipPath id="clip2_10005_6948"><path fill="#fff" transform="rotate(-180 132.5 16.026)" d="M0 0h10.517v21.734H0z"/></clipPath></defs></svg>