<svg width="286" height="40" viewBox="0 0 286 40" fill="none" xmlns="http://www.w3.org/2000/svg"><g clip-path="url(#clip0_19029_1057)"><path d="M48.193 13.065h6.317c2.105 0 3.25.805 3.25 3.034 0 1.982-1.392 3.064-3.25 3.064h-6.317v-6.098zm-3.869 18.947h10.154c5.727 0 8.143-2.692 8.143-6.161 0-3.003-1.455-5.109-4.148-5.698v-.06c2.014-.867 3.159-2.477 3.159-4.707 0-3.684-2.6-5.48-6.564-5.48H44.324v22.106zm3.87-10.062h6.842c2.353 0 3.716 1.237 3.716 3.406s-1.363 3.498-3.716 3.498h-6.843V21.95zm-23.436 2.693c.093 5.48 4.18 7.895 9.225 7.895 4.396 0 8.794-1.981 8.794-6.935 0-2.29-1.393-4.766-4.304-5.635-1.145-.342-6.037-1.61-6.377-1.702-1.579-.435-2.632-1.3-2.632-2.848 0-2.23 2.261-2.88 4.056-2.88 2.664 0 4.582 1.053 4.766 3.901h3.87c0-4.614-3.87-7.059-8.483-7.059-3.993 0-8.08 2.074-8.08 6.501 0 2.29 1.113 4.582 4.892 5.603 3.035.837 5.046 1.24 6.593 1.827.898.34 1.827 1.021 1.827 2.724 0 1.703-1.269 3.343-4.674 3.343-3.095 0-5.604-1.332-5.604-4.738h-3.869v.003zm38.877 0c.092 5.48 4.18 7.895 9.224 7.895 4.396 0 8.794-1.981 8.794-6.935 0-2.29-1.393-4.766-4.303-5.635-1.145-.342-6.038-1.61-6.378-1.702-1.579-.435-2.631-1.3-2.631-2.848 0-2.23 2.26-2.88 4.055-2.88 2.664 0 4.582 1.053 4.767 3.901h3.871c0-4.614-3.871-7.059-8.482-7.059-3.996 0-8.08 2.074-8.08 6.501 0 2.29 1.113 4.582 4.892 5.603 3.035.837 5.046 1.24 6.593 1.827.898.34 1.827 1.021 1.827 2.724 0 1.703-1.269 3.343-4.674 3.343-3.096 0-5.604-1.332-5.604-4.738h-3.869l-.002.003zM25.832 0S19.86 5.177 14.736 16.044c3.087-7.99 2.885-13.596 2.885-13.596S13.289 6.206 9.52 14.086c2.19-5.79 2.045-9.83 2.045-9.83s-3.143 2.727-5.912 8.44C7.203 8.501 7.101 5.59 7.101 5.59s-2.714 2.353-4.867 7.304C.076 17.847.205 21.437.205 21.437s2.198-1.908 4.206-5.898C2.124 21.459 2.274 25.61 2.274 25.61s3.056-2.653 5.798-8.206c-3.198 8.135-2.99 13.87-2.99 13.87s4.238-3.674 7.975-11.378C8.604 31.06 8.89 38.957 8.89 38.957S15.562 33.174 20.855 21c5.296-12.175 4.977-21 4.977-21z" fill="#1C1C1C"/></g><g clip-path="url(#clip1_19029_1057)"><path d="M188.515 10.34s-3.759 3.247-6.741 10.08c-2.984 6.834-2.804 11.787-2.804 11.787h94.915s3.759-3.247 6.742-10.08c2.983-6.834 2.804-11.788 2.804-11.788h-94.916z" fill="#1C1C1C"/></g><path fill="#1C1C1C" d="M189.483 10.318h86v21.734h-86z"/><path d="M190.169 21.957h11.48v.953h-11.48v-.953zm5.138.588h1.148v4.718h-1.148v-4.718zm-3.668-7.238h8.54v4.943h-8.54v-4.943zm7.392.938h-6.258v3.08h6.258v-3.08zm8.007 5.782h1.134v3.108h-1.134v-3.108zm4.046-.014h1.134v3.108h-1.134v-3.107zm-7.252 2.73h11.48v.966h-11.48v-.965zm1.4-9.197h8.652v3.835h-7.476v2.535h-1.148v-3.473h7.476v-1.946h-7.504v-.951zm.028 5.866h8.918v.951h-8.918v-.951zm21.764-5.936h1.022v.98c0 .55-.098 1.073-.294 1.567a5.223 5.223 0 01-.784 1.387c-.326.42-.709.797-1.148 1.134a7.26 7.26 0 01-1.386.854c-.485.233-.98.41-1.484.532l-.518-.966a6.558 6.558 0 001.316-.434 6.962 6.962 0 001.26-.715c.392-.289.738-.61 1.036-.966a4.2 4.2 0 00.714-1.134c.178-.41.266-.83.266-1.26v-.98zm.224 0h.994v.98c0 .429.089.849.266 1.26.178.4.416.779.714 1.133.308.355.658.677 1.05.966.392.28.808.523 1.246.729a6.2 6.2 0 001.344.42l-.532.966a7.443 7.443 0 01-1.484-.532 7.94 7.94 0 01-1.386-.854 6.96 6.96 0 01-1.148-1.134 5.251 5.251 0 01-.784-1.387 4.418 4.418 0 01-.28-1.567v-.98zm-5.292 9.127h11.48v.966h-11.48v-.965zm15.119-3.164h8.694v.939h-8.694v-.939zm-1.47 3.235h11.48v.966h-11.48v-.966zm1.47-8.974h8.568v.951h-7.392v5.069h-1.176V15.7zm.812 2.814h7.476v.938h-7.476v-.939zm20.593-3.906h1.148V27.29h-1.148V14.607zm-8.498 8.651h1.05c.719 0 1.409-.009 2.072-.027a37.621 37.621 0 002.03-.14 32.533 32.533 0 002.156-.28l.112.951a33.257 33.257 0 01-3.22.378 56.84 56.84 0 01-3.15.085h-1.05v-.966zm-.028-7.476h5.852v4.522h-4.648v3.319h-1.176v-4.256h4.648v-2.633h-4.676v-.951zm13.607-.237h5.908v5.515h-5.908v-5.515zm4.774.938h-3.64v3.64h3.64v-3.64zm3.78-1.863h1.162v7.56h-1.162v-7.56zm-3.01 7.784c.877 0 1.629.098 2.254.294.635.187 1.125.462 1.47.826.345.355.518.79.518 1.303 0 .503-.173.938-.518 1.302-.345.364-.835.639-1.47.826-.625.195-1.377.294-2.254.294s-1.633-.099-2.268-.294c-.635-.187-1.125-.462-1.47-.826a1.828 1.828 0 01-.518-1.302c0-.514.173-.948.518-1.302.345-.364.835-.64 1.47-.826.635-.197 1.391-.294 2.268-.294zm0 .924c-.644 0-1.199.061-1.666.183-.457.111-.812.28-1.064.503a1.064 1.064 0 00-.364.813c0 .308.121.573.364.797.252.224.607.397 1.064.518.467.122 1.022.183 1.666.183.635 0 1.181-.061 1.638-.183.467-.12.821-.294 1.064-.518.252-.224.378-.49.378-.797 0-.318-.126-.588-.378-.813-.243-.224-.597-.392-1.064-.503-.457-.122-1.003-.183-1.638-.183z" fill="#F865C9"/><path d="M190.169 21.957h11.48v.953h-11.48v-.953zm5.138.588h1.148v4.718h-1.148v-4.718zm-3.668-7.238h8.54v4.943h-8.54v-4.943zm7.392.938h-6.258v3.08h6.258v-3.08zm8.007 5.782h1.134v3.108h-1.134v-3.108zm4.046-.014h1.134v3.108h-1.134v-3.107zm-7.252 2.73h11.48v.966h-11.48v-.965zm1.4-9.197h8.652v3.835h-7.476v2.535h-1.148v-3.473h7.476v-1.946h-7.504v-.951zm.028 5.866h8.918v.951h-8.918v-.951zm21.764-5.936h1.022v.98c0 .55-.098 1.073-.294 1.567a5.223 5.223 0 01-.784 1.387c-.326.42-.709.797-1.148 1.134a7.26 7.26 0 01-1.386.854c-.485.233-.98.41-1.484.532l-.518-.966a6.558 6.558 0 001.316-.434 6.962 6.962 0 001.26-.715c.392-.289.738-.61 1.036-.966a4.2 4.2 0 00.714-1.134c.178-.41.266-.83.266-1.26v-.98zm.224 0h.994v.98c0 .429.089.849.266 1.26.178.4.416.779.714 1.133.308.355.658.677 1.05.966.392.28.808.523 1.246.729a6.2 6.2 0 001.344.42l-.532.966a7.443 7.443 0 01-1.484-.532 7.94 7.94 0 01-1.386-.854 6.96 6.96 0 01-1.148-1.134 5.251 5.251 0 01-.784-1.387 4.418 4.418 0 01-.28-1.567v-.98zm-5.292 9.127h11.48v.966h-11.48v-.965zm15.119-3.164h8.694v.939h-8.694v-.939zm-1.47 3.235h11.48v.966h-11.48v-.966zm1.47-8.974h8.568v.951h-7.392v5.069h-1.176V15.7zm.812 2.814h7.476v.938h-7.476v-.939zm20.593-3.906h1.148V27.29h-1.148V14.607zm-8.498 8.651h1.05c.719 0 1.409-.009 2.072-.027a37.621 37.621 0 002.03-.14 32.533 32.533 0 002.156-.28l.112.951a33.257 33.257 0 01-3.22.378 56.84 56.84 0 01-3.15.085h-1.05v-.966zm-.028-7.476h5.852v4.522h-4.648v3.319h-1.176v-4.256h4.648v-2.633h-4.676v-.951zm13.607-.237h5.908v5.515h-5.908v-5.515zm4.774.938h-3.64v3.64h3.64v-3.64zm3.78-1.863h1.162v7.56h-1.162v-7.56zm-3.01 7.784c.877 0 1.629.098 2.254.294.635.187 1.125.462 1.47.826.345.355.518.79.518 1.303 0 .503-.173.938-.518 1.302-.345.364-.835.639-1.47.826-.625.195-1.377.294-2.254.294s-1.633-.099-2.268-.294c-.635-.187-1.125-.462-1.47-.826a1.828 1.828 0 01-.518-1.302c0-.514.173-.948.518-1.302.345-.364.835-.64 1.47-.826.635-.197 1.391-.294 2.268-.294zm0 .924c-.644 0-1.199.061-1.666.183-.457.111-.812.28-1.064.503a1.064 1.064 0 00-.364.813c0 .308.121.573.364.797.252.224.607.397 1.064.518.467.122 1.022.183 1.666.183.635 0 1.181-.061 1.638-.183.467-.12.821-.294 1.064-.518.252-.224.378-.49.378-.797 0-.318-.126-.588-.378-.813-.243-.224-.597-.392-1.064-.503-.457-.122-1.003-.183-1.638-.183z" fill="#FFE040"/><g clip-path="url(#clip2_19029_1057)"><path d="M276.452 32.032s3.759-3.248 6.742-10.08c2.983-6.835 2.804-11.788 2.804-11.788h-94.915s-3.76 3.247-6.742 10.08c-2.984 6.834-2.804 11.788-2.804 11.788h94.915z" fill="#1C1C1C"/></g><defs><clipPath id="clip0_19029_1057"><path fill="#fff" transform="translate(.205)" d="M0 0h81.448v38.958H0z"/></clipPath><clipPath id="clip1_19029_1057"><path fill="#fff" transform="translate(178.967 10.318)" d="M0 0h10.517v21.734H0z"/></clipPath><clipPath id="clip2_19029_1057"><path fill="#fff" transform="rotate(-180 143 16.026)" d="M0 0h10.517v21.734H0z"/></clipPath></defs></svg>