<svg width="93" height="45" viewBox="0 0 93 45" fill="none" xmlns="http://www.w3.org/2000/svg"><g clip-path="url(#clip0_19029_770)"><path d="M54.522 14.844h7.177c2.392 0 3.693.915 3.693 3.448 0 2.251-1.582 3.48-3.693 3.48h-7.177v-6.928zM50.126 36.37h11.537c6.507 0 9.252-3.06 9.252-7 0-3.412-1.654-5.804-4.713-6.474v-.07c2.288-.983 3.588-2.813 3.588-5.346 0-4.186-2.954-6.226-7.457-6.226H50.126v25.116zm4.396-11.432h7.775c2.673 0 4.222 1.405 4.222 3.87 0 2.463-1.549 3.973-4.222 3.973h-7.775V24.94zm-26.626 3.06c.105 6.225 4.749 8.97 10.481 8.97 4.994 0 9.99-2.252 9.99-7.88 0-2.601-1.581-5.415-4.888-6.402-1.301-.388-6.86-1.83-7.246-1.934-1.794-.494-2.99-1.478-2.99-3.236 0-2.533 2.569-3.271 4.608-3.271 3.026 0 5.206 1.196 5.416 4.431h4.395c0-5.242-4.395-8.02-9.637-8.02-4.537 0-9.18 2.357-9.18 7.386 0 2.602 1.264 5.207 5.558 6.367 3.448.95 5.733 1.408 7.49 2.075 1.02.386 2.076 1.16 2.076 3.095 0 1.935-1.441 3.798-5.31 3.798-3.517 0-6.367-1.514-6.367-5.383h-4.396v.003zm44.17 0c.105 6.225 4.748 8.97 10.48 8.97 4.995 0 9.991-2.252 9.991-7.88 0-2.601-1.581-5.415-4.889-6.402-1.3-.388-6.86-1.83-7.245-1.934-1.794-.494-2.99-1.478-2.99-3.236 0-2.533 2.568-3.271 4.608-3.271 3.026 0 5.206 1.196 5.415 4.431h4.399c0-5.242-4.399-8.02-9.638-8.02-4.54 0-9.18 2.357-9.18 7.386 0 2.602 1.265 5.207 5.559 6.367 3.448.95 5.732 1.408 7.49 2.075 1.02.386 2.076 1.16 2.076 3.095 0 1.935-1.442 3.798-5.311 3.798-3.517 0-6.366-1.514-6.366-5.383h-4.396l-.003.003zM29.116 0S22.331 5.882 16.51 18.229C20.017 9.15 19.787 2.78 19.787 2.78s-4.922 4.27-9.204 13.223c2.487-6.579 2.323-11.169 2.323-11.169s-3.57 3.098-6.716 9.59C7.95 9.66 7.835 6.351 7.835 6.351s-3.083 2.674-5.53 8.298C-.147 20.277 0 24.356 0 24.356s2.497-2.168 4.778-6.701C2.18 24.38 2.35 29.099 2.35 29.099s3.472-3.015 6.588-9.324C5.305 29.018 5.54 35.534 5.54 35.534s4.814-4.175 9.06-12.927C9.543 35.288 9.869 44.262 9.869 44.262s7.58-6.572 13.594-20.402C29.478 10.026 29.116 0 29.116 0z" fill="#1C1C1C"/></g><defs><clipPath id="clip0_19029_770"><path fill="#fff" d="M0 0h92.537v44.262H0z"/></clipPath></defs></svg>