<svg width="96" height="18" viewBox="0 0 96 18" fill="none" xmlns="http://www.w3.org/2000/svg"><g clip-path="url(#clip0_19036_3055)"><path d="M7.646.316s-3.01 2.6-5.399 8.07C-.142 13.86.002 17.826.002 17.826H76s3.01-2.6 5.398-8.071c2.39-5.472 2.246-9.438 2.246-9.438H7.646z" fill="#1C1C1C"/></g><path fill="#1C1C1C" d="M8.42.299h79v17.403h-79z"/><path d="M9.053 9.601H19.64v.878H9.053v-.878zm4.738.543h1.058v4.35h-1.058v-4.35zM10.409 3.47h7.874v4.557H10.41V3.47zm6.816.865h-5.77v2.84h5.77v-2.84zm7.383 5.331h1.045v2.866h-1.045V9.666zm3.73-.013h1.046v2.866h-1.046V9.653zm-6.687 2.517h10.586v.891H21.651v-.89zm1.291-8.48h7.978v3.536h-6.893v2.337h-1.059V6.36h6.894V4.567h-6.92v-.878zm.026 5.408h8.223v.878h-8.223v-.878zm20.068-5.473h.943v.903c0 .508-.09.99-.271 1.446a4.834 4.834 0 01-.723 1.278 5.805 5.805 0 01-1.059 1.046c-.396.31-.822.572-1.278.787a6.859 6.859 0 01-1.368.49l-.478-.89a6.07 6.07 0 001.214-.4c.413-.181.8-.4 1.161-.659.362-.266.68-.563.956-.89.284-.327.503-.676.658-1.046.164-.379.245-.766.245-1.162v-.903zm.207 0h.916v.903c0 .396.082.783.246 1.162.163.37.383.719.658 1.046.284.327.607.624.968.89.362.259.745.482 1.15.672.412.18.825.31 1.238.387l-.49.89a6.856 6.856 0 01-1.369-.49 7.3 7.3 0 01-1.278-.787 6.409 6.409 0 01-1.058-1.046 4.834 4.834 0 01-.723-1.278 4.061 4.061 0 01-.258-1.446v-.903zm-4.88 8.416H48.95v.891H38.363v-.89zm13.941-2.917h8.017v.865h-8.017v-.865zm-1.355 2.982h10.585v.89H50.95v-.89zm1.355-8.275h7.9v.878h-6.816v4.673h-1.084v-5.55zm.749 2.595h6.893v.865h-6.893v-.865zM72.04 2.824H73.1V14.52H72.04V2.824zm-7.836 7.978h.969c.662 0 1.299-.009 1.91-.026.62-.026 1.244-.069 1.872-.129.637-.06 1.3-.146 1.988-.258l.103.878c-1.05.172-2.04.288-2.969.348-.93.052-1.898.078-2.904.078h-.969v-.891zm-.025-6.893h5.395v4.17H65.29v3.059h-1.085V7.213h4.286V4.786H64.18V3.91zm12.546-.22h5.448v5.086h-5.448V3.69zm4.402.865h-3.356V7.91h3.356V4.554zm3.486-1.717h1.071v6.971h-1.071v-6.97zm-2.776 7.177c.81 0 1.502.09 2.079.272.585.172 1.037.426 1.355.761.318.327.478.727.478 1.2 0 .466-.16.866-.478 1.201-.319.336-.77.59-1.356.762-.576.18-1.269.271-2.078.271-.809 0-1.506-.09-2.091-.271-.585-.172-1.037-.426-1.356-.762a1.684 1.684 0 01-.477-1.2c0-.473.159-.874.477-1.2.319-.336.77-.59 1.356-.762.585-.181 1.282-.271 2.091-.271zm0 .853c-.594 0-1.106.055-1.536.167-.422.104-.749.258-.981.465a.982.982 0 00-.336.749c0 .284.112.53.336.736.232.206.56.365.98.477.431.112.943.168 1.537.168.585 0 1.089-.056 1.51-.168.43-.112.758-.27.982-.477a.967.967 0 000-1.484c-.224-.207-.551-.362-.981-.466-.422-.112-.926-.168-1.51-.168z" fill="#FFE040"/><g clip-path="url(#clip1_19036_3055)"><path d="M88.196 17.685s3.01-2.6 5.398-8.072C95.984 4.141 95.84.175 95.84.175H19.841s-3.01 2.6-5.398 8.071c-2.389 5.472-2.245 9.439-2.245 9.439h75.998z" fill="#1C1C1C"/></g><defs><clipPath id="clip0_19036_3055"><path fill="#fff" transform="translate(0 .299)" d="M0 0h8.421v17.403H0z"/></clipPath><clipPath id="clip1_19036_3055"><path fill="#fff" transform="rotate(-180 47.92 8.85)" d="M0 0h8.421v17.403H0z"/></clipPath></defs></svg>