<svg width="265" height="40" viewBox="0 0 265 40" fill="none" xmlns="http://www.w3.org/2000/svg"><g clip-path="url(#clip0_10005_6948)"><path d="M48.193 13.065h6.317c2.105 0 3.25.805 3.25 3.034 0 1.982-1.392 3.064-3.25 3.064h-6.317v-6.098zm-3.869 18.947h10.154c5.727 0 8.143-2.692 8.143-6.161 0-3.003-1.455-5.109-4.148-5.698v-.06c2.014-.867 3.159-2.477 3.159-4.707 0-3.684-2.6-5.48-6.564-5.48H44.324v22.106zm3.869-10.062h6.843c2.353 0 3.716 1.237 3.716 3.406s-1.363 3.498-3.716 3.498h-6.843V21.95zm-23.435 2.693c.093 5.48 4.18 7.895 9.225 7.895 4.396 0 8.794-1.981 8.794-6.935 0-2.29-1.393-4.766-4.304-5.635-1.145-.342-6.037-1.61-6.377-1.702-1.579-.435-2.632-1.3-2.632-2.848 0-2.23 2.261-2.88 4.056-2.88 2.663 0 4.582 1.053 4.766 3.901h3.87c0-4.614-3.87-7.059-8.483-7.059-3.993 0-8.08 2.074-8.08 6.501 0 2.29 1.113 4.582 4.892 5.603 3.035.837 5.046 1.24 6.593 1.827.898.34 1.827 1.021 1.827 2.724 0 1.703-1.269 3.343-4.674 3.343-3.096 0-5.604-1.332-5.604-4.738h-3.869v.003zm38.877 0c.092 5.48 4.18 7.895 9.224 7.895 4.396 0 8.794-1.981 8.794-6.935 0-2.29-1.393-4.766-4.303-5.635-1.145-.342-6.038-1.61-6.378-1.702-1.579-.435-2.631-1.3-2.631-2.848 0-2.23 2.26-2.88 4.055-2.88 2.664 0 4.582 1.053 4.767 3.901h3.871c0-4.614-3.871-7.059-8.483-7.059-3.995 0-8.08 2.074-8.08 6.501 0 2.29 1.114 4.582 4.893 5.603 3.035.837 5.046 1.24 6.593 1.827.898.34 1.827 1.021 1.827 2.724 0 1.703-1.269 3.343-4.675 3.343-3.095 0-5.603-1.332-5.603-4.738h-3.869l-.002.003zM25.832 0S19.86 5.177 14.736 16.044c3.087-7.99 2.885-13.596 2.885-13.596s-4.333 3.758-8.102 11.638c2.19-5.79 2.046-9.83 2.046-9.83s-3.143 2.727-5.912 8.44C7.203 8.501 7.101 5.59 7.101 5.59s-2.714 2.353-4.867 7.304C.076 17.847.205 21.437.205 21.437s2.198-1.908 4.206-5.898C2.124 21.459 2.274 25.61 2.274 25.61s3.055-2.653 5.798-8.206c-3.198 8.135-2.99 13.87-2.99 13.87s4.237-3.674 7.975-11.378C8.604 31.06 8.89 38.957 8.89 38.957S15.562 33.174 20.855 21c5.296-12.175 4.977-21 4.977-21z" fill="#1C1C1C"/></g><g clip-path="url(#clip1_10005_6948)"><path d="M190.515 10.34s-3.759 3.247-6.741 10.08c-2.984 6.834-2.804 11.787-2.804 11.787h94.915s3.759-3.247 6.742-10.08c2.983-6.834 2.804-11.788 2.804-11.788h-94.916z" fill="#1C1C1C"/></g><path fill="#1C1C1C" d="M191.483 10.318h63v21.734h-63z"/><path d="M191.523 15.535v-.654l2.36-.705v.685l-2.36.674zm0 1.072v-.653l2.36-.705v.684l-2.36.674zm3.658 8.13c-.599 0-1.062-.062-1.389-.184-.32-.13-.545-.327-.674-.593-.123-.272-.191-.62-.204-1.042l-.215-5.639h1.205l.215 5.098c.014.32.044.562.092.725a.518.518 0 00.327.337c.163.061.412.092.745.092.218 0 .375.058.47.174a.595.595 0 01.143.408c0 .17-.064.317-.194.44-.122.122-.296.183-.521.183zm.568 0l.103-1.206c.313 0 .561-.02.745-.061.184-.041.314-.12.388-.235.082-.123.123-.296.123-.521 0-.184-.027-.402-.082-.654a6.646 6.646 0 00-.204-.797c-.082-.279-.167-.541-.255-.786l1.185-.358c.088.225.17.487.245.787.081.293.15.592.204.899.061.3.092.582.092.848 0 .333-.041.62-.123.858-.081.238-.197.439-.347.602a1.6 1.6 0 01-.531.378 3.037 3.037 0 01-.705.194 6.43 6.43 0 01-.838.052zm1.41-5.547a.66.66 0 01-.47-.184.641.641 0 01-.194-.47c0-.184.065-.34.194-.47a.625.625 0 01.47-.204c.177 0 .33.068.46.204.129.13.194.286.194.47a.641.641 0 01-.654.654zm5.341 5.546c-.599 0-1.062-.06-1.389-.183-.32-.13-.545-.327-.675-.593-.122-.272-.19-.62-.204-1.042l-.214-5.639h1.205l.215 5.098c.013.32.044.562.091.725a.523.523 0 00.327.337c.164.061.412.092.746.092.218 0 .375.058.47.174a.6.6 0 01.143.408c0 .17-.065.317-.194.44-.123.122-.296.183-.521.183zm7.187 0c-.306 0-.589-.02-.847-.06a2.525 2.525 0 01-.705-.236 1.763 1.763 0 01-.552-.48 2.403 2.403 0 01-.378-.786l.725-.542c.109.238.242.422.399.552.163.13.361.221.592.276.239.047.528.071.869.071.211 0 .361.058.449.174a.6.6 0 01.143.408c0 .17-.061.317-.184.44-.122.122-.293.183-.511.183zm-6.619 0l.102-1.205a8.357 8.357 0 002.104-.276c.334-.088.654-.2.961-.337.306-.136.596-.296.868-.48a3.045 3.045 0 00-.644-.347 3.246 3.246 0 00-.755-.225 4.437 4.437 0 00-.869-.082 5.25 5.25 0 00-.327.01c-.109.007-.221.021-.337.041a3.741 3.741 0 00-.347.062l-.184-1.165a4.488 4.488 0 011.165-.163c.361 0 .691.04.99.122.3.082.576.184.828.307.252.122.487.245.705.367a7.9 7.9 0 00.643.317c.205.082.409.123.613.123h.317l.122 1.123a2.458 2.458 0 00-.817.154c-.252.088-.5.204-.745.347-.239.136-.494.28-.767.429-.272.15-.578.293-.919.429a7.39 7.39 0 01-1.175.327 8.507 8.507 0 01-1.532.122zm2.799 2.125a.613.613 0 01-.45-.184.601.601 0 01-.183-.439c0-.177.061-.33.183-.46a.598.598 0 01.45-.194c.177 0 .327.065.449.194.13.13.195.283.195.46 0 .17-.065.317-.195.44a.61.61 0 01-.449.183zm4.387-2.125l.102-1.205c.17 0 .313-.04.429-.122.123-.082.245-.215.368-.399.122-.19.262-.446.418-.766.198-.415.402-.739.613-.97.212-.232.426-.392.644-.48.225-.096.446-.144.664-.144.272 0 .528.065.766.195.238.122.443.289.613.5.177.211.313.45.409.715.102.266.153.535.153.807 0 .381-.075.708-.225.98-.15.273-.351.48-.603.624a1.666 1.666 0 01-.837.214c-.259 0-.572-.047-.94-.143-.368-.095-.78-.306-1.236-.633l.47-1.011c.32.21.613.36.878.45.273.088.497.132.675.132.156 0 .282-.02.377-.061a.45.45 0 00.225-.174.575.575 0 00.072-.296c0-.164-.041-.327-.123-.49a1.239 1.239 0 00-.306-.43.595.595 0 00-.419-.173.509.509 0 00-.358.143 1.628 1.628 0 00-.316.419c-.102.19-.222.432-.358.725-.163.334-.32.606-.47.817a1.892 1.892 0 01-.459.49 1.434 1.434 0 01-.542.225c-.197.041-.425.061-.684.061zm9.982-.05l-.214-7.407h1.205l.204 7.406h-1.195zm2.93 2.349l-.246-1.206c.45-.06.852-.136 1.206-.224.354-.089.654-.215.899-.378.252-.164.439-.381.562-.654.129-.28.194-.633.194-1.062 0-.17-.017-.34-.051-.511a1.607 1.607 0 00-.143-.46.93.93 0 00-.235-.327.48.48 0 00-.337-.132.523.523 0 00-.368.153 1.022 1.022 0 00-.245.367c-.062.143-.092.29-.092.44 0 .116.024.214.071.296a.52.52 0 00.245.174c.116.04.259.061.429.061.177 0 .358-.017.542-.051.184-.041.347-.095.49-.163l.041.96a2.272 2.272 0 01-.572.306 1.997 1.997 0 01-.725.123c-.252 0-.484-.027-.695-.082a1.624 1.624 0 01-.531-.266 1.238 1.238 0 01-.358-.45 1.612 1.612 0 01-.122-.653c0-.306.047-.606.143-.899a2.96 2.96 0 01.419-.796 2.02 2.02 0 01.623-.562c.245-.143.504-.215.776-.215.313 0 .589.078.827.235.239.157.436.368.593.633.157.26.276.545.357.858.082.314.123.624.123.93 0 .715-.15 1.325-.449 1.828-.3.511-.736.91-1.308 1.196-.572.293-1.26.47-2.063.53zm7.084-3.504c.32 0 .569-.03.746-.092.177-.061.299-.143.367-.245a.618.618 0 00.113-.357c0-.15-.041-.327-.123-.532a4.97 4.97 0 00-.327-.674 10.39 10.39 0 00-.419-.705c-.149-.238-.296-.46-.439-.664l1.022-.674c.279.395.521.78.725 1.154.211.375.381.726.511 1.052.136.32.238.603.306.848.068.246.16.433.276.562.116.13.245.218.388.266.143.04.279.061.409.061.218 0 .374.058.47.174a.6.6 0 01.143.408c0 .17-.062.317-.184.44-.123.122-.296.183-.521.183a2.17 2.17 0 01-.746-.122 1.355 1.355 0 01-.562-.399 1.966 1.966 0 01-.367-.715l.541-.04a1.248 1.248 0 01-.306.623c-.164.197-.402.357-.715.48-.307.122-.702.184-1.185.184-.218 0-.45-.02-.695-.062a4.684 4.684 0 01-.695-.153 2.955 2.955 0 01-.592-.276l.47-1.072c.204.102.425.187.664.255.238.061.48.092.725.092zm8.097 1.236c-.3 0-.606-.037-.919-.112a4.108 4.108 0 01-.899-.337 3.504 3.504 0 01-.777-.552 2.66 2.66 0 01-.541-.746 2.16 2.16 0 01-.204-.94c0-.306.064-.588.194-.847.129-.26.317-.467.562-.623.252-.164.548-.246.888-.246.334 0 .62.085.858.256.246.163.433.378.562.643.137.26.205.531.205.818 0 .429-.113.81-.337 1.144a2.678 2.678 0 01-.91.827c-.381.225-.81.395-1.287.51a6.205 6.205 0 01-1.471.174l.102-1.205a8.58 8.58 0 001.002-.051c.292-.034.544-.088.755-.163.252-.089.46-.208.624-.358.163-.15.286-.31.367-.48.082-.177.123-.344.123-.5a1 1 0 00-.061-.348.63.63 0 00-.184-.265.424.424 0 00-.296-.113.514.514 0 00-.327.113.652.652 0 00-.205.275.969.969 0 00-.071.368c0 .252.065.48.194.684.136.205.313.378.531.521.225.137.467.242.725.317.259.068.518.102.777.102.218 0 .374-.034.47-.102a.38.38 0 00.153-.327.65.65 0 00-.051-.224 1.105 1.105 0 00-.215-.358 3.953 3.953 0 00-.521-.552 13.915 13.915 0 00-.98-.796c-.409-.314-.93-.688-1.563-1.124l.664-.93a35.33 35.33 0 011.746 1.308c.464.374.835.701 1.114.98.279.28.49.525.633.736.15.211.245.402.286.572.048.164.072.327.072.49 0 .286-.068.538-.205.756a1.348 1.348 0 01-.592.521c-.266.123-.596.184-.991.184zm5.917-.03c-.599 0-1.063-.062-1.389-.184-.32-.13-.545-.327-.675-.593-.122-.272-.19-.62-.204-1.042l-.214-5.639h1.205l.214 5.098c.014.32.045.562.092.725a.523.523 0 00.327.337c.164.061.412.092.746.092.218 0 .375.058.47.174a.6.6 0 01.143.408c0 .17-.065.317-.194.44-.123.122-.296.183-.521.183zm.568 0l.102-1.206c.225 0 .405-.017.542-.051a.572.572 0 00.347-.245c.095-.136.18-.337.255-.603.075-.272.16-.647.256-1.123l1.113.235a7.69 7.69 0 01-.082.377c-.027.137-.051.28-.071.43a2.689 2.689 0 00-.031.388c0 .183.062.33.184.439.123.102.354.153.695.153.184 0 .34-.017.47-.051a.618.618 0 00.326-.255c.089-.13.167-.337.235-.623.069-.287.14-.675.215-1.165l1.134.194a17.51 17.51 0 00-.153.99 3.013 3.013 0 00-.031.39c0 .088.024.173.071.255.048.081.14.146.276.194.136.047.337.071.603.071.184 0 .344-.024.48-.071a.602.602 0 00.327-.246c.075-.115.112-.272.112-.47 0-.258-.061-.588-.184-.99a22.784 22.784 0 00-.398-1.247l1.205-.378c.103.266.195.555.276.869.082.306.147.61.194.909.055.293.082.552.082.776 0 .334-.051.63-.153.889a1.792 1.792 0 01-.409.643c-.177.17-.391.3-.643.389a2.514 2.514 0 01-.838.133c-.368 0-.671-.038-.909-.113a1.066 1.066 0 01-.531-.378c-.123-.177-.205-.412-.245-.705h.347c-.136.361-.286.627-.45.797-.163.17-.361.28-.592.327a4.473 4.473 0 01-.879.072 3.1 3.1 0 01-.643-.072 1.203 1.203 0 01-.582-.347c-.164-.184-.28-.46-.348-.828l.46-.04c-.129.38-.296.663-.501.847a1.61 1.61 0 01-.715.358 4.697 4.697 0 01-.919.081zm4.985-6.058a.596.596 0 01-.409-1.011.56.56 0 01.409-.174c.163 0 .3.058.409.174a.596.596 0 010 .838.54.54 0 01-.409.173zm-.766 1.267a.57.57 0 01-.419-.174.604.604 0 01-.174-.43c0-.156.058-.292.174-.408a.57.57 0 01.419-.173c.156 0 .293.058.408.173a.559.559 0 01.174.409.604.604 0 01-.174.429.558.558 0 01-.408.174zm1.501 0a.56.56 0 01-.408-.174.604.604 0 01-.174-.43c0-.156.058-.292.174-.408a.56.56 0 01.408-.173c.164 0 .304.058.419.173a.559.559 0 01.174.409.604.604 0 01-.174.429.569.569 0 01-.419.174z" fill="#F865C9"/><path d="M191.523 15.535v-.654l2.36-.705v.685l-2.36.674zm0 1.072v-.653l2.36-.705v.684l-2.36.674zm3.658 8.13c-.599 0-1.062-.062-1.389-.184-.32-.13-.545-.327-.674-.593-.123-.272-.191-.62-.204-1.042l-.215-5.639h1.205l.215 5.098c.014.32.044.562.092.725a.518.518 0 00.327.337c.163.061.412.092.745.092.218 0 .375.058.47.174a.595.595 0 01.143.408c0 .17-.064.317-.194.44-.122.122-.296.183-.521.183zm.568 0l.103-1.206c.313 0 .561-.02.745-.061.184-.041.314-.12.388-.235.082-.123.123-.296.123-.521 0-.184-.027-.402-.082-.654a6.646 6.646 0 00-.204-.797c-.082-.279-.167-.541-.255-.786l1.185-.358c.088.225.17.487.245.787.081.293.15.592.204.899.061.3.092.582.092.848 0 .333-.041.62-.123.858-.081.238-.197.439-.347.602a1.6 1.6 0 01-.531.378 3.037 3.037 0 01-.705.194 6.43 6.43 0 01-.838.052zm1.41-5.547a.66.66 0 01-.47-.184.641.641 0 01-.194-.47c0-.184.065-.34.194-.47a.625.625 0 01.47-.204c.177 0 .33.068.46.204.129.13.194.286.194.47a.641.641 0 01-.654.654zm5.341 5.546c-.599 0-1.062-.06-1.389-.183-.32-.13-.545-.327-.675-.593-.122-.272-.19-.62-.204-1.042l-.214-5.639h1.205l.215 5.098c.013.32.044.562.091.725a.523.523 0 00.327.337c.164.061.412.092.746.092.218 0 .375.058.47.174a.6.6 0 01.143.408c0 .17-.065.317-.194.44-.123.122-.296.183-.521.183zm7.187 0c-.306 0-.589-.02-.847-.06a2.525 2.525 0 01-.705-.236 1.763 1.763 0 01-.552-.48 2.403 2.403 0 01-.378-.786l.725-.542c.109.238.242.422.399.552.163.13.361.221.592.276.239.047.528.071.869.071.211 0 .361.058.449.174a.6.6 0 01.143.408c0 .17-.061.317-.184.44-.122.122-.293.183-.511.183zm-6.619 0l.102-1.205a8.357 8.357 0 002.104-.276c.334-.088.654-.2.961-.337.306-.136.596-.296.868-.48a3.045 3.045 0 00-.644-.347 3.246 3.246 0 00-.755-.225 4.437 4.437 0 00-.869-.082 5.25 5.25 0 00-.327.01c-.109.007-.221.021-.337.041a3.741 3.741 0 00-.347.062l-.184-1.165a4.488 4.488 0 011.165-.163c.361 0 .691.04.99.122.3.082.576.184.828.307.252.122.487.245.705.367a7.9 7.9 0 00.643.317c.205.082.409.123.613.123h.317l.122 1.123a2.458 2.458 0 00-.817.154c-.252.088-.5.204-.745.347-.239.136-.494.28-.767.429-.272.15-.578.293-.919.429a7.39 7.39 0 01-1.175.327 8.507 8.507 0 01-1.532.122zm2.799 2.125a.613.613 0 01-.45-.184.601.601 0 01-.183-.439c0-.177.061-.33.183-.46a.598.598 0 01.45-.194c.177 0 .327.065.449.194.13.13.195.283.195.46 0 .17-.065.317-.195.44a.61.61 0 01-.449.183zm4.387-2.125l.102-1.205c.17 0 .313-.04.429-.122.123-.082.245-.215.368-.399.122-.19.262-.446.418-.766.198-.415.402-.739.613-.97.212-.232.426-.392.644-.48.225-.096.446-.144.664-.144.272 0 .528.065.766.195.238.122.443.289.613.5.177.211.313.45.409.715.102.266.153.535.153.807 0 .381-.075.708-.225.98-.15.273-.351.48-.603.624a1.666 1.666 0 01-.837.214c-.259 0-.572-.047-.94-.143-.368-.095-.78-.306-1.236-.633l.47-1.011c.32.21.613.36.878.45.273.088.497.132.675.132.156 0 .282-.02.377-.061a.45.45 0 00.225-.174.575.575 0 00.072-.296c0-.164-.041-.327-.123-.49a1.239 1.239 0 00-.306-.43.595.595 0 00-.419-.173.509.509 0 00-.358.143 1.628 1.628 0 00-.316.419c-.102.19-.222.432-.358.725-.163.334-.32.606-.47.817a1.892 1.892 0 01-.459.49 1.434 1.434 0 01-.542.225c-.197.041-.425.061-.684.061zm9.982-.05l-.214-7.407h1.205l.204 7.406h-1.195zm2.93 2.349l-.246-1.206c.45-.06.852-.136 1.206-.224.354-.089.654-.215.899-.378.252-.164.439-.381.562-.654.129-.28.194-.633.194-1.062 0-.17-.017-.34-.051-.511a1.607 1.607 0 00-.143-.46.93.93 0 00-.235-.327.48.48 0 00-.337-.132.523.523 0 00-.368.153 1.022 1.022 0 00-.245.367c-.062.143-.092.29-.092.44 0 .116.024.214.071.296a.52.52 0 00.245.174c.116.04.259.061.429.061.177 0 .358-.017.542-.051.184-.041.347-.095.49-.163l.041.96a2.272 2.272 0 01-.572.306 1.997 1.997 0 01-.725.123c-.252 0-.484-.027-.695-.082a1.624 1.624 0 01-.531-.266 1.238 1.238 0 01-.358-.45 1.612 1.612 0 01-.122-.653c0-.306.047-.606.143-.899a2.96 2.96 0 01.419-.796 2.02 2.02 0 01.623-.562c.245-.143.504-.215.776-.215.313 0 .589.078.827.235.239.157.436.368.593.633.157.26.276.545.357.858.082.314.123.624.123.93 0 .715-.15 1.325-.449 1.828-.3.511-.736.91-1.308 1.196-.572.293-1.26.47-2.063.53zm7.084-3.504c.32 0 .569-.03.746-.092.177-.061.299-.143.367-.245a.618.618 0 00.113-.357c0-.15-.041-.327-.123-.532a4.97 4.97 0 00-.327-.674 10.39 10.39 0 00-.419-.705c-.149-.238-.296-.46-.439-.664l1.022-.674c.279.395.521.78.725 1.154.211.375.381.726.511 1.052.136.32.238.603.306.848.068.246.16.433.276.562.116.13.245.218.388.266.143.04.279.061.409.061.218 0 .374.058.47.174a.6.6 0 01.143.408c0 .17-.062.317-.184.44-.123.122-.296.183-.521.183a2.17 2.17 0 01-.746-.122 1.355 1.355 0 01-.562-.399 1.966 1.966 0 01-.367-.715l.541-.04a1.248 1.248 0 01-.306.623c-.164.197-.402.357-.715.48-.307.122-.702.184-1.185.184-.218 0-.45-.02-.695-.062a4.684 4.684 0 01-.695-.153 2.955 2.955 0 01-.592-.276l.47-1.072c.204.102.425.187.664.255.238.061.48.092.725.092zm8.097 1.236c-.3 0-.606-.037-.919-.112a4.108 4.108 0 01-.899-.337 3.504 3.504 0 01-.777-.552 2.66 2.66 0 01-.541-.746 2.16 2.16 0 01-.204-.94c0-.306.064-.588.194-.847.129-.26.317-.467.562-.623.252-.164.548-.246.888-.246.334 0 .62.085.858.256.246.163.433.378.562.643.137.26.205.531.205.818 0 .429-.113.81-.337 1.144a2.678 2.678 0 01-.91.827c-.381.225-.81.395-1.287.51a6.205 6.205 0 01-1.471.174l.102-1.205a8.58 8.58 0 001.002-.051c.292-.034.544-.088.755-.163.252-.089.46-.208.624-.358.163-.15.286-.31.367-.48.082-.177.123-.344.123-.5a1 1 0 00-.061-.348.63.63 0 00-.184-.265.424.424 0 00-.296-.113.514.514 0 00-.327.113.652.652 0 00-.205.275.969.969 0 00-.071.368c0 .252.065.48.194.684.136.205.313.378.531.521.225.137.467.242.725.317.259.068.518.102.777.102.218 0 .374-.034.47-.102a.38.38 0 00.153-.327.65.65 0 00-.051-.224 1.105 1.105 0 00-.215-.358 3.953 3.953 0 00-.521-.552 13.915 13.915 0 00-.98-.796c-.409-.314-.93-.688-1.563-1.124l.664-.93a35.33 35.33 0 011.746 1.308c.464.374.835.701 1.114.98.279.28.49.525.633.736.15.211.245.402.286.572.048.164.072.327.072.49 0 .286-.068.538-.205.756a1.348 1.348 0 01-.592.521c-.266.123-.596.184-.991.184zm5.917-.03c-.599 0-1.063-.062-1.389-.184-.32-.13-.545-.327-.675-.593-.122-.272-.19-.62-.204-1.042l-.214-5.639h1.205l.214 5.098c.014.32.045.562.092.725a.523.523 0 00.327.337c.164.061.412.092.746.092.218 0 .375.058.47.174a.6.6 0 01.143.408c0 .17-.065.317-.194.44-.123.122-.296.183-.521.183zm.568 0l.102-1.206c.225 0 .405-.017.542-.051a.572.572 0 00.347-.245c.095-.136.18-.337.255-.603.075-.272.16-.647.256-1.123l1.113.235a7.69 7.69 0 01-.082.377c-.027.137-.051.28-.071.43a2.689 2.689 0 00-.031.388c0 .183.062.33.184.439.123.102.354.153.695.153.184 0 .34-.017.47-.051a.618.618 0 00.326-.255c.089-.13.167-.337.235-.623.069-.287.14-.675.215-1.165l1.134.194a17.51 17.51 0 00-.153.99 3.013 3.013 0 00-.031.39c0 .088.024.173.071.255.048.081.14.146.276.194.136.047.337.071.603.071.184 0 .344-.024.48-.071a.602.602 0 00.327-.246c.075-.115.112-.272.112-.47 0-.258-.061-.588-.184-.99a22.784 22.784 0 00-.398-1.247l1.205-.378c.103.266.195.555.276.869.082.306.147.61.194.909.055.293.082.552.082.776 0 .334-.051.63-.153.889a1.792 1.792 0 01-.409.643c-.177.17-.391.3-.643.389a2.514 2.514 0 01-.838.133c-.368 0-.671-.038-.909-.113a1.066 1.066 0 01-.531-.378c-.123-.177-.205-.412-.245-.705h.347c-.136.361-.286.627-.45.797-.163.17-.361.28-.592.327a4.473 4.473 0 01-.879.072 3.1 3.1 0 01-.643-.072 1.203 1.203 0 01-.582-.347c-.164-.184-.28-.46-.348-.828l.46-.04c-.129.38-.296.663-.501.847a1.61 1.61 0 01-.715.358 4.697 4.697 0 01-.919.081zm4.985-6.058a.596.596 0 01-.409-1.011.56.56 0 01.409-.174c.163 0 .3.058.409.174a.596.596 0 010 .838.54.54 0 01-.409.173zm-.766 1.267a.57.57 0 01-.419-.174.604.604 0 01-.174-.43c0-.156.058-.292.174-.408a.57.57 0 01.419-.173c.156 0 .293.058.408.173a.559.559 0 01.174.409.604.604 0 01-.174.429.558.558 0 01-.408.174zm1.501 0a.56.56 0 01-.408-.174.604.604 0 01-.174-.43c0-.156.058-.292.174-.408a.56.56 0 01.408-.173c.164 0 .304.058.419.173a.559.559 0 01.174.409.604.604 0 01-.174.429.569.569 0 01-.419.174z" fill="#FFE040"/><g clip-path="url(#clip2_10005_6948)"><path d="M255.452 32.032s3.76-3.248 6.742-10.08c2.983-6.835 2.804-11.788 2.804-11.788h-94.915s-3.76 3.247-6.742 10.08c-2.984 6.834-2.804 11.788-2.804 11.788h94.915z" fill="#1C1C1C"/></g><defs><clipPath id="clip0_10005_6948"><path fill="#fff" transform="translate(.205)" d="M0 0h81.448v38.958H0z"/></clipPath><clipPath id="clip1_10005_6948"><path fill="#fff" transform="translate(180.967 10.318)" d="M0 0h10.517v21.734H0z"/></clipPath><clipPath id="clip2_10005_6948"><path fill="#fff" transform="rotate(-180 132.5 16.026)" d="M0 0h10.517v21.734H0z"/></clipPath></defs></svg>