<svg width="286" height="40" viewBox="0 0 286 40" fill="none" xmlns="http://www.w3.org/2000/svg"><g clip-path="url(#clip0_17024_886)"><path d="M48.193 13.065h6.317c2.105 0 3.25.805 3.25 3.034 0 1.982-1.392 3.064-3.25 3.064h-6.317v-6.098zm-3.869 18.947h10.154c5.727 0 8.143-2.692 8.143-6.161 0-3.003-1.455-5.109-4.148-5.698v-.06c2.014-.867 3.159-2.477 3.159-4.707 0-3.684-2.6-5.48-6.564-5.48H44.324v22.106zm3.87-10.062h6.842c2.353 0 3.716 1.237 3.716 3.406s-1.363 3.498-3.716 3.498h-6.843V21.95zm-23.436 2.693c.093 5.48 4.18 7.895 9.225 7.895 4.396 0 8.794-1.981 8.794-6.935 0-2.29-1.393-4.766-4.304-5.635-1.145-.342-6.037-1.61-6.377-1.702-1.579-.435-2.632-1.3-2.632-2.848 0-2.23 2.261-2.88 4.056-2.88 2.664 0 4.582 1.053 4.766 3.901h3.87c0-4.614-3.87-7.059-8.483-7.059-3.993 0-8.08 2.074-8.08 6.501 0 2.29 1.113 4.582 4.892 5.603 3.035.837 5.046 1.24 6.593 1.827.898.34 1.827 1.021 1.827 2.724 0 1.703-1.269 3.343-4.674 3.343-3.095 0-5.604-1.332-5.604-4.738h-3.869v.003zm38.877 0c.092 5.48 4.18 7.895 9.224 7.895 4.396 0 8.794-1.981 8.794-6.935 0-2.29-1.393-4.766-4.303-5.635-1.145-.342-6.038-1.61-6.378-1.702-1.579-.435-2.631-1.3-2.631-2.848 0-2.23 2.26-2.88 4.055-2.88 2.664 0 4.582 1.053 4.767 3.901h3.871c0-4.614-3.871-7.059-8.482-7.059-3.996 0-8.08 2.074-8.08 6.501 0 2.29 1.113 4.582 4.892 5.603 3.035.837 5.046 1.24 6.593 1.827.898.34 1.827 1.021 1.827 2.724 0 1.703-1.269 3.343-4.674 3.343-3.096 0-5.604-1.332-5.604-4.738h-3.869l-.002.003zM25.832 0S19.86 5.177 14.736 16.044c3.087-7.99 2.885-13.596 2.885-13.596S13.289 6.206 9.52 14.086c2.19-5.79 2.045-9.83 2.045-9.83s-3.143 2.727-5.912 8.44C7.203 8.501 7.101 5.59 7.101 5.59s-2.714 2.353-4.867 7.304C.076 17.847.205 21.437.205 21.437s2.198-1.908 4.206-5.898C2.124 21.459 2.274 25.61 2.274 25.61s3.056-2.653 5.798-8.206c-3.198 8.135-2.99 13.87-2.99 13.87s4.238-3.674 7.975-11.378C8.604 31.06 8.89 38.957 8.89 38.957S15.562 33.174 20.855 21c5.296-12.175 4.977-21 4.977-21z" fill="#1C1C1C"/></g><defs><clipPath id="clip0_17024_886"><path fill="#fff" transform="translate(.205)" d="M0 0h81.448v38.958H0z"/></clipPath></defs></svg>