<svg width="86" height="23" viewBox="0 0 86 23" fill="none" xmlns="http://www.w3.org/2000/svg"><g clip-path="url(#clip0_17025_717)"><path d="M9.703.021s-3.82 3.3-6.85 10.244C-.18 17.21.002 22.244.002 22.244h96.454s3.82-3.3 6.851-10.244c3.032-6.945 2.85-11.979 2.85-11.979H9.703z" fill="#1C1C1C"/></g><path fill="#1C1C1C" d="M10.687 0h64v22.087h-64z"/><path d="M10.727 5.277v-.665l2.398-.716v.696l-2.398.685zm0 1.09v-.665l2.398-.716v.696l-2.398.685zm3.718 8.228c-.609 0-1.08-.062-1.412-.187-.325-.131-.553-.332-.685-.602-.125-.276-.194-.63-.208-1.058l-.218-5.73h1.225l.218 5.18c.014.325.045.57.094.736.055.166.166.28.332.343.166.062.419.093.758.093.221 0 .38.06.477.177.097.11.146.249.146.415a.594.594 0 01-.198.446c-.124.125-.3.187-.529.187zm.577 0l.104-1.225c.319 0 .571-.02.758-.062.187-.041.318-.121.394-.239.083-.124.125-.3.125-.53 0-.186-.028-.407-.083-.663a6.963 6.963 0 00-.208-.81c-.083-.284-.17-.55-.26-.8l1.205-.363c.09.229.173.495.25.8.082.297.151.602.207.913.062.305.093.592.093.862 0 .339-.041.63-.124.872-.084.242-.201.446-.353.612-.146.16-.326.287-.54.384-.215.09-.453.156-.716.197a6.539 6.539 0 01-.852.052zm1.433-5.637a.669.669 0 01-.478-.186.65.65 0 01-.197-.478.65.65 0 01.197-.477.634.634 0 01.478-.208c.18 0 .336.07.467.208a.65.65 0 01.197.477.656.656 0 01-.664.664zm5.427 5.637c-.609 0-1.08-.062-1.412-.187-.325-.131-.553-.332-.685-.602-.124-.276-.194-.63-.207-1.058l-.218-5.73h1.225l.218 5.18c.014.325.045.57.093.736.055.166.166.28.332.343.166.062.419.093.758.093.221 0 .38.06.478.177.096.11.145.249.145.415a.594.594 0 01-.197.446c-.125.125-.301.187-.53.187zm7.304 0c-.311 0-.598-.02-.861-.062a2.57 2.57 0 01-.717-.239 1.787 1.787 0 01-.56-.488 2.457 2.457 0 01-.384-.799l.737-.55c.11.242.245.429.405.56.166.132.366.225.602.28.242.05.536.073.882.073.215 0 .367.06.457.177.097.11.145.249.145.415a.61.61 0 01-.187.446c-.124.125-.297.187-.519.187zm-6.726 0l.103-1.225c.367 0 .73-.024 1.09-.072.36-.049.71-.118 1.049-.208a6.5 6.5 0 00.976-.342c.311-.139.605-.302.882-.488a3.103 3.103 0 00-.654-.353 3.313 3.313 0 00-.768-.229 4.499 4.499 0 00-.883-.083c-.11 0-.221.004-.332.01-.11.008-.225.021-.342.042a3.79 3.79 0 00-.353.062l-.187-1.183a4.579 4.579 0 011.183-.166c.367 0 .703.041 1.007.125.305.083.585.186.841.31.256.125.495.25.716.375.229.124.447.231.654.321.208.083.416.125.623.125h.322l.125 1.142a2.496 2.496 0 00-.83.156 4.39 4.39 0 00-.759.353c-.242.138-.501.283-.778.436a8.485 8.485 0 01-.934.436 7.54 7.54 0 01-1.194.332c-.45.083-.97.124-1.557.124zm2.844 2.16a.621.621 0 01-.457-.187.61.61 0 01-.187-.447c0-.18.063-.335.187-.467a.605.605 0 01.457-.197c.18 0 .332.066.457.197a.638.638 0 01.197.467.594.594 0 01-.197.447.621.621 0 01-.457.186zm4.458-2.16l.104-1.225a.737.737 0 00.436-.124c.124-.083.249-.218.373-.405.125-.194.267-.453.426-.779.2-.422.408-.75.623-.986.214-.235.432-.398.654-.488.228-.097.453-.145.675-.145.276 0 .536.066.778.197.242.125.45.294.623.509.18.214.318.457.415.727.104.27.156.543.156.82 0 .387-.076.72-.228.996a1.589 1.589 0 01-.613.633c-.256.146-.54.218-.851.218-.263 0-.581-.048-.955-.145-.374-.097-.793-.311-1.256-.644l.477-1.027c.325.214.623.367.893.457.277.09.505.134.685.134a.99.99 0 00.384-.062c.104-.041.18-.1.228-.176a.587.587 0 00.073-.301c0-.166-.041-.333-.124-.499a1.253 1.253 0 00-.312-.436.603.603 0 00-.425-.176.516.516 0 00-.364.145c-.104.09-.21.232-.322.426-.103.194-.224.44-.363.737a6.05 6.05 0 01-.477.83c-.146.215-.301.38-.468.499a1.45 1.45 0 01-.55.228c-.2.042-.432.062-.695.062zm10.144-.052l-.218-7.526h1.225l.208 7.526h-1.215zm2.977 2.388l-.25-1.225c.458-.062.866-.138 1.226-.228s.664-.218.913-.384a1.52 1.52 0 00.571-.665c.132-.284.197-.643.197-1.08a2.64 2.64 0 00-.051-.518 1.606 1.606 0 00-.146-.468.933.933 0 00-.239-.332.487.487 0 00-.342-.135.533.533 0 00-.374.156 1.041 1.041 0 00-.249.374 1.122 1.122 0 00-.093.446c0 .118.024.218.072.301a.525.525 0 00.25.177c.117.041.262.062.435.062.18 0 .364-.018.55-.052.188-.042.354-.097.499-.166l.041.976c-.166.124-.36.228-.58.311-.215.083-.461.125-.738.125-.256 0-.491-.028-.706-.083a1.648 1.648 0 01-.54-.27 1.252 1.252 0 01-.363-.457 1.625 1.625 0 01-.124-.664c0-.312.048-.616.145-.914.104-.297.245-.567.425-.81.18-.242.391-.432.634-.57.249-.146.512-.219.789-.219.318 0 .598.08.84.24.243.158.443.373.603.643.159.263.28.553.363.872.083.318.124.633.124.944 0 .727-.152 1.346-.456 1.859-.305.519-.748.924-1.33 1.214-.58.298-1.28.478-2.096.54zm7.2-3.56c.325 0 .577-.032.757-.094.18-.062.304-.145.374-.25a.628.628 0 00.114-.363c0-.152-.042-.332-.125-.54a5.124 5.124 0 00-.332-.684 10.858 10.858 0 00-.425-.717 16.448 16.448 0 00-.447-.675l1.038-.685c.284.402.53.793.737 1.173.215.381.388.737.52 1.07.138.325.242.612.31.861.07.25.163.44.281.571.118.132.25.222.395.27.145.042.283.062.415.062.221 0 .38.06.477.177.097.11.146.249.146.415a.61.61 0 01-.187.446c-.125.125-.301.187-.53.187-.276 0-.53-.041-.758-.124a1.376 1.376 0 01-.57-.405 1.998 1.998 0 01-.374-.727l.55-.041a1.267 1.267 0 01-.311.633c-.166.2-.409.363-.727.488-.311.124-.713.187-1.204.187-.222 0-.457-.021-.706-.063a4.745 4.745 0 01-.706-.155 3.012 3.012 0 01-.602-.28l.477-1.09c.208.103.433.19.675.259.242.062.488.093.737.093zm8.228 1.255a4.011 4.011 0 01-1.848-.456 3.546 3.546 0 01-.789-.56 2.693 2.693 0 01-.55-.759 2.193 2.193 0 01-.208-.955 1.9 1.9 0 01.197-.861c.132-.263.322-.474.571-.634.256-.166.558-.249.904-.249.339 0 .63.087.871.26.25.166.44.384.571.654.139.263.208.54.208.83 0 .436-.114.824-.343 1.163-.221.332-.529.612-.923.84a4.784 4.784 0 01-1.308.52 6.314 6.314 0 01-1.495.176l.104-1.225c.387 0 .726-.017 1.017-.052.297-.034.553-.09.768-.166.256-.09.467-.21.633-.363.166-.152.291-.315.374-.488.083-.18.125-.35.125-.509a.997.997 0 00-.063-.352.632.632 0 00-.187-.27.43.43 0 00-.3-.115.523.523 0 00-.333.115.664.664 0 00-.207.28.972.972 0 00-.073.374c0 .256.066.488.197.695.139.208.319.384.54.53.228.138.474.245.737.321.263.07.526.104.789.104.221 0 .38-.034.477-.104a.386.386 0 00.156-.332.66.66 0 00-.052-.228 1.13 1.13 0 00-.218-.364 4.053 4.053 0 00-.53-.56 14.156 14.156 0 00-.996-.81 39.138 39.138 0 00-1.588-1.142l.675-.944a35.77 35.77 0 011.775 1.328c.47.381.848.713 1.131.997.284.284.499.533.644.747.152.215.25.409.29.582.05.166.073.332.073.498a1.375 1.375 0 01-.81 1.298c-.27.124-.605.186-1.006.186zm6.012-.03c-.609 0-1.08-.063-1.411-.188-.326-.131-.554-.332-.685-.602-.125-.276-.194-.63-.208-1.058l-.218-5.73h1.225l.218 5.18c.014.325.045.57.093.736.056.166.166.28.332.343.167.062.42.093.758.093.222 0 .38.06.478.177.097.11.145.249.145.415a.594.594 0 01-.197.446c-.125.125-.301.187-.53.187zm.578 0l.103-1.226c.229 0 .412-.017.55-.052a.58.58 0 00.354-.249c.096-.138.183-.342.26-.612.075-.277.162-.658.259-1.142l1.131.239c-.02.11-.048.238-.083.384a7.085 7.085 0 00-.072.436c-.021.145-.032.277-.032.394 0 .187.063.336.187.447.125.103.36.155.706.155a1.9 1.9 0 00.478-.052.631.631 0 00.332-.26c.09-.13.17-.342.239-.632.069-.291.141-.685.218-1.184l1.152.197a18.604 18.604 0 00-.156 1.007c-.02.16-.031.291-.031.395 0 .09.024.176.073.26.048.082.141.148.28.197.138.048.343.072.612.072.187 0 .35-.024.488-.072a.61.61 0 00.332-.25c.077-.117.115-.276.115-.477 0-.263-.063-.599-.187-1.007-.118-.408-.253-.83-.405-1.266l1.225-.384c.104.27.197.563.28.882.083.311.149.62.197.924.056.297.083.56.083.789 0 .339-.052.64-.155.903a1.824 1.824 0 01-.415.654c-.18.173-.398.304-.654.394-.257.09-.54.135-.852.135-.373 0-.681-.038-.924-.114a1.088 1.088 0 01-.54-.384c-.124-.18-.207-.419-.249-.716h.353c-.138.367-.29.636-.456.81a1.133 1.133 0 01-.602.332 4.55 4.55 0 01-.893.072c-.208 0-.426-.024-.654-.072a1.225 1.225 0 01-.592-.353c-.166-.187-.284-.467-.353-.841l.467-.042c-.131.388-.3.675-.508.862-.208.18-.45.3-.727.363a4.783 4.783 0 01-.934.083zm5.066-6.157a.568.568 0 01-.416-.176.603.603 0 01.415-1.028c.167 0 .305.06.416.177a.603.603 0 010 .851.547.547 0 01-.416.176zm-.779 1.288a.58.58 0 01-.426-.177.615.615 0 01-.176-.436c0-.159.059-.297.176-.415a.58.58 0 01.426-.177c.16 0 .298.06.415.177a.568.568 0 01.177.415.615.615 0 01-.177.436.568.568 0 01-.415.177zm1.526 0a.568.568 0 01-.415-.177.615.615 0 01-.177-.436c0-.159.06-.297.177-.415a.568.568 0 01.415-.177.58.58 0 01.426.177.568.568 0 01.176.415.615.615 0 01-.176.436.58.58 0 01-.426.177z" fill="#FFE040"/><g clip-path="url(#clip1_17025_717)"><path d="M75.671 22.065s3.82-3.3 6.852-10.243c3.032-6.945 2.85-11.979 2.85-11.979h-96.455s-3.82 3.3-6.851 10.244c-3.032 6.945-2.85 11.978-2.85 11.978h96.454z" fill="#1C1C1C"/></g><defs><clipPath id="clip0_17025_717"><path fill="#fff" d="M0 0h10.687v22.087H0z"/></clipPath><clipPath id="clip1_17025_717"><path fill="#fff" transform="rotate(-180 42.687 11.043)" d="M0 0h10.687v22.087H0z"/></clipPath></defs></svg>